B612MonoLigaNerdFont-BoldIta.ufo
<glyph name="exclam" format="2">
  <advance width="1300"/>
  <unicode hex="0021"/>
  <outline>
    <contour>
      <point x="485" y="1500" type="line"/>
      <point x="293" y="409" type="line"/>
      <point x="599" y="444" type="line"/>
      <point x="785" y="1500" type="line"/>
    </contour>
    <contour>
      <point x="233" y="149" type="curve" smooth="yes"/>
      <point x="231" y="139"/>
      <point x="230" y="129"/>
      <point x="230" y="119" type="curve" smooth="yes"/>
      <point x="230" y="96"/>
      <point x="235" y="63"/>
      <point x="260" y="33" type="curve" smooth="yes"/>
      <point x="285" y="3"/>
      <point x="324" y="-17"/>
      <point x="368" y="-17" type="curve" smooth="yes"/>
      <point x="459" y="-17"/>
      <point x="543" y="60"/>
      <point x="559" y="149" type="curve" smooth="yes"/>
      <point x="561" y="159"/>
      <point x="562" y="169"/>
      <point x="562" y="178" type="curve" smooth="yes"/>
      <point x="562" y="202"/>
      <point x="556" y="235"/>
      <point x="532" y="265" type="curve" smooth="yes"/>
      <point x="507" y="295"/>
      <point x="470" y="313"/>
      <point x="425" y="313" type="curve" smooth="yes"/>
      <point x="334" y="313"/>
      <point x="249" y="239"/>
    </contour>
  </outline>
</glyph>
<glyph name="quotedbl" format="2">
  <advance width="1300"/>
  <unicode hex="0022"/>
  <outline>
    <contour>
      <point x="647" y="1500" type="line"/>
      <point x="624" y="1367" type="line" smooth="yes"/>
      <point x="616" y="1319"/>
      <point x="602" y="1230"/>
      <point x="599" y="1168" type="curve"/>
      <point x="595" y="1013" type="line"/>
      <point x="775" y="1013" type="line"/>
      <point x="825" y="1168" type="line"/>
      <point x="844" y="1230"/>
      <point x="862" y="1319"/>
      <point x="870" y="1367" type="curve" smooth="yes"/>
      <point x="893" y="1500" type="line"/>
    </contour>
    <contour>
      <point x="347" y="1500" type="line"/>
      <point x="324" y="1367" type="line" smooth="yes"/>
      <point x="316" y="1319"/>
      <point x="302" y="1230"/>
      <point x="299" y="1168" type="curve"/>
      <point x="295" y="1013" type="line"/>
      <point x="475" y="1013" type="line"/>
      <point x="525" y="1168" type="line"/>
      <point x="544" y="1230"/>
      <point x="562" y="1319"/>
      <point x="570" y="1367" type="curve" smooth="yes"/>
      <point x="593" y="1500" type="line"/>
    </contour>
  </outline>
</glyph>
<glyph name="dollar" format="2">
  <advance width="1300"/>
  <unicode hex="0024"/>
  <outline>
    <contour>
      <point x="381" y="-190" type="line"/>
      <point x="671" y="-190" type="line"/>
      <point x="708" y="16" type="line"/>
      <point x="916" y="77"/>
      <point x="1099" y="221"/>
      <point x="1139" y="448" type="curve" smooth="yes"/>
      <point x="1144" y="473"/>
      <point x="1146" y="497"/>
      <point x="1146" y="519" type="curve" smooth="yes"/>
      <point x="1146" y="575"/>
      <point x="1130" y="644"/>
      <point x="1077" y="710" type="curve" smooth="yes"/>
      <point x="1024" y="776"/>
      <point x="947" y="825"/>
      <point x="867" y="866" type="curve"/>
      <point x="935" y="1252" type="line"/>
      <point x="970" y="1235"/>
      <point x="1012" y="1210"/>
      <point x="1062" y="1178" type="curve"/>
      <point x="1246" y="1369" type="line"/>
      <point x="1161" y="1434"/>
      <point x="1072" y="1477"/>
      <point x="979" y="1499" type="curve"/>
      <point x="1018" y="1719" type="line"/>
      <point x="711" y="1681" type="line"/>
      <point x="679" y="1500" type="line"/>
      <point x="469" y="1454"/>
      <point x="278" y="1315"/>
      <point x="238" y="1097" type="curve" smooth="yes"/>
      <point x="235" y="1078"/>
      <point x="233" y="1060"/>
      <point x="233" y="1043" type="curve" smooth="yes"/>
      <point x="233" y="986"/>
      <point x="253" y="922"/>
      <point x="313" y="862" type="curve" smooth="yes"/>
      <point x="372" y="802"/>
      <point x="456" y="756"/>
      <point x="540" y="712" type="curve"/>
      <point x="456" y="233" type="line"/>
      <point x="371" y="252"/>
      <point x="281" y="309"/>
      <point x="231" y="348" type="curve"/>
      <point x="53" y="121" type="line"/>
      <point x="164" y="42"/>
      <point x="273" y="-3"/>
      <point x="412" y="-14" type="curve"/>
    </contour>
    <contour>
      <point x="549" y="1125" type="curve"/>
      <point x="563" y="1207"/>
      <point x="628" y="1247"/>
      <point x="696" y="1268" type="curve"/>
      <point x="644" y="972" type="line"/>
      <point x="612" y="988"/>
      <point x="586" y="1007"/>
      <point x="568" y="1032" type="curve" smooth="yes"/>
      <point x="550" y="1056"/>
      <point x="547" y="1081"/>
      <point x="547" y="1098" type="curve" smooth="yes"/>
      <point x="547" y="1107"/>
      <point x="548" y="1116"/>
    </contour>
    <contour>
      <point x="850" y="430" type="curve"/>
      <point x="831" y="323"/>
      <point x="770" y="273"/>
      <point x="701" y="249" type="curve"/>
      <point x="762" y="596" type="line"/>
      <point x="822" y="553"/>
      <point x="852" y="506"/>
      <point x="852" y="457" type="curve" smooth="yes"/>
      <point x="852" y="448"/>
      <point x="851" y="439"/>
    </contour>
  </outline>
</glyph>
<glyph name="percent" format="2">
  <advance width="1300"/>
  <unicode hex="0025"/>
  <outline>
    <contour>
      <point x="1264" y="1473" type="line" name=".hr04"/>
      <point x="960" y="1473" type="line"/>
      <point x="697" y="1054" type="line"/>
      <point x="703" y="1075"/>
      <point x="708" y="1098"/>
      <point x="712" y="1121" type="curve" smooth="yes"/>
      <point x="719" y="1160"/>
      <point x="722" y="1196" name=".hr01"/>
      <point x="722" y="1231" type="curve" smooth="yes"/>
      <point x="722" y="1244"/>
      <point x="721" y="1264"/>
      <point x="719" y="1293" type="curve" smooth="yes"/>
      <point x="717" y="1321"/>
      <point x="706" y="1351"/>
      <point x="687" y="1384" type="curve"/>
      <point x="647" y="1449"/>
      <point x="575" y="1489"/>
      <point x="462" y="1489" type="curve" smooth="yes"/>
      <point x="226" y="1489"/>
      <point x="118" y="1332"/>
      <point x="81" y="1121" type="curve" smooth="yes"/>
      <point x="74" y="1082"/>
      <point x="71" y="1044"/>
      <point x="71" y="1009" type="curve" smooth="yes"/>
      <point x="71" y="996"/>
      <point x="72" y="976"/>
      <point x="74" y="947" type="curve" smooth="yes"/>
      <point x="76" y="918"/>
      <point x="87" y="886"/>
      <point x="106" y="853" type="curve" smooth="yes"/>
      <point x="145" y="786"/>
      <point x="216" y="746"/>
      <point x="331" y="746" type="curve" smooth="yes"/>
      <point x="390" y="746"/>
      <point x="441" y="756"/>
      <point x="485" y="775" type="curve" smooth="yes"/>
      <point x="506" y="784"/>
      <point x="525" y="794"/>
      <point x="542" y="806" type="curve"/>
      <point x="37" y="0" type="line" name=".hr02"/>
      <point x="341" y="0" type="line"/>
      <point x="603" y="418" type="line"/>
      <point x="598" y="399"/>
      <point x="593" y="379"/>
      <point x="590" y="359" type="curve"/>
      <point x="583" y="320"/>
      <point x="580" y="282" name=".hr03"/>
      <point x="580" y="247" type="curve" smooth="yes"/>
      <point x="580" y="234"/>
      <point x="581" y="214"/>
      <point x="583" y="185" type="curve" smooth="yes"/>
      <point x="585" y="156"/>
      <point x="596" y="124"/>
      <point x="615" y="91" type="curve" smooth="yes"/>
      <point x="654" y="24"/>
      <point x="725" y="-16"/>
      <point x="840" y="-16" type="curve" smooth="yes"/>
      <point x="1075" y="-16"/>
      <point x="1183" y="145"/>
      <point x="1221" y="359" type="curve" smooth="yes"/>
      <point x="1228" y="397"/>
      <point x="1231" y="433"/>
      <point x="1231" y="467" type="curve" smooth="yes"/>
      <point x="1231" y="480"/>
      <point x="1230" y="501"/>
      <point x="1228" y="530" type="curve"/>
      <point x="1225" y="559"/>
      <point x="1214" y="590"/>
      <point x="1195" y="623" type="curve" smooth="yes"/>
      <point x="1156" y="689"/>
      <point x="1084" y="727"/>
      <point x="971" y="727" type="curve" smooth="yes"/>
      <point x="912" y="727"/>
      <point x="860" y="718"/>
      <point x="817" y="700" type="curve" smooth="yes"/>
      <point x="796" y="691"/>
      <point x="778" y="681"/>
      <point x="761" y="670" type="curve"/>
    </contour>
    <contour>
      <point x="441" y="1068" type="line" smooth="yes"/>
      <point x="431" y="1008"/>
      <point x="417" y="956"/>
      <point x="373" y="956" type="curve" smooth="yes"/>
      <point x="332" y="956"/>
      <point x="331" y="994" name=".hr05"/>
      <point x="331" y="1013" type="curve" smooth="yes"/>
      <point x="331" y="1028"/>
      <point x="333" y="1049"/>
      <point x="340" y="1084" type="curve"/>
      <point x="356" y="1178" type="line" smooth="yes"/>
      <point x="367" y="1239"/>
      <point x="378" y="1291"/>
      <point x="424" y="1291" type="curve" smooth="yes"/>
      <point x="463" y="1291"/>
      <point x="467" y="1253"/>
      <point x="467" y="1235" type="curve" smooth="yes"/>
      <point x="467" y="1222"/>
      <point x="463" y="1198"/>
      <point x="458" y="1165" type="curve" smooth="yes"/>
    </contour>
    <contour>
      <point x="950" y="306" type="line" smooth="yes"/>
      <point x="940" y="246"/>
      <point x="926" y="194"/>
      <point x="884" y="194" type="curve" smooth="yes"/>
      <point x="843" y="194"/>
      <point x="840" y="232" name=".hr06"/>
      <point x="840" y="253" type="curve" smooth="yes"/>
      <point x="840" y="266"/>
      <point x="842" y="288"/>
      <point x="849" y="323" type="curve"/>
      <point x="865" y="417" type="line" smooth="yes"/>
      <point x="876" y="477"/>
      <point x="888" y="529"/>
      <point x="933" y="529" type="curve" smooth="yes"/>
      <point x="972" y="529"/>
      <point x="976" y="492"/>
      <point x="976" y="473" type="curve" smooth="yes"/>
      <point x="976" y="460"/>
      <point x="972" y="437"/>
      <point x="967" y="404" type="curve" smooth="yes"/>
    </contour>
  </outline>
</glyph>
<glyph name="asterisk" format="2">
  <advance width="1300"/>
  <unicode hex="002A"/>
  <outline>
    <contour>
      <point x="729" y="1037" type="line" name=".hr02"/>
      <point x="952" y="1037" type="line"/>
      <point x="1098" y="1083" type="line"/>
      <point x="1041" y="1294" type="line"/>
      <point x="889" y="1247" type="line"/>
      <point x="719" y="1117" type="line"/>
      <point x="830" y="1309" type="line"/>
      <point x="858" y="1470" type="line"/>
      <point x="625" y="1446" type="line"/>
      <point x="602" y="1315" type="line"/>
      <point x="635" y="1120" type="line" name=".hr01"/>
      <point x="500" y="1259" type="line"/>
      <point x="324" y="1309" type="line"/>
      <point x="241" y="1090" type="line"/>
      <point x="384" y="1041" type="line" name=".hr01"/>
      <point x="594" y="1041" type="line"/>
      <point x="417" y="950" type="line"/>
      <point x="265" y="781" type="line"/>
      <point x="442" y="656" type="line"/>
      <point x="568" y="800" type="line"/>
      <point x="652" y="990" type="line"/>
      <point x="673" y="800" type="line"/>
      <point x="760" y="654" type="line"/>
      <point x="954" y="805" type="line"/>
      <point x="884" y="926" type="line"/>
    </contour>
  </outline>
</glyph>
<glyph name="plus" format="2">
  <advance width="1300"/>
  <unicode hex="002B"/>
  <outline>
    <contour>
      <point x="169" y="500" type="line"/>
      <point x="529" y="500" type="line"/>
      <point x="459" y="100" type="line"/>
      <point x="679" y="100" type="line"/>
      <point x="749" y="500" type="line"/>
      <point x="1109" y="500" type="line"/>
      <point x="1145" y="700" type="line"/>
      <point x="785" y="700" type="line"/>
      <point x="858" y="1117" type="line"/>
      <point x="638" y="1117" type="line"/>
      <point x="565" y="700" type="line"/>
      <point x="205" y="700" type="line"/>
    </contour>
  </outline>
</glyph>
<glyph name="comma" format="2">
  <advance width="1300"/>
  <unicode hex="002C"/>
  <outline>
    <contour>
      <point x="152" y="156" type="curve" smooth="yes"/>
      <point x="150" y="143"/>
      <point x="149" y="130"/>
      <point x="149" y="118" type="curve" smooth="yes"/>
      <point x="149" y="93"/>
      <point x="154" y="57"/>
      <point x="179" y="29" type="curve" smooth="yes"/>
      <point x="204" y="1"/>
      <point x="242" y="-16"/>
      <point x="282" y="-17" type="curve"/>
      <point x="269" y="-88"/>
      <point x="232" y="-165"/>
      <point x="196" y="-228" type="curve" smooth="yes"/>
      <point x="175" y="-265"/>
      <point x="153" y="-302"/>
      <point x="128" y="-337" type="curve"/>
      <point x="185" y="-365" type="line"/>
      <point x="419" y="-180"/>
      <point x="473" y="-33"/>
      <point x="505" y="136" type="curve" smooth="yes"/>
      <point x="508" y="151"/>
      <point x="509" y="165"/>
      <point x="509" y="178" type="curve" smooth="yes"/>
      <point x="509" y="207"/>
      <point x="503" y="248"/>
      <point x="475" y="280" type="curve" smooth="yes"/>
      <point x="447" y="312"/>
      <point x="408" y="329"/>
      <point x="361" y="329" type="curve" smooth="yes"/>
      <point x="264" y="329"/>
      <point x="168" y="249"/>
    </contour>
  </outline>
</glyph>
<glyph name="period" format="2">
  <advance width="1300"/>
  <unicode hex="002E"/>
  <outline>
    <contour>
      <point x="103" y="183" type="curve"/>
      <point x="100" y="170"/>
      <point x="99" y="158"/>
      <point x="99" y="146" type="curve" smooth="yes"/>
      <point x="99" y="118"/>
      <point x="107" y="78"/>
      <point x="136" y="42" type="curve" smooth="yes"/>
      <point x="165" y="6"/>
      <point x="211" y="-17"/>
      <point x="266" y="-17" type="curve" smooth="yes"/>
      <point x="376" y="-17"/>
      <point x="477" y="74"/>
      <point x="498" y="183" type="curve" smooth="yes"/>
      <point x="500" y="195"/>
      <point x="501" y="207"/>
      <point x="501" y="218" type="curve" smooth="yes"/>
      <point x="501" y="247"/>
      <point x="495" y="287"/>
      <point x="465" y="323" type="curve" smooth="yes"/>
      <point x="435" y="359"/>
      <point x="390" y="381"/>
      <point x="335" y="381" type="curve" smooth="yes"/>
      <point x="227" y="381"/>
      <point x="122" y="292"/>
    </contour>
  </outline>
</glyph>
<glyph name="one" format="2">
  <advance width="1300"/>
  <unicode hex="0031"/>
  <outline>
    <contour>
      <point x="496" y="200" type="line"/>
      <point x="253" y="200" type="line"/>
      <point x="217" y="0" type="line"/>
      <point x="1034" y="0" type="line"/>
      <point x="1070" y="200" type="line"/>
      <point x="827" y="200" type="line"/>
      <point x="1056" y="1500" type="line"/>
      <point x="817" y="1520" type="line"/>
      <point x="259" y="1083" type="line"/>
      <point x="382" y="898" type="line"/>
      <point x="479" y="972" type="line"/>
      <point x="754" y="1243" type="line"/>
      <point x="616" y="880" type="line"/>
    </contour>
  </outline>
</glyph>
<glyph name="colon" format="2">
  <advance width="1300"/>
  <unicode hex="003A"/>
  <outline>
    <contour>
      <point x="228" y="700" type="curve" smooth="yes"/>
      <point x="226" y="688"/>
      <point x="225" y="676"/>
      <point x="225" y="665" type="curve" smooth="yes"/>
      <point x="225" y="636"/>
      <point x="232" y="595"/>
      <point x="262" y="559" type="curve" smooth="yes"/>
      <point x="292" y="523"/>
      <point x="337" y="500"/>
      <point x="392" y="500" type="curve" smooth="yes"/>
      <point x="501" y="500"/>
      <point x="604" y="590"/>
      <point x="623" y="700" type="curve" smooth="yes"/>
      <point x="625" y="712"/>
      <point x="626" y="724"/>
      <point x="626" y="735" type="curve" smooth="yes"/>
      <point x="626" y="764"/>
      <point x="619" y="804"/>
      <point x="590" y="840" type="curve" smooth="yes"/>
      <point x="561" y="876"/>
      <point x="515" y="898"/>
      <point x="460" y="898" type="curve" smooth="yes"/>
      <point x="353" y="898"/>
      <point x="247" y="809"/>
    </contour>
    <contour>
      <point x="137" y="183" type="curve" smooth="yes"/>
      <point x="135" y="171"/>
      <point x="134" y="159"/>
      <point x="134" y="148" type="curve" smooth="yes"/>
      <point x="134" y="119"/>
      <point x="141" y="78"/>
      <point x="170" y="42" type="curve" smooth="yes"/>
      <point x="199" y="6"/>
      <point x="246" y="-17"/>
      <point x="301" y="-17" type="curve" smooth="yes"/>
      <point x="408" y="-17"/>
      <point x="513" y="74"/>
      <point x="532" y="183" type="curve" smooth="yes"/>
      <point x="534" y="195"/>
      <point x="535" y="207"/>
      <point x="535" y="218" type="curve" smooth="yes"/>
      <point x="535" y="247"/>
      <point x="528" y="287"/>
      <point x="499" y="323" type="curve" smooth="yes"/>
      <point x="470" y="359"/>
      <point x="424" y="381"/>
      <point x="369" y="381" type="curve" smooth="yes"/>
      <point x="262" y="381"/>
      <point x="156" y="292"/>
    </contour>
  </outline>
</glyph>
<glyph name="semicolon" format="2">
  <advance width="1300"/>
  <unicode hex="003B"/>
  <outline>
    <contour>
      <point x="268" y="700" type="curve" smooth="yes"/>
      <point x="266" y="688"/>
      <point x="265" y="676"/>
      <point x="265" y="665" type="curve" smooth="yes"/>
      <point x="265" y="636"/>
      <point x="272" y="595"/>
      <point x="301" y="559" type="curve" smooth="yes"/>
      <point x="330" y="523"/>
      <point x="377" y="500"/>
      <point x="432" y="500" type="curve" smooth="yes"/>
      <point x="539" y="500"/>
      <point x="644" y="591"/>
      <point x="663" y="700" type="curve" smooth="yes"/>
      <point x="665" y="712"/>
      <point x="666" y="724"/>
      <point x="666" y="735" type="curve" smooth="yes"/>
      <point x="666" y="764"/>
      <point x="660" y="804"/>
      <point x="630" y="840" type="curve" smooth="yes"/>
      <point x="600" y="876"/>
      <point x="555" y="898"/>
      <point x="500" y="898" type="curve" smooth="yes"/>
      <point x="392" y="898"/>
      <point x="287" y="809"/>
    </contour>
    <contour>
      <point x="191" y="156" type="curve" smooth="yes"/>
      <point x="189" y="143"/>
      <point x="188" y="130"/>
      <point x="188" y="118" type="curve" smooth="yes"/>
      <point x="188" y="93"/>
      <point x="193" y="57"/>
      <point x="218" y="29" type="curve" smooth="yes"/>
      <point x="243" y="1"/>
      <point x="281" y="-16"/>
      <point x="321" y="-17" type="curve"/>
      <point x="308" y="-88"/>
      <point x="271" y="-165"/>
      <point x="235" y="-228" type="curve" smooth="yes"/>
      <point x="214" y="-265"/>
      <point x="191" y="-302"/>
      <point x="167" y="-337" type="curve"/>
      <point x="224" y="-365" type="line"/>
      <point x="457" y="-180"/>
      <point x="514" y="-32"/>
      <point x="543" y="136" type="curve" smooth="yes"/>
      <point x="546" y="152"/>
      <point x="548" y="167"/>
      <point x="548" y="181" type="curve" smooth="yes"/>
      <point x="548" y="208"/>
      <point x="542" y="248"/>
      <point x="514" y="280" type="curve" smooth="yes"/>
      <point x="486" y="312"/>
      <point x="447" y="329"/>
      <point x="400" y="329" type="curve" smooth="yes"/>
      <point x="302" y="329"/>
      <point x="207" y="249"/>
    </contour>
  </outline>
</glyph>
<glyph name="C" format="2">
  <advance width="1300"/>
  <unicode hex="0043"/>
  <outline>
    <contour>
      <point x="975" y="340" type="line"/>
      <point x="818" y="260"/>
      <point x="734" y="233"/>
      <point x="643" y="233" type="curve" smooth="yes"/>
      <point x="564" y="233"/>
      <point x="505" y="266"/>
      <point x="465" y="319" type="curve" smooth="yes"/>
      <point x="402" y="400"/>
      <point x="386" y="525"/>
      <point x="386" y="614" type="curve" smooth="yes"/>
      <point x="386" y="637"/>
      <point x="385" y="691"/>
      <point x="400" y="772" type="curve"/>
      <point x="448" y="1048"/>
      <point x="569" y="1270"/>
      <point x="822" y="1270" type="curve" smooth="yes"/>
      <point x="913" y="1270"/>
      <point x="1013" y="1219"/>
      <point x="1091" y="1160" type="curve"/>
      <point x="1271" y="1344" type="line"/>
      <point x="1176" y="1455"/>
      <point x="1021" y="1517"/>
      <point x="850" y="1517" type="curve" smooth="yes"/>
      <point x="300" y="1517"/>
      <point x="122" y="1172"/>
      <point x="50" y="769" type="curve" smooth="yes"/>
      <point x="39" y="708"/>
      <point x="34" y="648"/>
      <point x="34" y="589" type="curve" smooth="yes"/>
      <point x="34" y="580"/>
      <point x="35" y="556"/>
      <point x="36" y="518" type="curve" smooth="yes"/>
      <point x="37" y="480"/>
      <point x="45" y="432"/>
      <point x="61" y="374" type="curve" smooth="yes"/>
      <point x="76" y="316"/>
      <point x="99" y="263"/>
      <point x="129" y="215" type="curve" smooth="yes"/>
      <point x="218" y="72"/>
      <point x="369" y="-17"/>
      <point x="575" y="-17" type="curve" smooth="yes"/>
      <point x="748" y="-17"/>
      <point x="905" y="25"/>
      <point x="1058" y="133" type="curve"/>
    </contour>
  </outline>
</glyph>
<glyph name="L" format="2">
  <advance width="1300"/>
  <unicode hex="004C"/>
  <outline>
    <contour>
      <point x="538" y="360" type="line"/>
      <point x="743" y="1520" type="line"/>
      <point x="349" y="1500" type="line"/>
      <point x="349" y="1263" type="line"/>
      <point x="167" y="232" type="line"/>
      <point x="104" y="0" type="line"/>
      <point x="1129" y="0" type="line"/>
      <point x="1197" y="228" type="line"/>
      <point x="507" y="228" type="line"/>
    </contour>
  </outline>
</glyph>
<glyph name="M" format="2">
  <advance width="1300"/>
  <unicode hex="004D"/>
  <outline>
    <contour>
      <point x="1030" y="0" type="line"/>
      <point x="1299" y="1520" type="line"/>
      <point x="969" y="1500" type="line"/>
      <point x="725" y="1082" type="line"/>
      <point x="642" y="800" type="line"/>
      <point x="645" y="1079" type="line"/>
      <point x="552" y="1520" type="line"/>
      <point x="227" y="1500" type="line"/>
      <point x="227" y="1263" type="line"/>
      <point x="5" y="0" type="line"/>
      <point x="316" y="0" type="line"/>
      <point x="396" y="449" type="line"/>
      <point x="416" y="1200" type="line"/>
      <point x="426" y="1200" type="line"/>
      <point x="477" y="700" type="line"/>
      <point x="502" y="475" type="line"/>
      <point x="693" y="475" type="line"/>
      <point x="801" y="700" type="line"/>
      <point x="1026" y="1200" type="line"/>
      <point x="1036" y="1200" type="line"/>
      <point x="797" y="449" type="line"/>
      <point x="717" y="0" type="line"/>
    </contour>
  </outline>
</glyph>
<glyph name="U" format="2">
  <advance width="1300"/>
  <unicode hex="0055"/>
  <outline>
    <contour>
      <point x="929" y="1500" type="line"/>
      <point x="756" y="516" type="line" smooth="yes"/>
      <point x="721" y="319"/>
      <point x="637" y="221"/>
      <point x="516" y="221" type="curve" smooth="yes"/>
      <point x="395" y="221"/>
      <point x="373" y="301"/>
      <point x="373" y="382" type="curve" smooth="yes"/>
      <point x="373" y="406"/>
      <point x="375" y="456"/>
      <point x="394" y="564" type="curve" smooth="yes"/>
      <point x="563" y="1520" type="line"/>
      <point x="186" y="1500" type="line"/>
      <point x="186" y="1263" type="line"/>
      <point x="66" y="582" type="line"/>
      <point x="53" y="512"/>
      <point x="47" y="447"/>
      <point x="47" y="386" type="curve" smooth="yes"/>
      <point x="47" y="369"/>
      <point x="48" y="339"/>
      <point x="51" y="294" type="curve" smooth="yes"/>
      <point x="54" y="249"/>
      <point x="70" y="201"/>
      <point x="100" y="148" type="curve" smooth="yes"/>
      <point x="159" y="43"/>
      <point x="272" y="-17"/>
      <point x="453" y="-17" type="curve" smooth="yes"/>
      <point x="789" y="-17"/>
      <point x="1027" y="163"/>
      <point x="1091" y="534" type="curve"/>
      <point x="1261" y="1500" type="line"/>
    </contour>
  </outline>
</glyph>
<glyph name="V" format="2">
  <advance width="1300"/>
  <unicode hex="0056"/>
  <outline>
    <contour>
      <point x="963" y="1500" type="line"/>
      <point x="574" y="700" type="line"/>
      <point x="427" y="260" type="line"/>
      <point x="451" y="700" type="line"/>
      <point x="343" y="1520" type="line"/>
      <point x="17" y="1500" type="line"/>
      <point x="226" y="0" type="line"/>
      <point x="575" y="-17" type="line"/>
      <point x="641" y="200" type="line"/>
      <point x="1283" y="1500" type="line"/>
    </contour>
  </outline>
</glyph>
<glyph name="X" format="2">
  <advance width="1300"/>
  <unicode hex="0058"/>
  <outline>
    <contour>
      <point x="1196" y="0" type="line"/>
      <point x="879" y="855" type="line"/>
      <point x="1300" y="1500" type="line"/>
      <point x="1013" y="1500" type="line"/>
      <point x="848" y="1231" type="line"/>
      <point x="796" y="1050" type="line"/>
      <point x="615" y="1520" type="line"/>
      <point x="283" y="1500" type="line"/>
      <point x="552" y="824" type="line"/>
      <point x="30" y="0" type="line"/>
      <point x="352" y="0" type="line"/>
      <point x="602" y="427" type="line"/>
      <point x="642" y="613" type="line"/>
      <point x="856" y="0" type="line"/>
    </contour>
  </outline>
</glyph>
<glyph name="bracketleft" format="2">
  <advance width="1300"/>
  <unicode hex="005B"/>
  <outline>
    <contour>
      <point x="202" y="-166" type="line"/>
      <point x="135" y="-398" type="line"/>
      <point x="835" y="-398" type="line"/>
      <point x="874" y="-179" type="line"/>
      <point x="524" y="-179" type="line"/>
      <point x="565" y="-31" type="line"/>
      <point x="774" y="1154" type="line"/>
      <point x="785" y="1302" type="line"/>
      <point x="1135" y="1302" type="line"/>
      <point x="1174" y="1520" type="line"/>
      <point x="474" y="1520" type="line"/>
      <point x="459" y="1288" type="line"/>
    </contour>
  </outline>
</glyph>
<glyph name="grave" format="2">
  <advance width="1300"/>
  <unicode hex="0060"/>
  <outline>
    <contour>
      <point x="991" y="1500" type="line"/>
      <point x="658" y="1520" type="line"/>
      <point x="886" y="1200" type="line"/>
      <point x="1101" y="1200" type="line"/>
    </contour>
  </outline>
</glyph>
<glyph name="a" format="2">
  <advance width="1300"/>
  <unicode hex="0061"/>
  <outline>
    <contour>
      <point x="484" y="-16" type="curve"/>
      <point x="504" y="-16" type="line" smooth="yes"/>
      <point x="533" y="-16"/>
      <point x="553" y="-13"/>
      <point x="568" y="-10" type="curve"/>
      <point x="723" y="162" type="line"/>
      <point x="695" y="0" type="line"/>
      <point x="1017" y="0" type="line"/>
      <point x="1031" y="209" type="line"/>
      <point x="1174" y="1043" type="line"/>
      <point x="1097" y="1080"/>
      <point x="1008" y="1099"/>
      <point x="936" y="1108" type="curve" smooth="yes"/>
      <point x="895" y="1113"/>
      <point x="854" y="1116"/>
      <point x="813" y="1117" type="curve"/>
      <point x="397" y="1117"/>
      <point x="184" y="832"/>
      <point x="148" y="542" type="curve"/>
      <point x="142" y="500"/>
      <point x="139" y="458"/>
      <point x="139" y="416" type="curve" smooth="yes"/>
      <point x="139" y="414"/>
      <point x="139" y="401"/>
      <point x="140" y="378" type="curve"/>
      <point x="140" y="354"/>
      <point x="144" y="322"/>
      <point x="152" y="281" type="curve" smooth="yes"/>
      <point x="159" y="240"/>
      <point x="171" y="201"/>
      <point x="188" y="166" type="curve"/>
      <point x="236" y="60"/>
      <point x="332" y="-14"/>
    </contour>
    <contour>
      <point x="745" y="329" type="line"/>
      <point x="705" y="279"/>
      <point x="632" y="209"/>
      <point x="541" y="209" type="curve" smooth="yes"/>
      <point x="502" y="209"/>
      <point x="475" y="243"/>
      <point x="460" y="299" type="curve" smooth="yes"/>
      <point x="445" y="354"/>
      <point x="446" y="406"/>
      <point x="446" y="427" type="curve" smooth="yes"/>
      <point x="446" y="454"/>
      <point x="447" y="481"/>
      <point x="450" y="510" type="curve" smooth="yes"/>
      <point x="471" y="717"/>
      <point x="580" y="893"/>
      <point x="779" y="893" type="curve"/>
      <point x="788" y="892"/>
      <point x="813" y="889"/>
      <point x="840" y="885" type="curve"/>
    </contour>
  </outline>
</glyph>
<glyph name="b" format="2">
  <advance width="1300"/>
  <unicode hex="0062"/>
  <outline>
    <contour>
      <point x="100" y="54" type="line"/>
      <point x="176" y="21"/>
      <point x="359" y="-17"/>
      <point x="530" y="-17" type="curve" smooth="yes"/>
      <point x="845" y="-17"/>
      <point x="1120" y="228"/>
      <point x="1184" y="593" type="curve" smooth="yes"/>
      <point x="1192" y="640"/>
      <point x="1196" y="684"/>
      <point x="1196" y="725" type="curve" smooth="yes"/>
      <point x="1196" y="758"/>
      <point x="1192" y="798"/>
      <point x="1184" y="845" type="curve" smooth="yes"/>
      <point x="1175" y="892"/>
      <point x="1155" y="937"/>
      <point x="1123" y="982" type="curve" smooth="yes"/>
      <point x="1058" y="1070"/>
      <point x="956" y="1117"/>
      <point x="833" y="1117" type="curve" smooth="yes"/>
      <point x="796" y="1117"/>
      <point x="748" y="1107"/>
      <point x="707" y="1096" type="curve"/>
      <point x="589" y="974" type="line"/>
      <point x="705" y="1632" type="line"/>
      <point x="337" y="1601" type="line"/>
      <point x="337" y="1398" type="line"/>
    </contour>
    <contour>
      <point x="563" y="826" type="line"/>
      <point x="622" y="869"/>
      <point x="686" y="900"/>
      <point x="767" y="900" type="curve" smooth="yes"/>
      <point x="804" y="900"/>
      <point x="838" y="879"/>
      <point x="856" y="831" type="curve" smooth="yes"/>
      <point x="874" y="783"/>
      <point x="871" y="734"/>
      <point x="871" y="727" type="curve" smooth="yes"/>
      <point x="871" y="691"/>
      <point x="866" y="648"/>
      <point x="857" y="598" type="curve" smooth="yes"/>
      <point x="828" y="424"/>
      <point x="743" y="200"/>
      <point x="577" y="200" type="curve" smooth="yes"/>
      <point x="537" y="200"/>
      <point x="493" y="205"/>
      <point x="454" y="212" type="curve"/>
    </contour>
  </outline>
</glyph>
<glyph name="c" format="2">
  <advance width="1300"/>
  <unicode hex="0063"/>
  <outline>
    <contour>
      <point x="1201" y="957" type="line"/>
      <point x="1117" y="1070"/>
      <point x="976" y="1117"/>
      <point x="797" y="1117" type="curve" smooth="yes"/>
      <point x="344" y="1117"/>
      <point x="154" y="833"/>
      <point x="106" y="555" type="curve" smooth="yes"/>
      <point x="100" y="520"/>
      <point x="97" y="485"/>
      <point x="97" y="452" type="curve" smooth="yes"/>
      <point x="97" y="412"/>
      <point x="103" y="365"/>
      <point x="115" y="312" type="curve" smooth="yes"/>
      <point x="127" y="259"/>
      <point x="154" y="206"/>
      <point x="197" y="154" type="curve"/>
      <point x="281" y="49"/>
      <point x="417" y="-17"/>
      <point x="594" y="-17" type="curve" smooth="yes"/>
      <point x="837" y="-17"/>
      <point x="995" y="94"/>
      <point x="1051" y="137" type="curve"/>
      <point x="965" y="353" type="line"/>
      <point x="907" y="292"/>
      <point x="809" y="236"/>
      <point x="671" y="236" type="curve" smooth="yes"/>
      <point x="594" y="236"/>
      <point x="522" y="269"/>
      <point x="474" y="325" type="curve" smooth="yes"/>
      <point x="425" y="381"/>
      <point x="411" y="446"/>
      <point x="411" y="497" type="curve" smooth="yes"/>
      <point x="411" y="515"/>
      <point x="413" y="534"/>
      <point x="416" y="553" type="curve" smooth="yes"/>
      <point x="451" y="756"/>
      <point x="622" y="885"/>
      <point x="785" y="885" type="curve" smooth="yes"/>
      <point x="888" y="885"/>
      <point x="958" y="853"/>
      <point x="1007" y="772" type="curve"/>
    </contour>
  </outline>
</glyph>
<glyph name="d" format="2">
  <advance width="1300"/>
  <unicode hex="0064"/>
  <outline>
    <contour>
      <point x="985" y="0" type="line"/>
      <point x="1000" y="209" type="line"/>
      <point x="1245" y="1600" type="line"/>
      <point x="925" y="1632" type="line"/>
      <point x="831" y="1100" type="line"/>
      <point x="761" y="1100" type="line" smooth="yes"/>
      <point x="406" y="1100"/>
      <point x="134" y="846"/>
      <point x="78" y="528" type="curve" smooth="yes"/>
      <point x="70" y="483"/>
      <point x="66" y="441"/>
      <point x="66" y="401" type="curve" smooth="yes"/>
      <point x="66" y="369"/>
      <point x="70" y="329"/>
      <point x="78" y="282" type="curve" smooth="yes"/>
      <point x="86" y="234"/>
      <point x="106" y="186"/>
      <point x="137" y="137" type="curve" smooth="yes"/>
      <point x="199" y="40"/>
      <point x="297" y="-17"/>
      <point x="420" y="-17" type="curve" smooth="yes"/>
      <point x="475" y="-17"/>
      <point x="490" y="-15"/>
      <point x="510" y="-10" type="curve"/>
      <point x="666" y="162" type="line"/>
      <point x="637" y="0" type="line"/>
    </contour>
    <contour>
      <point x="693" y="316" type="line"/>
      <point x="658" y="262"/>
      <point x="601" y="200"/>
      <point x="505" y="200" type="curve" smooth="yes"/>
      <point x="458" y="200"/>
      <point x="424" y="229"/>
      <point x="405" y="284" type="curve" smooth="yes"/>
      <point x="386" y="339"/>
      <point x="389" y="387"/>
      <point x="389" y="395" type="curve" smooth="yes"/>
      <point x="389" y="431"/>
      <point x="393" y="471"/>
      <point x="401" y="515" type="curve" smooth="yes"/>
      <point x="436" y="721"/>
      <point x="551" y="900"/>
      <point x="727" y="900" type="curve" smooth="yes"/>
      <point x="796" y="900" type="line"/>
    </contour>
  </outline>
</glyph>
<glyph name="p" format="2">
  <advance width="1300"/>
  <unicode hex="0070"/>
  <outline>
    <contour>
      <point x="363" y="-500" type="line"/>
      <point x="451" y="0" type="line"/>
      <point x="512" y="0" type="line" smooth="yes"/>
      <point x="877" y="0"/>
      <point x="1196" y="236"/>
      <point x="1252" y="564" type="curve" smooth="yes"/>
      <point x="1259" y="605"/>
      <point x="1263" y="644"/>
      <point x="1263" y="681" type="curve" smooth="yes"/>
      <point x="1263" y="720"/>
      <point x="1257" y="766"/>
      <point x="1246" y="817" type="curve" smooth="yes"/>
      <point x="1234" y="868"/>
      <point x="1210" y="918"/>
      <point x="1173" y="967" type="curve" smooth="yes"/>
      <point x="1099" y="1063"/>
      <point x="986" y="1117"/>
      <point x="862" y="1117" type="curve" smooth="yes"/>
      <point x="830" y="1117"/>
      <point x="799" y="1114"/>
      <point x="771" y="1110" type="curve"/>
      <point x="617" y="944" type="line"/>
      <point x="648" y="1120" type="line"/>
      <point x="319" y="1100" type="line"/>
      <point x="37" y="-500" type="line"/>
    </contour>
    <contour>
      <point x="594" y="811" type="line"/>
      <point x="645" y="854"/>
      <point x="725" y="900"/>
      <point x="797" y="900" type="curve" smooth="yes"/>
      <point x="857" y="900"/>
      <point x="907" y="874"/>
      <point x="937" y="820" type="curve" smooth="yes"/>
      <point x="967" y="766"/>
      <point x="967" y="707"/>
      <point x="967" y="682" type="curve" smooth="yes"/>
      <point x="967" y="650"/>
      <point x="963" y="615"/>
      <point x="956" y="576" type="curve" smooth="yes"/>
      <point x="919" y="368"/>
      <point x="744" y="200"/>
      <point x="564" y="200" type="curve" smooth="yes"/>
      <point x="486" y="200" type="line"/>
    </contour>
  </outline>
</glyph>
<glyph name="q" format="2">
  <advance width="1300"/>
  <unicode hex="0071"/>
  <outline>
    <contour>
      <point x="616" y="-500" type="line"/>
      <point x="942" y="-500" type="line"/>
      <point x="1213" y="1038" type="line"/>
      <point x="1148" y="1062"/>
      <point x="950" y="1117"/>
      <point x="780" y="1117" type="curve" smooth="yes"/>
      <point x="463" y="1117"/>
      <point x="159" y="891"/>
      <point x="95" y="526" type="curve" smooth="yes"/>
      <point x="88" y="486"/>
      <point x="84" y="448"/>
      <point x="84" y="411" type="curve" smooth="yes"/>
      <point x="84" y="372"/>
      <point x="90" y="326"/>
      <point x="103" y="275" type="curve" smooth="yes"/>
      <point x="116" y="224"/>
      <point x="141" y="175"/>
      <point x="179" y="128" type="curve" smooth="yes"/>
      <point x="255" y="35"/>
      <point x="369" y="-17"/>
      <point x="492" y="-17" type="curve" smooth="yes"/>
      <point x="521" y="-17"/>
      <point x="553" y="-14"/>
      <point x="586" y="-8" type="curve"/>
      <point x="728" y="136" type="line"/>
    </contour>
    <contour>
      <point x="753" y="278" type="line"/>
      <point x="706" y="231"/>
      <point x="664" y="200"/>
      <point x="568" y="200" type="curve" smooth="yes"/>
      <point x="516" y="200"/>
      <point x="467" y="226"/>
      <point x="438" y="280" type="curve" smooth="yes"/>
      <point x="409" y="334"/>
      <point x="406" y="393"/>
      <point x="406" y="424" type="curve" smooth="yes"/>
      <point x="406" y="455"/>
      <point x="409" y="489"/>
      <point x="416" y="526" type="curve" smooth="yes"/>
      <point x="448" y="698"/>
      <point x="570" y="900"/>
      <point x="738" y="900" type="curve" smooth="yes"/>
      <point x="789" y="900"/>
      <point x="822" y="896"/>
      <point x="861" y="891" type="curve"/>
    </contour>
  </outline>
</glyph>
<glyph name="w" format="2">
  <advance width="1300"/>
  <unicode hex="0077"/>
  <outline>
    <contour>
      <point x="752" y="900" type="line"/>
      <point x="517" y="900" type="line"/>
      <point x="400" y="600" type="line"/>
      <point x="295" y="300" type="line"/>
      <point x="285" y="300" type="line"/>
      <point x="368" y="700" type="line"/>
      <point x="370" y="1120" type="line"/>
      <point x="79" y="1100" type="line"/>
      <point x="79" y="0" type="line"/>
      <point x="364" y="0" type="line"/>
      <point x="530" y="400" type="line"/>
      <point x="582" y="600" type="line"/>
      <point x="562" y="400" type="line"/>
      <point x="591" y="0" type="line"/>
      <point x="857" y="0" type="line"/>
      <point x="1273" y="1120" type="line"/>
      <point x="977" y="1100" type="line"/>
      <point x="833" y="700" type="line"/>
      <point x="776" y="300" type="line"/>
      <point x="766" y="300" type="line"/>
      <point x="766" y="600" type="line"/>
    </contour>
  </outline>
</glyph>
<glyph name="braceleft" format="2">
  <advance width="1300"/>
  <unicode hex="007B"/>
  <outline>
    <contour>
      <point x="1207" y="1445" type="line"/>
      <point x="1127" y="1487"/>
      <point x="1064" y="1517"/>
      <point x="925" y="1517" type="curve" smooth="yes"/>
      <point x="623" y="1517"/>
      <point x="505" y="1336"/>
      <point x="462" y="1099" type="curve" smooth="yes"/>
      <point x="420" y="864" type="line"/>
      <point x="400" y="747"/>
      <point x="371" y="675"/>
      <point x="307" y="660" type="curve"/>
      <point x="166" y="640" type="line"/>
      <point x="134" y="462" type="line"/>
      <point x="269" y="442" type="line"/>
      <point x="298" y="435"/>
      <point x="314" y="421"/>
      <point x="317" y="398" type="curve" smooth="yes"/>
      <point x="320" y="375"/>
      <point x="321" y="358"/>
      <point x="321" y="346" type="curve" smooth="yes"/>
      <point x="321" y="316"/>
      <point x="317" y="280"/>
      <point x="310" y="238" type="curve" smooth="yes"/>
      <point x="267" y="-2" type="line"/>
      <point x="260" y="-47"/>
      <point x="256" y="-89"/>
      <point x="256" y="-128" type="curve" smooth="yes"/>
      <point x="256" y="-141"/>
      <point x="257" y="-164"/>
      <point x="259" y="-196" type="curve" smooth="yes"/>
      <point x="261" y="-228"/>
      <point x="274" y="-263"/>
      <point x="297" y="-300" type="curve" smooth="yes"/>
      <point x="343" y="-375"/>
      <point x="432" y="-420"/>
      <point x="583" y="-420" type="curve" smooth="yes"/>
      <point x="723" y="-420"/>
      <point x="796" y="-388"/>
      <point x="890" y="-348" type="curve"/>
      <point x="827" y="-163" type="line"/>
      <point x="776" y="-190"/>
      <point x="710" y="-208"/>
      <point x="663" y="-208" type="curve" smooth="yes"/>
      <point x="600" y="-208"/>
      <point x="595" y="-157"/>
      <point x="595" y="-121" type="curve" smooth="yes"/>
      <point x="595" y="-101"/>
      <point x="598" y="-66"/>
      <point x="609" y="-2" type="curve" smooth="yes"/>
      <point x="652" y="238" type="line" smooth="yes"/>
      <point x="656" y="259"/>
      <point x="658" y="280"/>
      <point x="658" y="300" type="curve" smooth="yes"/>
      <point x="658" y="329"/>
      <point x="654" y="377"/>
      <point x="631" y="430" type="curve" smooth="yes"/>
      <point x="608" y="483"/>
      <point x="575" y="523"/>
      <point x="543" y="550" type="curve"/>
      <point x="624" y="604"/>
      <point x="735" y="713"/>
      <point x="762" y="864" type="curve" smooth="yes"/>
      <point x="804" y="1099" type="line"/>
      <point x="825" y="1227"/>
      <point x="850" y="1300"/>
      <point x="930" y="1305" type="curve"/>
      <point x="977" y="1305"/>
      <point x="1038" y="1287"/>
      <point x="1078" y="1260" type="curve"/>
    </contour>
  </outline>
</glyph>
<glyph name="braceright" format="2">
  <advance width="1300"/>
  <unicode hex="007D"/>
  <outline>
    <contour>
      <point x="472" y="1260" type="line"/>
      <point x="523" y="1287"/>
      <point x="589" y="1305"/>
      <point x="636" y="1305" type="curve"/>
      <point x="697" y="1301"/>
      <point x="704" y="1252"/>
      <point x="704" y="1216" type="curve" smooth="yes"/>
      <point x="704" y="1196"/>
      <point x="701" y="1163"/>
      <point x="690" y="1099" type="curve" smooth="yes"/>
      <point x="648" y="864" type="line" smooth="yes"/>
      <point x="644" y="842"/>
      <point x="642" y="821"/>
      <point x="642" y="801" type="curve" smooth="yes"/>
      <point x="642" y="772"/>
      <point x="646" y="723"/>
      <point x="670" y="671" type="curve" smooth="yes"/>
      <point x="693" y="618"/>
      <point x="726" y="577"/>
      <point x="757" y="550" type="curve"/>
      <point x="674" y="497"/>
      <point x="565" y="386"/>
      <point x="538" y="238" type="curve" smooth="yes"/>
      <point x="495" y="-2" type="line"/>
      <point x="474" y="-130"/>
      <point x="449" y="-208"/>
      <point x="369" y="-208" type="curve" smooth="yes"/>
      <point x="322" y="-208"/>
      <point x="261" y="-190"/>
      <point x="221" y="-163" type="curve"/>
      <point x="92" y="-348" type="line"/>
      <point x="173" y="-388"/>
      <point x="236" y="-420"/>
      <point x="375" y="-420" type="curve" smooth="yes"/>
      <point x="675" y="-420"/>
      <point x="797" y="-239"/>
      <point x="837" y="-2" type="curve"/>
      <point x="880" y="238" type="line" smooth="yes"/>
      <point x="901" y="357"/>
      <point x="929" y="429"/>
      <point x="993" y="442" type="curve"/>
      <point x="1134" y="462" type="line"/>
      <point x="1166" y="640" type="line"/>
      <point x="1031" y="660" type="line"/>
      <point x="1002" y="667"/>
      <point x="986" y="682"/>
      <point x="983" y="705" type="curve" smooth="yes"/>
      <point x="980" y="728"/>
      <point x="979" y="745"/>
      <point x="979" y="756" type="curve" smooth="yes"/>
      <point x="979" y="786"/>
      <point x="983" y="822"/>
      <point x="990" y="864" type="curve" smooth="yes"/>
      <point x="1032" y="1099" type="line" smooth="yes"/>
      <point x="1040" y="1144"/>
      <point x="1044" y="1187"/>
      <point x="1044" y="1227" type="curve" smooth="yes"/>
      <point x="1044" y="1240"/>
      <point x="1043" y="1262"/>
      <point x="1041" y="1294" type="curve" smooth="yes"/>
      <point x="1039" y="1325"/>
      <point x="1026" y="1360"/>
      <point x="1003" y="1397" type="curve" smooth="yes"/>
      <point x="956" y="1472"/>
      <point x="867" y="1517"/>
      <point x="716" y="1517" type="curve" smooth="yes"/>
      <point x="577" y="1517"/>
      <point x="502" y="1488"/>
      <point x="409" y="1445" type="curve"/>
    </contour>
  </outline>
</glyph>
<glyph name="cent" format="2">
  <advance width="1300"/>
  <unicode hex="00A2"/>
  <outline>
    <contour>
      <point x="1158" y="961" type="line"/>
      <point x="1098" y="1041"/>
      <point x="1029" y="1085"/>
      <point x="944" y="1105" type="curve"/>
      <point x="985" y="1340" type="line"/>
      <point x="689" y="1302" type="line"/>
      <point x="652" y="1095" type="line"/>
      <point x="385" y="1026"/>
      <point x="227" y="808"/>
      <point x="187" y="575" type="curve" smooth="yes"/>
      <point x="179" y="530"/>
      <point x="175" y="487"/>
      <point x="175" y="444" type="curve" smooth="yes"/>
      <point x="175" y="407"/>
      <point x="174" y="323"/>
      <point x="219" y="223" type="curve" smooth="yes"/>
      <point x="263" y="122"/>
      <point x="343" y="43"/>
      <point x="460" y="6" type="curve"/>
      <point x="426" y="-190" type="line"/>
      <point x="716" y="-190" type="line"/>
      <point x="748" y="-5" type="line"/>
      <point x="840" y="11"/>
      <point x="923" y="46"/>
      <point x="1000" y="93" type="curve"/>
      <point x="922" y="288" type="line"/>
      <point x="881" y="263"/>
      <point x="835" y="240"/>
      <point x="788" y="223" type="curve"/>
      <point x="904" y="877" type="line"/>
      <point x="928" y="864"/>
      <point x="954" y="845"/>
      <point x="981" y="814" type="curve"/>
    </contour>
    <contour>
      <point x="468" y="563" type="curve"/>
      <point x="499" y="732"/>
      <point x="566" y="829"/>
      <point x="661" y="873" type="curve"/>
      <point x="548" y="232" type="line"/>
      <point x="508" y="258"/>
      <point x="483" y="292"/>
      <point x="473" y="333" type="curve" smooth="yes"/>
      <point x="462" y="374"/>
      <point x="457" y="411"/>
      <point x="457" y="445" type="curve" smooth="yes"/>
      <point x="457" y="480"/>
      <point x="461" y="520"/>
    </contour>
  </outline>
</glyph>
<glyph name="currency" format="2">
  <advance width="1300"/>
  <unicode hex="00A4"/>
  <outline>
    <contour>
      <point x="982" y="383" type="line"/>
      <point x="1030" y="446"/>
      <point x="1060" y="512"/>
      <point x="1071" y="573" type="curve" smooth="yes"/>
      <point x="1074" y="591"/>
      <point x="1076" y="609"/>
      <point x="1076" y="627" type="curve" smooth="yes"/>
      <point x="1076" y="652"/>
      <point x="1074" y="698"/>
      <point x="1049" y="762" type="curve"/>
      <point x="1226" y="913" type="line" name=".hr01"/>
      <point x="1083" y="1092" type="line"/>
      <point x="886" y="925" type="line"/>
      <point x="837" y="948"/>
      <point x="780" y="957" name=".hr02"/>
      <point x="717" y="957" type="curve" smooth="yes"/>
      <point x="653" y="957"/>
      <point x="592" y="948"/>
      <point x="535" y="925" type="curve"/>
      <point x="399" y="1092" type="line" name=".hr03"/>
      <point x="191" y="913" type="line"/>
      <point x="317" y="762" type="line"/>
      <point x="266" y="698"/>
      <point x="237" y="633"/>
      <point x="226" y="573" type="curve" smooth="yes"/>
      <point x="223" y="556"/>
      <point x="221" y="538"/>
      <point x="221" y="520" type="curve" smooth="yes"/>
      <point x="221" y="493"/>
      <point x="223" y="447"/>
      <point x="250" y="383" type="curve"/>
      <point x="71" y="232" type="line" name=".hr04"/>
      <point x="217" y="55" type="line"/>
      <point x="411" y="221" type="line"/>
      <point x="459" y="198"/>
      <point x="518" y="188" name=".hr05"/>
      <point x="582" y="188" type="curve" smooth="yes"/>
      <point x="645" y="188"/>
      <point x="705" y="199"/>
      <point x="762" y="221" type="curve"/>
      <point x="899" y="55" type="line" name=".hr06"/>
      <point x="1106" y="232" type="line"/>
    </contour>
    <contour>
      <point x="484" y="573" type="curve" smooth="yes"/>
      <point x="508" y="702"/>
      <point x="606" y="744" name=".hr07"/>
      <point x="680" y="744" type="curve" smooth="yes"/>
      <point x="716" y="744"/>
      <point x="755" y="734"/>
      <point x="783" y="707" type="curve" smooth="yes"/>
      <point x="810" y="680"/>
      <point x="817" y="644"/>
      <point x="817" y="616" type="curve" smooth="yes"/>
      <point x="817" y="603"/>
      <point x="816" y="588"/>
      <point x="813" y="573" type="curve"/>
      <point x="791" y="444"/>
      <point x="692" y="400"/>
      <point x="619" y="400" type="curve" smooth="yes"/>
      <point x="583" y="400"/>
      <point x="543" y="411"/>
      <point x="516" y="438" type="curve" smooth="yes"/>
      <point x="488" y="465"/>
      <point x="480" y="503"/>
      <point x="480" y="532" type="curve" smooth="yes"/>
      <point x="480" y="545"/>
      <point x="481" y="558"/>
    </contour>
  </outline>
</glyph>
<glyph name="registered" format="2">
  <advance width="1300"/>
  <unicode hex="00AE"/>
  <outline>
    <contour>
      <point x="732" y="1517" type="curve" smooth="yes"/>
      <point x="473" y="1517"/>
      <point x="225" y="1306"/>
      <point x="180" y="1047" type="curve" smooth="yes"/>
      <point x="134" y="787"/>
      <point x="308" y="577"/>
      <point x="567" y="577" type="curve" smooth="yes"/>
      <point x="826" y="577"/>
      <point x="1074" y="787"/>
      <point x="1120" y="1047" type="curve" smooth="yes"/>
      <point x="1165" y="1306"/>
      <point x="991" y="1517"/>
    </contour>
    <contour>
      <point x="588" y="701" type="curve" smooth="yes"/>
      <point x="398" y="701"/>
      <point x="271" y="861"/>
      <point x="304" y="1047" type="curve" smooth="yes"/>
      <point x="337" y="1238"/>
      <point x="520" y="1393"/>
      <point x="711" y="1393" type="curve" smooth="yes"/>
      <point x="902" y="1393"/>
      <point x="1029" y="1238"/>
      <point x="996" y="1047" type="curve" smooth="yes"/>
      <point x="962" y="857"/>
      <point x="774" y="701"/>
    </contour>
    <contour>
      <point x="611" y="987" type="curve"/>
      <point x="708" y="800" type="line"/>
      <point x="825" y="800" type="line"/>
      <point x="720" y="993" type="line"/>
      <point x="677" y="1004" type="line"/>
      <point x="750" y="1024"/>
      <point x="819" y="1063"/>
      <point x="836" y="1158" type="curve" smooth="yes"/>
      <point x="852" y="1251"/>
      <point x="782" y="1300"/>
      <point x="665" y="1300" type="curve" smooth="yes"/>
      <point x="628" y="1300"/>
      <point x="563" y="1295"/>
      <point x="525" y="1291" type="curve"/>
      <point x="524" y="1218" type="line"/>
      <point x="450" y="800" type="line"/>
      <point x="563" y="800" type="line"/>
      <point x="597" y="993" type="line"/>
      <point x="600" y="993"/>
      <point x="607" y="992"/>
    </contour>
    <contour>
      <point x="629" y="1174" type="line"/>
      <point x="633" y="1231" type="line"/>
      <point x="641" y="1232"/>
      <point x="644" y="1232"/>
      <point x="660" y="1232" type="curve" smooth="yes"/>
      <point x="699" y="1232"/>
      <point x="740" y="1215"/>
      <point x="729" y="1153" type="curve" smooth="yes"/>
      <point x="721" y="1106"/>
      <point x="687" y="1065"/>
      <point x="630" y="1065" type="curve" smooth="yes"/>
      <point x="610" y="1065" type="line"/>
    </contour>
  </outline>
</glyph>
<glyph name="macron" format="2">
  <advance width="1300"/>
  <unicode hex="00AF"/>
  <outline>
    <contour>
      <point x="280" y="1282" type="line"/>
      <point x="980" y="1282" type="line"/>
      <point x="1019" y="1500" type="line"/>
      <point x="319" y="1500" type="line"/>
    </contour>
  </outline>
</glyph>
<glyph name="acute" format="2">
  <advance width="1300"/>
  <unicode hex="00B4"/>
  <outline>
    <contour>
      <point x="376" y="1200" type="line"/>
      <point x="591" y="1200" type="line"/>
      <point x="933" y="1520" type="line"/>
      <point x="592" y="1500" type="line"/>
    </contour>
  </outline>
</glyph>
<glyph name="uni00B5" format="2">
  <advance width="1300"/>
  <unicode hex="00B5"/>
  <outline>
    <contour>
      <point x="1214" y="223" type="line"/>
      <point x="1178" y="206"/>
      <point x="1159" y="199"/>
      <point x="1123" y="199" type="curve" smooth="yes"/>
      <point x="1100" y="199"/>
      <point x="1085" y="208"/>
      <point x="1079" y="226" type="curve" smooth="yes"/>
      <point x="1073" y="243"/>
      <point x="1070" y="260"/>
      <point x="1070" y="277" type="curve" smooth="yes"/>
      <point x="1070" y="300"/>
      <point x="1073" y="330"/>
      <point x="1080" y="365" type="curve"/>
      <point x="1213" y="1120" type="line"/>
      <point x="899" y="1100" type="line"/>
      <point x="752" y="268" type="line"/>
      <point x="705" y="231"/>
      <point x="651" y="199"/>
      <point x="594" y="199" type="curve" smooth="yes"/>
      <point x="558" y="199"/>
      <point x="526" y="214"/>
      <point x="504" y="242" type="curve" smooth="yes"/>
      <point x="482" y="270"/>
      <point x="476" y="303"/>
      <point x="476" y="327" type="curve" smooth="yes"/>
      <point x="476" y="338"/>
      <point x="477" y="350"/>
      <point x="479" y="362" type="curve" smooth="yes"/>
      <point x="613" y="1120" type="line"/>
      <point x="299" y="1100" type="line"/>
      <point x="17" y="-500" type="line"/>
      <point x="327" y="-500" type="line"/>
      <point x="386" y="-166" type="line"/>
      <point x="357" y="40" type="line"/>
      <point x="384" y="13"/>
      <point x="494" y="-17"/>
      <point x="546" y="-17" type="curve" smooth="yes"/>
      <point x="660" y="-17"/>
      <point x="749" y="29"/>
      <point x="802" y="72" type="curve"/>
      <point x="870" y="190" type="line"/>
      <point x="886" y="44"/>
      <point x="966" y="-17"/>
      <point x="1056" y="-17" type="curve" smooth="yes"/>
      <point x="1182" y="-17"/>
      <point x="1238" y="14"/>
      <point x="1282" y="51" type="curve"/>
    </contour>
  </outline>
</glyph>
<glyph name="paragraph" format="2">
  <advance width="1300"/>
  <unicode hex="00B6"/>
  <outline>
    <contour>
      <point x="635" y="-400" type="line"/>
      <point x="902" y="-400" type="line"/>
      <point x="1237" y="1500" type="line"/>
      <point x="667" y="1500" type="line" smooth="yes"/>
      <point x="437" y="1500"/>
      <point x="133" y="1399"/>
      <point x="73" y="1050" type="curve"/>
      <point x="66" y="1014"/>
      <point x="63" y="981"/>
      <point x="63" y="950" type="curve" smooth="yes"/>
      <point x="63" y="882"/>
      <point x="81" y="795"/>
      <point x="146" y="725" type="curve" smooth="yes"/>
      <point x="211" y="655"/>
      <point x="309" y="617"/>
      <point x="409" y="604" type="curve"/>
      <point x="232" y="-400" type="line"/>
      <point x="501" y="-400" type="line"/>
      <point x="800" y="1298" type="line"/>
      <point x="934" y="1298" type="line"/>
    </contour>
  </outline>
</glyph>
<glyph name="periodcentered" format="2">
  <advance width="1300"/>
  <unicode hex="00B7"/>
  <outline>
    <contour>
      <point x="103" y="683" type="curve"/>
      <point x="100" y="670"/>
      <point x="99" y="658"/>
      <point x="99" y="646" type="curve" smooth="yes"/>
      <point x="99" y="618"/>
      <point x="107" y="578"/>
      <point x="136" y="542" type="curve" smooth="yes"/>
      <point x="165" y="506"/>
      <point x="211" y="483"/>
      <point x="266" y="483" type="curve" smooth="yes"/>
      <point x="376" y="483"/>
      <point x="477" y="574"/>
      <point x="498" y="683" type="curve" smooth="yes"/>
      <point x="500" y="695"/>
      <point x="501" y="707"/>
      <point x="501" y="718" type="curve" smooth="yes"/>
      <point x="501" y="747"/>
      <point x="495" y="787"/>
      <point x="465" y="823" type="curve" smooth="yes"/>
      <point x="435" y="859"/>
      <point x="390" y="881"/>
      <point x="335" y="881" type="curve" smooth="yes"/>
      <point x="227" y="881"/>
      <point x="122" y="792"/>
    </contour>
  </outline>
</glyph>
<glyph name="Aacute" format="2">
  <advance width="1300"/>
  <unicode hex="00C1"/>
  <outline>
    <contour>
      <point x="851" y="646" type="line"/>
      <point x="627" y="646" type="line"/>
      <point x="763" y="990" type="line"/>
      <point x="862" y="1331" type="line"/>
      <point x="840" y="990" type="line"/>
    </contour>
    <contour>
      <point x="530" y="427" type="line"/>
      <point x="872" y="427" type="line"/>
      <point x="900" y="0" type="line"/>
      <point x="1234" y="0" type="line"/>
      <point x="1072" y="1520" type="line"/>
      <point x="680" y="1500" type="line"/>
      <point x="616" y="1284" type="line"/>
      <point x="35" y="0" type="line"/>
      <point x="353" y="0" type="line"/>
    </contour>
    <contour>
      <point x="959" y="1600" type="line"/>
      <point x="1301" y="1920" type="line"/>
      <point x="960" y="1900" type="line"/>
      <point x="744" y="1600" type="line"/>
    </contour>
  </outline>
</glyph>
<glyph name="Adieresis" format="2">
  <advance width="1300"/>
  <unicode hex="00C4"/>
  <outline>
    <contour>
      <point x="851" y="646" type="line"/>
      <point x="627" y="646" type="line"/>
      <point x="763" y="990" type="line"/>
      <point x="862" y="1331" type="line"/>
      <point x="840" y="990" type="line"/>
    </contour>
    <contour>
      <point x="530" y="427" type="line"/>
      <point x="872" y="427" type="line"/>
      <point x="900" y="0" type="line"/>
      <point x="1234" y="0" type="line"/>
      <point x="1072" y="1520" type="line"/>
      <point x="680" y="1500" type="line"/>
      <point x="616" y="1284" type="line"/>
      <point x="35" y="0" type="line"/>
      <point x="353" y="0" type="line"/>
    </contour>
    <contour>
      <point x="854" y="1600" type="line"/>
      <point x="901" y="1866" type="line"/>
      <point x="625" y="1866" type="line"/>
      <point x="578" y="1600" type="line"/>
    </contour>
    <contour>
      <point x="1254" y="1600" type="line"/>
      <point x="1301" y="1866" type="line"/>
      <point x="1025" y="1866" type="line"/>
      <point x="978" y="1600" type="line"/>
    </contour>
  </outline>
</glyph>
<glyph name="Egrave" format="2">
  <advance width="1300"/>
  <unicode hex="00C8"/>
  <outline>
    <contour>
      <point x="439" y="228" type="line"/>
      <point x="471" y="360" type="line"/>
      <point x="531" y="703" type="line"/>
      <point x="1047" y="703" type="line"/>
      <point x="1085" y="916" type="line"/>
      <point x="569" y="916" type="line"/>
      <point x="607" y="1134" type="line"/>
      <point x="617" y="1272" type="line"/>
      <point x="1214" y="1272" type="line"/>
      <point x="1254" y="1500" type="line"/>
      <point x="279" y="1500" type="line"/>
      <point x="279" y="1263" type="line"/>
      <point x="97" y="231" type="line"/>
      <point x="39" y="0" type="line"/>
      <point x="999" y="0" type="line"/>
      <point x="1066" y="228" type="line"/>
    </contour>
    <contour>
      <point x="891" y="1900" type="line"/>
      <point x="558" y="1920" type="line"/>
      <point x="786" y="1600" type="line"/>
      <point x="1001" y="1600" type="line"/>
    </contour>
  </outline>
</glyph>
<glyph name="Ecircumflex" format="2">
  <advance width="1300"/>
  <unicode hex="00CA"/>
  <outline>
    <contour>
      <point x="439" y="228" type="line"/>
      <point x="471" y="360" type="line"/>
      <point x="531" y="703" type="line"/>
      <point x="1047" y="703" type="line"/>
      <point x="1085" y="916" type="line"/>
      <point x="569" y="916" type="line"/>
      <point x="607" y="1134" type="line"/>
      <point x="617" y="1272" type="line"/>
      <point x="1214" y="1272" type="line"/>
      <point x="1254" y="1500" type="line"/>
      <point x="279" y="1500" type="line"/>
      <point x="279" y="1263" type="line"/>
      <point x="97" y="231" type="line"/>
      <point x="39" y="0" type="line"/>
      <point x="999" y="0" type="line"/>
      <point x="1066" y="228" type="line"/>
    </contour>
    <contour>
      <point x="1011" y="1920" type="line"/>
      <point x="717" y="1900" type="line"/>
      <point x="473" y="1620" type="line"/>
      <point x="712" y="1620" type="line"/>
      <point x="811" y="1723" type="line"/>
      <point x="864" y="1850" type="line"/>
      <point x="871" y="1723" type="line"/>
      <point x="923" y="1620" type="line"/>
      <point x="1143" y="1620" type="line"/>
    </contour>
  </outline>
</glyph>
<glyph name="Idieresis" format="2">
  <advance width="1300"/>
  <unicode hex="00CF"/>
  <outline>
    <contour>
      <point x="278" y="1272" type="line"/>
      <point x="584" y="1272" type="line"/>
      <point x="399" y="228" type="line"/>
      <point x="121" y="228" type="line"/>
      <point x="81" y="0" type="line"/>
      <point x="959" y="0" type="line"/>
      <point x="1034" y="228" type="line"/>
      <point x="733" y="228" type="line"/>
      <point x="918" y="1272" type="line"/>
      <point x="1191" y="1272" type="line"/>
      <point x="1231" y="1500" type="line"/>
      <point x="353" y="1500" type="line"/>
    </contour>
    <contour>
      <point x="467" y="1700" type="line"/>
      <point x="743" y="1700" type="line"/>
      <point x="790" y="1966" type="line"/>
      <point x="514" y="1966" type="line"/>
    </contour>
    <contour>
      <point x="867" y="1700" type="line"/>
      <point x="1143" y="1700" type="line"/>
      <point x="1190" y="1966" type="line"/>
      <point x="914" y="1966" type="line"/>
    </contour>
  </outline>
</glyph>
<glyph name="Ntilde" format="2">
  <advance width="1300"/>
  <unicode hex="00D1"/>
  <outline>
    <contour>
      <point x="622" y="1620" type="line"/>
      <point x="638" y="1660"/>
      <point x="663" y="1700"/>
      <point x="709" y="1700" type="curve" smooth="yes"/>
      <point x="803" y="1700"/>
      <point x="822" y="1620"/>
      <point x="944" y="1620" type="curve" smooth="yes"/>
      <point x="1122" y="1620"/>
      <point x="1206" y="1765"/>
      <point x="1235" y="1882" type="curve"/>
      <point x="1069" y="1892" type="line"/>
      <point x="1053" y="1844"/>
      <point x="1029" y="1804"/>
      <point x="973" y="1804" type="curve" smooth="yes"/>
      <point x="890" y="1804"/>
      <point x="868" y="1884"/>
      <point x="737" y="1884" type="curve" smooth="yes"/>
      <point x="569" y="1884"/>
      <point x="471" y="1735"/>
      <point x="441" y="1627" type="curve"/>
    </contour>
    <contour>
      <point x="1028" y="0" type="line"/>
      <point x="1297" y="1520" type="line"/>
      <point x="971" y="1500" type="line"/>
      <point x="857" y="852" type="line"/>
      <point x="871" y="600" type="line"/>
      <point x="861" y="600" type="line"/>
      <point x="566" y="1520" type="line"/>
      <point x="227" y="1500" type="line"/>
      <point x="227" y="1263" type="line"/>
      <point x="5" y="0" type="line"/>
      <point x="327" y="0" type="line"/>
      <point x="442" y="649" type="line"/>
      <point x="433" y="950" type="line"/>
      <point x="443" y="950" type="line"/>
      <point x="739" y="0" type="line"/>
    </contour>
  </outline>
</glyph>
<glyph name="Odieresis" format="2">
  <advance width="1300"/>
  <unicode hex="00D6"/>
  <outline>
    <contour>
      <point x="491" y="1600" type="line"/>
      <point x="767" y="1600" type="line"/>
      <point x="814" y="1866" type="line"/>
      <point x="538" y="1866" type="line"/>
    </contour>
    <contour>
      <point x="891" y="1600" type="line"/>
      <point x="1167" y="1600" type="line"/>
      <point x="1214" y="1866" type="line"/>
      <point x="938" y="1866" type="line"/>
    </contour>
    <contour>
      <point x="518" y="-17" type="curve" smooth="yes"/>
      <point x="921" y="-17"/>
      <point x="1176" y="330"/>
      <point x="1252" y="750" type="curve" smooth="yes"/>
      <point x="1265" y="820"/>
      <point x="1271" y="887"/>
      <point x="1271" y="952" type="curve" smooth="yes"/>
      <point x="1271" y="984"/>
      <point x="1268" y="1031"/>
      <point x="1262" y="1094" type="curve" smooth="yes"/>
      <point x="1255" y="1156"/>
      <point x="1233" y="1222"/>
      <point x="1195" y="1291" type="curve" smooth="yes"/>
      <point x="1119" y="1430"/>
      <point x="985" y="1517"/>
      <point x="789" y="1517" type="curve" smooth="yes"/>
      <point x="388" y="1517"/>
      <point x="127" y="1170"/>
      <point x="55" y="750" type="curve"/>
      <point x="-21" y="330"/>
      <point x="128" y="-17"/>
    </contour>
    <contour>
      <point x="896" y="721" type="curve" smooth="yes"/>
      <point x="859" y="506"/>
      <point x="771" y="226"/>
      <point x="566" y="226" type="curve" smooth="yes"/>
      <point x="417" y="226"/>
      <point x="382" y="368"/>
      <point x="382" y="513" type="curve" smooth="yes"/>
      <point x="382" y="518"/>
      <point x="382" y="532"/>
      <point x="383" y="555" type="curve"/>
      <point x="383" y="578"/>
      <point x="386" y="611"/>
      <point x="391" y="655" type="curve" smooth="yes"/>
      <point x="396" y="698"/>
      <point x="403" y="741"/>
      <point x="410" y="783" type="curve" smooth="yes"/>
      <point x="446" y="999"/>
      <point x="534" y="1274"/>
      <point x="740" y="1274" type="curve" smooth="yes"/>
      <point x="890" y="1274"/>
      <point x="925" y="1131"/>
      <point x="925" y="994" type="curve" smooth="yes"/>
      <point x="925" y="987"/>
      <point x="925" y="972"/>
      <point x="924" y="949" type="curve" smooth="yes"/>
      <point x="923" y="925"/>
      <point x="920" y="891"/>
      <point x="915" y="848" type="curve" smooth="yes"/>
      <point x="910" y="805"/>
      <point x="903" y="762"/>
    </contour>
  </outline>
</glyph>
<glyph name="Udieresis" format="2">
  <advance width="1300"/>
  <unicode hex="00DC"/>
  <outline>
    <contour>
      <point x="439" y="1600" type="line"/>
      <point x="715" y="1600" type="line"/>
      <point x="762" y="1866" type="line"/>
      <point x="486" y="1866" type="line"/>
    </contour>
    <contour>
      <point x="839" y="1600" type="line"/>
      <point x="1115" y="1600" type="line"/>
      <point x="1162" y="1866" type="line"/>
      <point x="886" y="1866" type="line"/>
    </contour>
    <contour>
      <point x="929" y="1500" type="line"/>
      <point x="756" y="516" type="line" smooth="yes"/>
      <point x="721" y="319"/>
      <point x="637" y="221"/>
      <point x="516" y="221" type="curve" smooth="yes"/>
      <point x="395" y="221"/>
      <point x="373" y="301"/>
      <point x="373" y="382" type="curve" smooth="yes"/>
      <point x="373" y="406"/>
      <point x="375" y="456"/>
      <point x="394" y="564" type="curve" smooth="yes"/>
      <point x="563" y="1520" type="line"/>
      <point x="186" y="1500" type="line"/>
      <point x="186" y="1263" type="line"/>
      <point x="66" y="582" type="line"/>
      <point x="53" y="512"/>
      <point x="47" y="447"/>
      <point x="47" y="386" type="curve" smooth="yes"/>
      <point x="47" y="369"/>
      <point x="48" y="339"/>
      <point x="51" y="294" type="curve" smooth="yes"/>
      <point x="54" y="249"/>
      <point x="70" y="201"/>
      <point x="100" y="148" type="curve" smooth="yes"/>
      <point x="159" y="43"/>
      <point x="272" y="-17"/>
      <point x="453" y="-17" type="curve" smooth="yes"/>
      <point x="789" y="-17"/>
      <point x="1027" y="163"/>
      <point x="1091" y="534" type="curve"/>
      <point x="1261" y="1500" type="line"/>
    </contour>
  </outline>
</glyph>
<glyph name="adieresis" format="2">
  <advance width="1300"/>
  <unicode hex="00E4"/>
  <outline>
    <contour>
      <point x="500" y="1300" type="line"/>
      <point x="776" y="1300" type="line"/>
      <point x="823" y="1566" type="line"/>
      <point x="547" y="1566" type="line"/>
    </contour>
    <contour>
      <point x="900" y="1300" type="line"/>
      <point x="1176" y="1300" type="line"/>
      <point x="1223" y="1566" type="line"/>
      <point x="947" y="1566" type="line"/>
    </contour>
    <contour>
      <point x="484" y="-16" type="curve"/>
      <point x="504" y="-16" type="line" smooth="yes"/>
      <point x="533" y="-16"/>
      <point x="553" y="-13"/>
      <point x="568" y="-10" type="curve"/>
      <point x="723" y="162" type="line"/>
      <point x="695" y="0" type="line"/>
      <point x="1017" y="0" type="line"/>
      <point x="1031" y="209" type="line"/>
      <point x="1174" y="1043" type="line"/>
      <point x="1097" y="1080"/>
      <point x="1008" y="1099"/>
      <point x="936" y="1108" type="curve" smooth="yes"/>
      <point x="895" y="1113"/>
      <point x="854" y="1116"/>
      <point x="813" y="1117" type="curve"/>
      <point x="397" y="1117"/>
      <point x="184" y="832"/>
      <point x="148" y="542" type="curve"/>
      <point x="142" y="500"/>
      <point x="139" y="458"/>
      <point x="139" y="416" type="curve" smooth="yes"/>
      <point x="139" y="414"/>
      <point x="139" y="401"/>
      <point x="140" y="378" type="curve"/>
      <point x="140" y="354"/>
      <point x="144" y="322"/>
      <point x="152" y="281" type="curve" smooth="yes"/>
      <point x="159" y="240"/>
      <point x="171" y="201"/>
      <point x="188" y="166" type="curve"/>
      <point x="236" y="60"/>
      <point x="332" y="-14"/>
    </contour>
    <contour>
      <point x="745" y="329" type="line"/>
      <point x="705" y="279"/>
      <point x="632" y="209"/>
      <point x="541" y="209" type="curve" smooth="yes"/>
      <point x="502" y="209"/>
      <point x="475" y="243"/>
      <point x="460" y="299" type="curve" smooth="yes"/>
      <point x="445" y="354"/>
      <point x="446" y="406"/>
      <point x="446" y="427" type="curve" smooth="yes"/>
      <point x="446" y="454"/>
      <point x="447" y="481"/>
      <point x="450" y="510" type="curve" smooth="yes"/>
      <point x="471" y="717"/>
      <point x="580" y="893"/>
      <point x="779" y="893" type="curve"/>
      <point x="788" y="892"/>
      <point x="813" y="889"/>
      <point x="840" y="885" type="curve"/>
    </contour>
  </outline>
</glyph>
<glyph name="ccedilla" format="2">
  <advance width="1300"/>
  <unicode hex="00E7"/>
  <outline>
    <contour>
      <point x="1200" y="957" type="line"/>
      <point x="1116" y="1070"/>
      <point x="975" y="1117"/>
      <point x="796" y="1117" type="curve" smooth="yes"/>
      <point x="343" y="1117"/>
      <point x="153" y="833"/>
      <point x="105" y="555" type="curve" smooth="yes"/>
      <point x="99" y="520"/>
      <point x="96" y="485"/>
      <point x="96" y="452" type="curve" smooth="yes"/>
      <point x="96" y="412"/>
      <point x="102" y="365"/>
      <point x="114" y="312" type="curve" smooth="yes"/>
      <point x="126" y="259"/>
      <point x="153" y="206"/>
      <point x="196" y="154" type="curve" smooth="yes"/>
      <point x="238" y="101"/>
      <point x="293" y="60"/>
      <point x="360" y="29" type="curve" smooth="yes"/>
      <point x="386" y="17"/>
      <point x="414" y="7"/>
      <point x="443" y="0" type="curve"/>
      <point x="433" y="0" type="line"/>
      <point x="441" y="-8"/>
      <point x="461" y="-30"/>
      <point x="477" y="-58" type="curve" smooth="yes"/>
      <point x="493" y="-86"/>
      <point x="502" y="-113"/>
      <point x="502" y="-133" type="curve" smooth="yes"/>
      <point x="502" y="-138"/>
      <point x="502" y="-142"/>
      <point x="501" y="-147" type="curve" smooth="yes"/>
      <point x="494" y="-184"/>
      <point x="459" y="-200"/>
      <point x="428" y="-200" type="curve" smooth="yes"/>
      <point x="399" y="-200"/>
      <point x="359" y="-183"/>
      <point x="327" y="-166" type="curve" smooth="yes"/>
      <point x="308" y="-156"/>
      <point x="288" y="-144"/>
      <point x="269" y="-131" type="curve"/>
      <point x="126" y="-290" type="line"/>
      <point x="156" y="-312"/>
      <point x="188" y="-332"/>
      <point x="222" y="-349" type="curve" smooth="yes"/>
      <point x="281" y="-378"/>
      <point x="355" y="-407"/>
      <point x="435" y="-407" type="curve" smooth="yes"/>
      <point x="588" y="-407"/>
      <point x="740" y="-303"/>
      <point x="764" y="-171" type="curve" smooth="yes"/>
      <point x="766" y="-160"/>
      <point x="767" y="-149"/>
      <point x="767" y="-139" type="curve" smooth="yes"/>
      <point x="767" y="-112"/>
      <point x="757" y="-77"/>
      <point x="737" y="-46" type="curve"/>
      <point x="728" y="-33"/>
      <point x="717" y="-20"/>
      <point x="705" y="-9" type="curve"/>
      <point x="724" y="-6"/>
      <point x="742" y="-3"/>
      <point x="759" y="1" type="curve" smooth="yes"/>
      <point x="909" y="37"/>
      <point x="1007" y="104"/>
      <point x="1050" y="137" type="curve"/>
      <point x="964" y="353" type="line"/>
      <point x="906" y="292"/>
      <point x="808" y="236"/>
      <point x="670" y="236" type="curve" smooth="yes"/>
      <point x="593" y="236"/>
      <point x="521" y="269"/>
      <point x="473" y="325" type="curve" smooth="yes"/>
      <point x="424" y="381"/>
      <point x="410" y="446"/>
      <point x="410" y="497" type="curve" smooth="yes"/>
      <point x="410" y="515"/>
      <point x="412" y="534"/>
      <point x="415" y="553" type="curve" smooth="yes"/>
      <point x="450" y="756"/>
      <point x="621" y="885"/>
      <point x="784" y="885" type="curve" smooth="yes"/>
      <point x="887" y="885"/>
      <point x="957" y="853"/>
      <point x="1006" y="772" type="curve"/>
    </contour>
  </outline>
</glyph>
<glyph name="eth" format="2">
  <advance width="1300"/>
  <unicode hex="00F0"/>
  <outline>
    <contour>
      <point x="610" y="993" type="line"/>
      <point x="792" y="1126" type="line"/>
      <point x="842" y="1065"/>
      <point x="861" y="969"/>
      <point x="861" y="915" type="curve" smooth="yes"/>
      <point x="861" y="904" type="line"/>
      <point x="801" y="928"/>
      <point x="737" y="936"/>
      <point x="673" y="936" type="curve" smooth="yes"/>
      <point x="386" y="936"/>
      <point x="178" y="772"/>
      <point x="124" y="472" type="curve" smooth="yes"/>
      <point x="117" y="432"/>
      <point x="113" y="394"/>
      <point x="113" y="358" type="curve" smooth="yes"/>
      <point x="113" y="329"/>
      <point x="117" y="292"/>
      <point x="125" y="249" type="curve" smooth="yes"/>
      <point x="133" y="205"/>
      <point x="154" y="162"/>
      <point x="188" y="119" type="curve" smooth="yes"/>
      <point x="256" y="33"/>
      <point x="370" y="-17"/>
      <point x="527" y="-17" type="curve" smooth="yes"/>
      <point x="949" y="-17"/>
      <point x="1133" y="398"/>
      <point x="1169" y="612" type="curve"/>
      <point x="1189" y="724"/>
      <point x="1187" y="792"/>
      <point x="1187" y="812" type="curve" smooth="yes"/>
      <point x="1187" y="948"/>
      <point x="1157" y="1113"/>
      <point x="1074" y="1239" type="curve"/>
      <point x="946" y="1239" type="line"/>
      <point x="1158" y="1395" type="line"/>
      <point x="1048" y="1561" type="line"/>
      <point x="876" y="1433" type="line"/>
      <point x="784" y="1486"/>
      <point x="673" y="1517"/>
      <point x="540" y="1517" type="curve"/>
      <point x="539" y="1517" type="line"/>
      <point x="538" y="1517" type="line"/>
      <point x="537" y="1517" type="line"/>
      <point x="537" y="1517" type="line"/>
      <point x="536" y="1517" type="line"/>
      <point x="534" y="1517" type="line"/>
      <point x="533" y="1517" type="line"/>
      <point x="532" y="1517" type="line"/>
      <point x="531" y="1517" type="line"/>
      <point x="531" y="1517" type="line"/>
      <point x="523" y="1517" type="line"/>
      <point x="522" y="1517" type="line"/>
      <point x="521" y="1517" type="line"/>
      <point x="498" y="1517"/>
      <point x="467" y="1514"/>
      <point x="401" y="1508" type="curve"/>
      <point x="401" y="1300" type="line"/>
      <point x="432" y="1307"/>
      <point x="466" y="1310"/>
      <point x="502" y="1310" type="curve" smooth="yes"/>
      <point x="525" y="1310"/>
      <point x="551" y="1305"/>
      <point x="579" y="1296" type="curve"/>
      <point x="727" y="1320" type="line"/>
      <point x="496" y="1154" type="line"/>
    </contour>
    <contour>
      <point x="844" y="596" type="curve"/>
      <point x="833" y="536"/>
      <point x="824" y="483"/>
      <point x="801" y="426" type="curve"/>
      <point x="756" y="307"/>
      <point x="671" y="208"/>
      <point x="566" y="208" type="curve" smooth="yes"/>
      <point x="513" y="208"/>
      <point x="470" y="234"/>
      <point x="444" y="278" type="curve" smooth="yes"/>
      <point x="418" y="322"/>
      <point x="415" y="368"/>
      <point x="415" y="393" type="curve" smooth="yes"/>
      <point x="415" y="412"/>
      <point x="417" y="433"/>
      <point x="421" y="455" type="curve" smooth="yes"/>
      <point x="445" y="599"/>
      <point x="526" y="712"/>
      <point x="648" y="712" type="curve" smooth="yes"/>
      <point x="755" y="712"/>
      <point x="806" y="650"/>
    </contour>
  </outline>
</glyph>
<glyph name="ocircumflex" format="2">
  <advance width="1300"/>
  <unicode hex="00F4"/>
  <outline>
    <contour>
      <point x="1000" y="1520" type="line"/>
      <point x="706" y="1500" type="line"/>
      <point x="462" y="1220" type="line"/>
      <point x="701" y="1220" type="line"/>
      <point x="800" y="1323" type="line"/>
      <point x="853" y="1450" type="line" name=".hr01"/>
      <point x="860" y="1323" type="line"/>
      <point x="912" y="1220" type="line" name=".hr02"/>
      <point x="1132" y="1220" type="line"/>
    </contour>
    <contour>
      <point x="556" y="-17" type="curve" smooth="yes"/>
      <point x="886" y="-17"/>
      <point x="1138" y="229"/>
      <point x="1194" y="553" type="curve" smooth="yes"/>
      <point x="1201" y="594"/>
      <point x="1205" y="633"/>
      <point x="1205" y="671" type="curve" smooth="yes"/>
      <point x="1205" y="708"/>
      <point x="1200" y="752"/>
      <point x="1190" y="804" type="curve" smooth="yes"/>
      <point x="1179" y="855"/>
      <point x="1155" y="906"/>
      <point x="1117" y="957" type="curve" smooth="yes"/>
      <point x="1041" y="1057"/>
      <point x="917" y="1117"/>
      <point x="757" y="1117" type="curve" smooth="yes"/>
      <point x="429" y="1117"/>
      <point x="167" y="877"/>
      <point x="111" y="553" type="curve" smooth="yes"/>
      <point x="104" y="513"/>
      <point x="101" y="475"/>
      <point x="101" y="438" type="curve" smooth="yes"/>
      <point x="101" y="399"/>
      <point x="107" y="354"/>
      <point x="118" y="302" type="curve" smooth="yes"/>
      <point x="129" y="249"/>
      <point x="154" y="198"/>
      <point x="193" y="147" type="curve" smooth="yes"/>
      <point x="271" y="45"/>
      <point x="396" y="-17"/>
    </contour>
    <contour>
      <point x="863" y="528" type="curve" smooth="yes"/>
      <point x="834" y="364"/>
      <point x="744" y="203"/>
      <point x="599" y="203" type="curve" smooth="yes"/>
      <point x="520" y="203"/>
      <point x="473" y="250"/>
      <point x="449" y="319" type="curve" smooth="yes"/>
      <point x="425" y="387"/>
      <point x="430" y="439"/>
      <point x="430" y="446" type="curve" smooth="yes"/>
      <point x="430" y="487"/>
      <point x="434" y="528"/>
      <point x="441" y="571" type="curve" smooth="yes"/>
      <point x="470" y="736"/>
      <point x="565" y="897"/>
      <point x="713" y="897" type="curve" smooth="yes"/>
      <point x="869" y="897"/>
      <point x="895" y="709"/>
    </contour>
  </outline>
</glyph>
<glyph name="oslash" format="2">
  <advance width="1300"/>
  <unicode hex="00F8"/>
  <outline>
    <contour>
      <point x="1290" y="1209" type="line"/>
      <point x="1040" y="1209" type="line"/>
      <point x="942" y="1084" type="line"/>
      <point x="886" y="1106"/>
      <point x="823" y="1117"/>
      <point x="752" y="1117" type="curve" smooth="yes"/>
      <point x="424" y="1117"/>
      <point x="162" y="877"/>
      <point x="106" y="553" type="curve" smooth="yes"/>
      <point x="99" y="513"/>
      <point x="96" y="475"/>
      <point x="96" y="438" type="curve" smooth="yes"/>
      <point x="96" y="399"/>
      <point x="102" y="354"/>
      <point x="113" y="302" type="curve" smooth="yes"/>
      <point x="124" y="249"/>
      <point x="149" y="198"/>
      <point x="188" y="147" type="curve" smooth="yes"/>
      <point x="191" y="143"/>
      <point x="193" y="139"/>
      <point x="196" y="136" type="curve"/>
      <point x="10" y="-100" type="line"/>
      <point x="269" y="-100" type="line"/>
      <point x="360" y="17" type="line"/>
      <point x="417" y="-6"/>
      <point x="480" y="-17"/>
      <point x="551" y="-17" type="curve" smooth="yes"/>
      <point x="881" y="-17"/>
      <point x="1133" y="229"/>
      <point x="1189" y="553" type="curve" smooth="yes"/>
      <point x="1196" y="594"/>
      <point x="1200" y="633"/>
      <point x="1200" y="671" type="curve" smooth="yes"/>
      <point x="1200" y="708"/>
      <point x="1195" y="752"/>
      <point x="1185" y="804" type="curve" smooth="yes"/>
      <point x="1174" y="855"/>
      <point x="1150" y="906"/>
      <point x="1112" y="957" type="curve" smooth="yes"/>
      <point x="1109" y="961"/>
      <point x="1105" y="965"/>
      <point x="1102" y="969" type="curve"/>
    </contour>
    <contour>
      <point x="425" y="428" type="line"/>
      <point x="425" y="436" type="line"/>
      <point x="425" y="446" type="line" smooth="yes"/>
      <point x="425" y="487"/>
      <point x="429" y="528"/>
      <point x="436" y="571" type="curve" smooth="yes"/>
      <point x="465" y="736"/>
      <point x="560" y="897"/>
      <point x="708" y="897" type="curve" smooth="yes"/>
      <point x="737" y="897"/>
      <point x="761" y="891"/>
      <point x="781" y="880" type="curve"/>
    </contour>
    <contour>
      <point x="858" y="528" type="curve" smooth="yes"/>
      <point x="829" y="364"/>
      <point x="739" y="203"/>
      <point x="594" y="203" type="curve" smooth="yes"/>
      <point x="565" y="203"/>
      <point x="540" y="209"/>
      <point x="519" y="221" type="curve"/>
      <point x="870" y="670" type="line"/>
      <point x="870" y="662" type="line" smooth="yes"/>
      <point x="870" y="618"/>
      <point x="866" y="573"/>
    </contour>
  </outline>
</glyph>
<glyph name="ucircumflex" format="2">
  <advance width="1300"/>
  <unicode hex="00FB"/>
  <outline>
    <contour>
      <point x="955" y="1520" type="line"/>
      <point x="661" y="1500" type="line"/>
      <point x="417" y="1220" type="line"/>
      <point x="656" y="1220" type="line"/>
      <point x="755" y="1323" type="line"/>
      <point x="808" y="1450" type="line" name=".hr01"/>
      <point x="815" y="1323" type="line"/>
      <point x="867" y="1220" type="line" name=".hr02"/>
      <point x="1087" y="1220" type="line"/>
    </contour>
    <contour>
      <point x="753" y="318" type="line"/>
      <point x="719" y="274"/>
      <point x="648" y="213"/>
      <point x="559" y="213" type="curve" smooth="yes"/>
      <point x="491" y="213"/>
      <point x="449" y="234"/>
      <point x="429" y="274" type="curve"/>
      <point x="408" y="313"/>
      <point x="411" y="348"/>
      <point x="411" y="357" type="curve" smooth="yes"/>
      <point x="411" y="381"/>
      <point x="414" y="408"/>
      <point x="419" y="438" type="curve" smooth="yes"/>
      <point x="540" y="1120" type="line"/>
      <point x="220" y="1100" type="line"/>
      <point x="103" y="438" type="line" smooth="yes"/>
      <point x="96" y="401"/>
      <point x="93" y="364"/>
      <point x="93" y="328" type="curve" smooth="yes"/>
      <point x="93" y="308"/>
      <point x="95" y="279"/>
      <point x="99" y="242" type="curve" smooth="yes"/>
      <point x="103" y="205"/>
      <point x="119" y="165"/>
      <point x="148" y="123" type="curve" smooth="yes"/>
      <point x="205" y="38"/>
      <point x="313" y="-17"/>
      <point x="492" y="-17" type="curve" smooth="yes"/>
      <point x="537" y="-17"/>
      <point x="577" y="-11"/>
      <point x="616" y="0" type="curve"/>
      <point x="715" y="100" type="line"/>
      <point x="697" y="0" type="line"/>
      <point x="1014" y="0" type="line"/>
      <point x="1212" y="1120" type="line"/>
      <point x="891" y="1100" type="line"/>
    </contour>
  </outline>
</glyph>
<glyph name="scaron" format="2">
  <advance width="1300"/>
  <unicode hex="0161"/>
  <outline>
    <contour>
      <point x="1177" y="1520" type="line"/>
      <point x="972" y="1520" type="line"/>
      <point x="880" y="1427" type="line"/>
      <point x="824" y="1300" type="line"/>
      <point x="810" y="1427" type="line"/>
      <point x="751" y="1520" type="line"/>
      <point x="521" y="1520" type="line"/>
      <point x="646" y="1245" type="line"/>
      <point x="937" y="1216" type="line"/>
    </contour>
    <contour>
      <point x="1221" y="1022" type="line"/>
      <point x="1157" y="1068"/>
      <point x="1004" y="1117"/>
      <point x="855" y="1117" type="curve" smooth="yes"/>
      <point x="550" y="1117"/>
      <point x="308" y="1035"/>
      <point x="273" y="832" type="curve" smooth="yes"/>
      <point x="270" y="815"/>
      <point x="269" y="798"/>
      <point x="269" y="782" type="curve" smooth="yes"/>
      <point x="269" y="721"/>
      <point x="293" y="655"/>
      <point x="362" y="597" type="curve" smooth="yes"/>
      <point x="431" y="539"/>
      <point x="531" y="499"/>
      <point x="640" y="475" type="curve" smooth="yes"/>
      <point x="691" y="464"/>
      <point x="752" y="449"/>
      <point x="798" y="429" type="curve" smooth="yes"/>
      <point x="844" y="408"/>
      <point x="870" y="382"/>
      <point x="870" y="354" type="curve" smooth="yes"/>
      <point x="870" y="351"/>
      <point x="870" y="347"/>
      <point x="869" y="344" type="curve"/>
      <point x="849" y="225"/>
      <point x="638" y="208"/>
      <point x="549" y="208" type="curve" smooth="yes"/>
      <point x="426" y="208"/>
      <point x="330" y="249"/>
      <point x="249" y="305" type="curve"/>
      <point x="114" y="95" type="line"/>
      <point x="194" y="31"/>
      <point x="349" y="-17"/>
      <point x="508" y="-17" type="curve" smooth="yes"/>
      <point x="845" y="-17"/>
      <point x="1112" y="68"/>
      <point x="1160" y="335" type="curve" smooth="yes"/>
      <point x="1163" y="351"/>
      <point x="1164" y="366"/>
      <point x="1164" y="381" type="curve" smooth="yes"/>
      <point x="1164" y="445"/>
      <point x="1134" y="514"/>
      <point x="1063" y="571" type="curve" smooth="yes"/>
      <point x="991" y="627"/>
      <point x="894" y="664"/>
      <point x="806" y="684" type="curve" smooth="yes"/>
      <point x="750" y="696"/>
      <point x="683" y="708"/>
      <point x="632" y="727" type="curve" smooth="yes"/>
      <point x="580" y="746"/>
      <point x="549" y="768"/>
      <point x="549" y="795" type="curve" smooth="yes"/>
      <point x="549" y="798"/>
      <point x="549" y="801"/>
      <point x="550" y="804" type="curve"/>
      <point x="564" y="880"/>
      <point x="673" y="898"/>
      <point x="823" y="898" type="curve" smooth="yes"/>
      <point x="927" y="898"/>
      <point x="1041" y="870"/>
      <point x="1107" y="822" type="curve"/>
    </contour>
  </outline>
</glyph>
<glyph name="florin" format="2">
  <advance width="1300"/>
  <unicode hex="0192"/>
  <outline>
    <contour>
      <point x="951" y="846" type="line"/>
      <point x="1080" y="1191" type="line"/>
      <point x="1099" y="1247"/>
      <point x="1143" y="1272"/>
      <point x="1179" y="1272" type="curve" smooth="yes"/>
      <point x="1243" y="1272"/>
      <point x="1290" y="1241"/>
      <point x="1335" y="1200" type="curve"/>
      <point x="1410" y="1397" type="line"/>
      <point x="1326" y="1481"/>
      <point x="1198" y="1489"/>
      <point x="1121" y="1489" type="curve" smooth="yes"/>
      <point x="973" y="1489"/>
      <point x="817" y="1397"/>
      <point x="734" y="1162" type="curve"/>
      <point x="593" y="777" type="line"/>
      <point x="565" y="846" type="line"/>
      <point x="410" y="846" type="line"/>
      <point x="314" y="628" type="line"/>
      <point x="542" y="628" type="line"/>
      <point x="312" y="25" type="line"/>
      <point x="312" y="26" type="line"/>
      <point x="260" y="-95"/>
      <point x="198" y="-151"/>
      <point x="138" y="-151" type="curve" smooth="yes"/>
      <point x="87" y="-151"/>
      <point x="31" y="-135"/>
      <point x="-5" y="-100" type="curve"/>
      <point x="-116" y="-309" type="line"/>
      <point x="-37" y="-369"/>
      <point x="75" y="-402"/>
      <point x="188" y="-402" type="curve" smooth="yes"/>
      <point x="466" y="-402"/>
      <point x="534" y="-242"/>
      <point x="614" y="-54" type="curve"/>
      <point x="718" y="213"/>
      <point x="822" y="495"/>
      <point x="899" y="700" type="curve"/>
      <point x="925" y="628" type="line"/>
      <point x="1078" y="628" type="line"/>
      <point x="1174" y="846" type="line"/>
    </contour>
  </outline>
</glyph>
<glyph name="hungarumlaut" format="2">
  <advance width="1300"/>
  <unicode hex="02DD"/>
  <outline>
    <contour>
      <point x="120" y="1117" type="line"/>
      <point x="349" y="1117" type="line"/>
      <point x="703" y="1520" type="line"/>
      <point x="369" y="1500" type="line"/>
    </contour>
    <contour>
      <point x="533" y="1117" type="line"/>
      <point x="762" y="1117" type="line"/>
      <point x="1116" y="1520" type="line"/>
      <point x="782" y="1500" type="line"/>
    </contour>
  </outline>
</glyph>
<glyph name="Epsilon" format="2">
  <advance width="1300"/>
  <unicode hex="0395"/>
  <outline>
    <contour>
      <point x="439" y="228" type="line"/>
      <point x="471" y="360" type="line"/>
      <point x="531" y="703" type="line"/>
      <point x="1047" y="703" type="line"/>
      <point x="1085" y="916" type="line"/>
      <point x="569" y="916" type="line"/>
      <point x="607" y="1134" type="line"/>
      <point x="617" y="1272" type="line"/>
      <point x="1214" y="1272" type="line"/>
      <point x="1254" y="1500" type="line"/>
      <point x="279" y="1500" type="line"/>
      <point x="279" y="1263" type="line"/>
      <point x="97" y="231" type="line"/>
      <point x="39" y="0" type="line"/>
      <point x="999" y="0" type="line"/>
      <point x="1066" y="228" type="line"/>
    </contour>
  </outline>
</glyph>
<glyph name="Theta" format="2">
  <advance width="1200"/>
  <unicode hex="0398"/>
  <outline>
    <contour>
      <point x="488" y="-17" type="curve" smooth="yes"/>
      <point x="891" y="-17"/>
      <point x="1146" y="330"/>
      <point x="1222" y="750" type="curve" smooth="yes"/>
      <point x="1235" y="820"/>
      <point x="1241" y="887"/>
      <point x="1241" y="952" type="curve" smooth="yes"/>
      <point x="1241" y="984"/>
      <point x="1238" y="1031"/>
      <point x="1232" y="1094" type="curve" smooth="yes"/>
      <point x="1225" y="1156"/>
      <point x="1203" y="1222"/>
      <point x="1165" y="1291" type="curve" smooth="yes"/>
      <point x="1089" y="1430"/>
      <point x="955" y="1517"/>
      <point x="759" y="1517" type="curve" smooth="yes"/>
      <point x="358" y="1517"/>
      <point x="97" y="1170"/>
      <point x="25" y="750" type="curve"/>
      <point x="-51" y="330"/>
      <point x="98" y="-17"/>
    </contour>
    <contour>
      <point x="866" y="721" type="curve" smooth="yes"/>
      <point x="829" y="506"/>
      <point x="741" y="226"/>
      <point x="536" y="226" type="curve" smooth="yes"/>
      <point x="387" y="226"/>
      <point x="352" y="368"/>
      <point x="352" y="513" type="curve" smooth="yes"/>
      <point x="352" y="518"/>
      <point x="352" y="532"/>
      <point x="353" y="555" type="curve"/>
      <point x="353" y="578"/>
      <point x="356" y="611"/>
      <point x="361" y="655" type="curve" smooth="yes"/>
      <point x="366" y="698"/>
      <point x="373" y="741"/>
      <point x="380" y="783" type="curve" smooth="yes"/>
      <point x="416" y="999"/>
      <point x="504" y="1274"/>
      <point x="710" y="1274" type="curve" smooth="yes"/>
      <point x="860" y="1274"/>
      <point x="895" y="1131"/>
      <point x="895" y="994" type="curve" smooth="yes"/>
      <point x="895" y="987"/>
      <point x="895" y="972"/>
      <point x="894" y="949" type="curve" smooth="yes"/>
      <point x="893" y="925"/>
      <point x="890" y="891"/>
      <point x="885" y="848" type="curve" smooth="yes"/>
      <point x="880" y="805"/>
      <point x="873" y="762"/>
    </contour>
    <contour>
      <point x="429" y="662" type="line"/>
      <point x="769" y="662" type="line"/>
      <point x="830" y="900" type="line"/>
      <point x="490" y="900" type="line"/>
    </contour>
  </outline>
</glyph>
<glyph name="Iota" format="2">
  <advance width="1300"/>
  <unicode hex="0399"/>
  <outline>
    <contour>
      <point x="278" y="1272" type="line"/>
      <point x="584" y="1272" type="line"/>
      <point x="399" y="228" type="line"/>
      <point x="121" y="228" type="line"/>
      <point x="81" y="0" type="line"/>
      <point x="959" y="0" type="line"/>
      <point x="1034" y="228" type="line"/>
      <point x="733" y="228" type="line"/>
      <point x="918" y="1272" type="line"/>
      <point x="1191" y="1272" type="line"/>
      <point x="1231" y="1500" type="line"/>
      <point x="353" y="1500" type="line"/>
    </contour>
  </outline>
</glyph>
<glyph name="Kappa" format="2">
  <advance width="1300"/>
  <unicode hex="039A"/>
  <outline>
    <contour>
      <point x="357" y="0" type="line"/>
      <point x="453" y="540" type="line"/>
      <point x="757" y="0" type="line"/>
      <point x="1137" y="0" type="line"/>
      <point x="734" y="716" type="line"/>
      <point x="526" y="800" type="line"/>
      <point x="776" y="900" type="line"/>
      <point x="1291" y="1500" type="line"/>
      <point x="923" y="1500" type="line"/>
      <point x="540" y="1035" type="line"/>
      <point x="626" y="1520" type="line"/>
      <point x="229" y="1500" type="line"/>
      <point x="229" y="1263" type="line"/>
      <point x="7" y="0" type="line"/>
    </contour>
  </outline>
</glyph>
<glyph name="Lambda" format="2">
  <advance width="1300"/>
  <unicode hex="039B"/>
  <outline>
    <contour>
      <point x="338" y="1" type="line"/>
      <point x="697" y="801" type="line"/>
      <point x="843" y="1241" type="line"/>
      <point x="860" y="801" type="line"/>
      <point x="933" y="0" type="line"/>
      <point x="1262" y="0" type="line"/>
      <point x="1075" y="1520" type="line"/>
      <point x="691" y="1500" type="line"/>
      <point x="611" y="1267" type="line"/>
      <point x="29" y="1" type="line"/>
    </contour>
  </outline>
</glyph>
<glyph name="Nu" format="2">
  <advance width="1300"/>
  <unicode hex="039D"/>
  <outline>
    <contour>
      <point x="1028" y="0" type="line"/>
      <point x="1297" y="1520" type="line"/>
      <point x="971" y="1500" type="line"/>
      <point x="857" y="852" type="line"/>
      <point x="871" y="600" type="line"/>
      <point x="861" y="600" type="line"/>
      <point x="566" y="1520" type="line"/>
      <point x="227" y="1500" type="line"/>
      <point x="227" y="1263" type="line"/>
      <point x="5" y="0" type="line"/>
      <point x="327" y="0" type="line"/>
      <point x="442" y="649" type="line"/>
      <point x="433" y="950" type="line"/>
      <point x="443" y="950" type="line"/>
      <point x="739" y="0" type="line"/>
    </contour>
  </outline>
</glyph>
<glyph name="Omicron" format="2">
  <advance width="1300"/>
  <unicode hex="039F"/>
  <outline>
    <contour>
      <point x="688" y="-17" type="curve" smooth="yes"/>
      <point x="1091" y="-17"/>
      <point x="1346" y="330"/>
      <point x="1422" y="750" type="curve" smooth="yes"/>
      <point x="1435" y="820"/>
      <point x="1441" y="887"/>
      <point x="1441" y="952" type="curve" smooth="yes"/>
      <point x="1441" y="984"/>
      <point x="1438" y="1031"/>
      <point x="1432" y="1094" type="curve" smooth="yes"/>
      <point x="1425" y="1156"/>
      <point x="1403" y="1222"/>
      <point x="1365" y="1291" type="curve" smooth="yes"/>
      <point x="1289" y="1430"/>
      <point x="1155" y="1517"/>
      <point x="959" y="1517" type="curve" smooth="yes"/>
      <point x="558" y="1517"/>
      <point x="297" y="1170"/>
      <point x="225" y="750" type="curve"/>
      <point x="149" y="330"/>
      <point x="298" y="-17"/>
    </contour>
    <contour>
      <point x="1066" y="721" type="curve" smooth="yes"/>
      <point x="1029" y="506"/>
      <point x="941" y="226"/>
      <point x="736" y="226" type="curve" smooth="yes"/>
      <point x="587" y="226"/>
      <point x="552" y="368"/>
      <point x="552" y="513" type="curve" smooth="yes"/>
      <point x="552" y="518"/>
      <point x="552" y="532"/>
      <point x="553" y="555" type="curve"/>
      <point x="553" y="578"/>
      <point x="556" y="611"/>
      <point x="561" y="655" type="curve" smooth="yes"/>
      <point x="566" y="698"/>
      <point x="573" y="741"/>
      <point x="580" y="783" type="curve" smooth="yes"/>
      <point x="616" y="999"/>
      <point x="704" y="1274"/>
      <point x="910" y="1274" type="curve" smooth="yes"/>
      <point x="1060" y="1274"/>
      <point x="1095" y="1131"/>
      <point x="1095" y="994" type="curve" smooth="yes"/>
      <point x="1095" y="987"/>
      <point x="1095" y="972"/>
      <point x="1094" y="949" type="curve" smooth="yes"/>
      <point x="1093" y="925"/>
      <point x="1090" y="891"/>
      <point x="1085" y="848" type="curve" smooth="yes"/>
      <point x="1080" y="805"/>
      <point x="1073" y="762"/>
    </contour>
  </outline>
</glyph>
<glyph name="Rho" format="2">
  <advance width="1300"/>
  <unicode hex="03A1"/>
  <outline>
    <contour>
      <point x="463" y="583" type="line"/>
      <point x="945" y="594"/>
      <point x="1215" y="710"/>
      <point x="1263" y="1061" type="curve" smooth="yes"/>
      <point x="1266" y="1080"/>
      <point x="1267" y="1098"/>
      <point x="1267" y="1116" type="curve" smooth="yes"/>
      <point x="1267" y="1207"/>
      <point x="1233" y="1308"/>
      <point x="1129" y="1389" type="curve" smooth="yes"/>
      <point x="1024" y="1469"/>
      <point x="862" y="1517"/>
      <point x="653" y="1517" type="curve" smooth="yes"/>
      <point x="551" y="1517"/>
      <point x="373" y="1503"/>
      <point x="250" y="1484" type="curve"/>
      <point x="250" y="1262" type="line"/>
      <point x="28" y="0" type="line"/>
      <point x="360" y="0" type="line"/>
    </contour>
    <contour>
      <point x="571" y="1289" type="line"/>
      <point x="598" y="1291"/>
      <point x="613" y="1292"/>
      <point x="633" y="1292" type="curve"/>
      <point x="634" y="1292" type="line"/>
      <point x="635" y="1292" type="line"/>
      <point x="636" y="1292" type="line"/>
      <point x="637" y="1292" type="line"/>
      <point x="638" y="1292" type="line"/>
      <point x="639" y="1292" type="line"/>
      <point x="640" y="1292" type="line"/>
      <point x="641" y="1292" type="line"/>
      <point x="642" y="1292" type="line"/>
      <point x="642" y="1292" type="line"/>
      <point x="657" y="1292" type="line" smooth="yes"/>
      <point x="729" y="1292"/>
      <point x="806" y="1275"/>
      <point x="862" y="1240" type="curve" smooth="yes"/>
      <point x="918" y="1204"/>
      <point x="943" y="1156"/>
      <point x="943" y="1108" type="curve" smooth="yes"/>
      <point x="943" y="1098"/>
      <point x="942" y="1088"/>
      <point x="940" y="1078" type="curve" smooth="yes"/>
      <point x="905" y="888"/>
      <point x="783" y="824"/>
      <point x="503" y="813" type="curve"/>
      <point x="557" y="1121" type="line"/>
    </contour>
  </outline>
</glyph>
<glyph name="Sigma" format="2">
  <advance width="1300"/>
  <unicode hex="03A3"/>
  <outline>
    <contour>
      <point x="911" y="801" type="line"/>
      <point x="653" y="1200" type="line"/>
      <point x="540" y="1300" type="line"/>
      <point x="697" y="1283" type="line"/>
      <point x="1253" y="1283" type="line"/>
      <point x="1292" y="1500" type="line"/>
      <point x="267" y="1500" type="line"/>
      <point x="252" y="1284" type="line"/>
      <point x="574" y="810" type="line"/>
      <point x="754" y="750" type="line"/>
      <point x="553" y="690" type="line"/>
      <point x="63" y="216" type="line"/>
      <point x="3" y="0" type="line"/>
      <point x="1027" y="0" type="line"/>
      <point x="1066" y="217" type="line"/>
      <point x="510" y="217" type="line"/>
      <point x="347" y="200" type="line"/>
      <point x="494" y="300" type="line"/>
      <point x="894" y="699" type="line"/>
    </contour>
  </outline>
</glyph>
<glyph name="Phi" format="2">
  <advance width="1300"/>
  <unicode hex="03A6"/>
  <outline>
    <contour>
      <point x="345" y="0" type="line"/>
      <point x="686" y="0" type="line"/>
      <point x="722" y="204" type="line"/>
      <point x="751" y="211"/>
      <point x="779" y="216"/>
      <point x="806" y="224" type="curve"/>
      <point x="805" y="224" type="line"/>
      <point x="1066" y="300"/>
      <point x="1227" y="473"/>
      <point x="1276" y="750" type="curve" smooth="yes"/>
      <point x="1284" y="795"/>
      <point x="1288" y="838"/>
      <point x="1288" y="878" type="curve" smooth="yes"/>
      <point x="1288" y="959"/>
      <point x="1268" y="1037"/>
      <point x="1227" y="1110" type="curve" smooth="yes"/>
      <point x="1186" y="1183"/>
      <point x="1107" y="1239"/>
      <point x="989" y="1276" type="curve"/>
      <point x="990" y="1276" type="line"/>
      <point x="967" y="1284"/>
      <point x="942" y="1289"/>
      <point x="915" y="1296" type="curve"/>
      <point x="955" y="1520" type="line"/>
      <point x="610" y="1500" type="line"/>
      <point x="574" y="1296" type="line"/>
      <point x="545" y="1289"/>
      <point x="519" y="1284"/>
      <point x="492" y="1276" type="curve"/>
      <point x="493" y="1276" type="line"/>
      <point x="230" y="1201"/>
      <point x="71" y="1025"/>
      <point x="23" y="750" type="curve" smooth="yes"/>
      <point x="15" y="704"/>
      <point x="11" y="661"/>
      <point x="11" y="620" type="curve" smooth="yes"/>
      <point x="11" y="539"/>
      <point x="31" y="463"/>
      <point x="71" y="390" type="curve" smooth="yes"/>
      <point x="111" y="317"/>
      <point x="190" y="262"/>
      <point x="308" y="224" type="curve"/>
      <point x="307" y="224" type="line"/>
      <point x="319" y="220"/>
      <point x="331" y="217"/>
      <point x="343" y="214" type="curve"/>
      <point x="346" y="213"/>
      <point x="348" y="212"/>
      <point x="351" y="211" type="curve"/>
      <point x="353" y="211" type="line"/>
      <point x="355" y="210"/>
      <point x="357" y="210"/>
      <point x="359" y="210" type="curve"/>
      <point x="360" y="209" type="line"/>
      <point x="361" y="209" type="line"/>
      <point x="362" y="209" type="line"/>
      <point x="368" y="207"/>
      <point x="374" y="205"/>
      <point x="381" y="204" type="curve"/>
    </contour>
    <contour>
      <point x="873" y="1055" type="line"/>
      <point x="913" y="1031"/>
      <point x="945" y="995"/>
      <point x="965" y="945" type="curve" smooth="yes"/>
      <point x="984" y="895"/>
      <point x="983" y="851"/>
      <point x="983" y="836" type="curve" smooth="yes"/>
      <point x="983" y="809"/>
      <point x="980" y="781"/>
      <point x="975" y="750" type="curve"/>
      <point x="945" y="592"/>
      <point x="862" y="492"/>
      <point x="765" y="444" type="curve"/>
    </contour>
    <contour>
      <point x="424" y="445" type="line"/>
      <point x="383" y="468"/>
      <point x="354" y="499"/>
      <point x="339" y="539" type="curve" smooth="yes"/>
      <point x="323" y="579"/>
      <point x="315" y="619"/>
      <point x="315" y="658" type="curve" smooth="yes"/>
      <point x="315" y="686"/>
      <point x="318" y="717"/>
      <point x="324" y="750" type="curve" smooth="yes"/>
      <point x="352" y="910"/>
      <point x="432" y="1008"/>
      <point x="532" y="1055" type="curve"/>
    </contour>
  </outline>
</glyph>
<glyph name="Chi" format="2">
  <advance width="1300"/>
  <unicode hex="03A7"/>
  <outline>
    <contour>
      <point x="1197" y="0" type="line"/>
      <point x="880" y="855" type="line"/>
      <point x="1301" y="1500" type="line"/>
      <point x="1014" y="1500" type="line"/>
      <point x="849" y="1231" type="line"/>
      <point x="797" y="1050" type="line"/>
      <point x="616" y="1520" type="line"/>
      <point x="284" y="1500" type="line"/>
      <point x="553" y="824" type="line"/>
      <point x="31" y="0" type="line"/>
      <point x="353" y="0" type="line"/>
      <point x="603" y="427" type="line"/>
      <point x="643" y="613" type="line"/>
      <point x="857" y="0" type="line"/>
    </contour>
  </outline>
</glyph>
<glyph name="Psi" format="2">
  <advance width="1300"/>
  <unicode hex="03A8"/>
  <outline>
    <contour>
      <point x="540" y="1500" type="line"/>
      <point x="397" y="688" type="line"/>
      <point x="381" y="705"/>
      <point x="366" y="730"/>
      <point x="356" y="764" type="curve" smooth="yes"/>
      <point x="346" y="798"/>
      <point x="346" y="827"/>
      <point x="346" y="836" type="curve" smooth="yes"/>
      <point x="346" y="854"/>
      <point x="348" y="874"/>
      <point x="351" y="896" type="curve"/>
      <point x="461" y="1520" type="line"/>
      <point x="100" y="1500" type="line"/>
      <point x="100" y="1263" type="line"/>
      <point x="39" y="914" type="line" smooth="yes"/>
      <point x="30" y="864"/>
      <point x="26" y="818"/>
      <point x="26" y="776" type="curve" smooth="yes"/>
      <point x="26" y="755"/>
      <point x="28" y="725"/>
      <point x="33" y="688" type="curve"/>
      <point x="37" y="650"/>
      <point x="52" y="611"/>
      <point x="78" y="571" type="curve" smooth="yes"/>
      <point x="130" y="491"/>
      <point x="221" y="443"/>
      <point x="350" y="422" type="curve"/>
      <point x="276" y="1" type="line"/>
      <point x="618" y="1" type="line"/>
      <point x="692" y="422" type="line"/>
      <point x="952" y="457"/>
      <point x="1116" y="567"/>
      <point x="1169" y="867" type="curve" smooth="yes"/>
      <point x="1281" y="1500" type="line"/>
      <point x="964" y="1500" type="line"/>
      <point x="849" y="849" type="line" smooth="yes"/>
      <point x="831" y="746"/>
      <point x="779" y="695"/>
      <point x="736" y="671" type="curve"/>
      <point x="885" y="1520" type="line"/>
    </contour>
  </outline>
</glyph>
<glyph name="alpha" format="2">
  <advance width="1300"/>
  <unicode hex="03B1"/>
  <outline>
    <contour>
      <point x="1102" y="1120" type="line"/>
      <point x="1014" y="1084"/>
      <point x="950" y="1054"/>
      <point x="907" y="1025" type="curve"/>
      <point x="843" y="1094"/>
      <point x="774" y="1117"/>
      <point x="681" y="1117" type="curve" smooth="yes"/>
      <point x="343" y="1117"/>
      <point x="173" y="877"/>
      <point x="117" y="553" type="curve" smooth="yes"/>
      <point x="107" y="494"/>
      <point x="102" y="439"/>
      <point x="102" y="386" type="curve" smooth="yes"/>
      <point x="102" y="366"/>
      <point x="104" y="334"/>
      <point x="107" y="290" type="curve" smooth="yes"/>
      <point x="110" y="245"/>
      <point x="126" y="198"/>
      <point x="155" y="147" type="curve" smooth="yes"/>
      <point x="212" y="45"/>
      <point x="317" y="-17"/>
      <point x="481" y="-17" type="curve" smooth="yes"/>
      <point x="574" y="-17"/>
      <point x="647" y="-1"/>
      <point x="734" y="68" type="curve"/>
      <point x="785" y="11"/>
      <point x="863" y="-17"/>
      <point x="967" y="-17" type="curve" smooth="yes"/>
      <point x="1024" y="-17"/>
      <point x="1090" y="2"/>
      <point x="1166" y="35" type="curve"/>
      <point x="1121" y="203" type="line" name=".hr01"/>
      <point x="1098" y="196"/>
      <point x="1067" y="187" name=".hr02"/>
      <point x="1035" y="187" type="curve" smooth="yes"/>
      <point x="996" y="187"/>
      <point x="994" y="214"/>
      <point x="994" y="230" type="curve" smooth="yes"/>
      <point x="994" y="242"/>
      <point x="997" y="259"/>
      <point x="1002" y="291" type="curve" smooth="yes"/>
      <point x="1010" y="336"/>
      <point x="1025" y="419"/>
      <point x="1049" y="552" type="curve" smooth="yes"/>
      <point x="1072" y="684"/>
      <point x="1090" y="773"/>
      <point x="1102" y="829" type="curve"/>
      <point x="1114" y="879"/>
      <point x="1149" y="923"/>
      <point x="1208" y="962" type="curve"/>
    </contour>
    <contour>
      <point x="718" y="528" type="curve" smooth="yes"/>
      <point x="689" y="364"/>
      <point x="652" y="203" name=".hr03"/>
      <point x="524" y="203" type="curve" smooth="yes"/>
      <point x="490" y="203"/>
      <point x="465" y="214"/>
      <point x="450" y="235" type="curve" smooth="yes"/>
      <point x="418" y="278"/>
      <point x="420" y="329"/>
      <point x="420" y="356" type="curve" smooth="yes"/>
      <point x="420" y="405"/>
      <point x="430" y="479"/>
      <point x="446" y="571" type="curve" smooth="yes"/>
      <point x="475" y="736"/>
      <point x="510" y="897"/>
      <point x="639" y="897" type="curve" smooth="yes"/>
      <point x="673" y="897"/>
      <point x="698" y="886"/>
      <point x="714" y="865" type="curve"/>
      <point x="745" y="822"/>
      <point x="744" y="768"/>
      <point x="744" y="740" type="curve" smooth="yes"/>
      <point x="744" y="692"/>
      <point x="734" y="619"/>
    </contour>
  </outline>
</glyph>
<glyph name="gamma" format="2">
  <advance width="1300"/>
  <unicode hex="03B3"/>
  <outline>
    <contour>
      <point x="67" y="920" type="line"/>
      <point x="82" y="918"/>
      <point x="97" y="914"/>
      <point x="110" y="907" type="curve"/>
      <point x="133" y="896"/>
      <point x="158" y="874"/>
      <point x="166" y="834" type="curve" smooth="yes"/>
      <point x="323" y="-7" type="line"/>
      <point x="236" y="-500" type="line"/>
      <point x="564" y="-500" type="line"/>
      <point x="656" y="21" type="line"/>
      <point x="1246" y="1120" type="line"/>
      <point x="933" y="1100" type="line"/>
      <point x="684" y="643" type="line"/>
      <point x="530" y="220" type="line"/>
      <point x="525" y="641" type="line"/>
      <point x="470" y="927" type="line" smooth="yes"/>
      <point x="435" y="1108"/>
      <point x="252" y="1116"/>
      <point x="101" y="1116" type="curve"/>
    </contour>
  </outline>
</glyph>
<glyph name="eta" format="2">
  <advance width="1300"/>
  <unicode hex="03B7"/>
  <outline>
    <contour>
      <point x="601" y="841" type="line"/>
      <point x="665" y="878"/>
      <point x="736" y="917"/>
      <point x="782" y="917" type="curve" smooth="yes"/>
      <point x="811" y="917"/>
      <point x="828" y="909"/>
      <point x="833" y="892" type="curve"/>
      <point x="837" y="875"/>
      <point x="839" y="859"/>
      <point x="839" y="844" type="curve" smooth="yes"/>
      <point x="839" y="822"/>
      <point x="836" y="794"/>
      <point x="830" y="761" type="curve" smooth="yes"/>
      <point x="608" y="-500" type="line"/>
      <point x="934" y="-500" type="line"/>
      <point x="1152" y="736" type="line" smooth="yes"/>
      <point x="1159" y="779"/>
      <point x="1163" y="820"/>
      <point x="1163" y="857" type="curve" smooth="yes"/>
      <point x="1163" y="870"/>
      <point x="1162" y="891"/>
      <point x="1160" y="920" type="curve" smooth="yes"/>
      <point x="1158" y="949"/>
      <point x="1147" y="981"/>
      <point x="1126" y="1014" type="curve" smooth="yes"/>
      <point x="1084" y="1080"/>
      <point x="1006" y="1117"/>
      <point x="879" y="1117" type="curve" smooth="yes"/>
      <point x="796" y="1117"/>
      <point x="710" y="1094"/>
      <point x="641" y="1067" type="curve"/>
      <point x="650" y="1120" type="line"/>
      <point x="321" y="1100" type="line"/>
      <point x="127" y="0" type="line"/>
      <point x="453" y="0" type="line"/>
    </contour>
  </outline>
</glyph>
<glyph name="upsilon" format="2">
  <advance width="1300"/>
  <unicode hex="03C5"/>
  <outline>
    <contour>
      <point x="706" y="824" type="line" smooth="yes"/>
      <point x="709" y="843"/>
      <point x="711" y="862"/>
      <point x="711" y="879" type="curve" smooth="yes"/>
      <point x="711" y="924"/>
      <point x="701" y="984"/>
      <point x="653" y="1036" type="curve" smooth="yes"/>
      <point x="605" y="1087"/>
      <point x="529" y="1117"/>
      <point x="433" y="1117" type="curve" smooth="yes"/>
      <point x="246" y="1117"/>
      <point x="115" y="951"/>
      <point x="85" y="787" type="curve"/>
      <point x="300" y="787" type="line"/>
      <point x="313" y="862"/>
      <point x="342" y="907"/>
      <point x="366" y="907" type="curve" smooth="yes"/>
      <point x="386" y="907"/>
      <point x="386" y="879"/>
      <point x="386" y="866" type="curve" smooth="yes"/>
      <point x="386" y="854"/>
      <point x="385" y="840"/>
      <point x="382" y="824" type="curve" smooth="yes"/>
      <point x="311" y="424" type="line" smooth="yes"/>
      <point x="300" y="364"/>
      <point x="296" y="312" name=".hr01"/>
      <point x="296" y="281" type="curve" smooth="yes"/>
      <point x="296" y="246"/>
      <point x="297" y="195"/>
      <point x="324" y="136" type="curve" smooth="yes"/>
      <point x="364" y="47"/>
      <point x="463" y="-17"/>
      <point x="661" y="-17" type="curve" smooth="yes"/>
      <point x="1057" y="-17"/>
      <point x="1131" y="224"/>
      <point x="1163" y="401" type="curve" smooth="yes"/>
      <point x="1224" y="744" type="line" smooth="yes"/>
      <point x="1228" y="766"/>
      <point x="1230" y="787" name=".hr02"/>
      <point x="1230" y="807" type="curve" smooth="yes"/>
      <point x="1230" y="874"/>
      <point x="1208" y="953"/>
      <point x="1131" y="1018" type="curve" smooth="yes"/>
      <point x="1054" y="1082"/>
      <point x="934" y="1117"/>
      <point x="789" y="1117" type="curve"/>
      <point x="758" y="938" type="line"/>
      <point x="787" y="938"/>
      <point x="829" y="925"/>
      <point x="859" y="892" type="curve" smooth="yes"/>
      <point x="889" y="859"/>
      <point x="898" y="813"/>
      <point x="898" y="776" type="curve" smooth="yes"/>
      <point x="898" y="759"/>
      <point x="896" y="740"/>
      <point x="893" y="719" type="curve"/>
      <point x="839" y="409" type="line" smooth="yes"/>
      <point x="818" y="290"/>
      <point x="792" y="194"/>
      <point x="698" y="194" type="curve" smooth="yes"/>
      <point x="674" y="194"/>
      <point x="656" y="201"/>
      <point x="645" y="214" type="curve" smooth="yes"/>
      <point x="622" y="240"/>
      <point x="623" y="281" name=".hr03"/>
      <point x="623" y="301" type="curve" smooth="yes"/>
      <point x="623" y="341"/>
      <point x="630" y="400"/>
      <point x="649" y="500" type="curve"/>
    </contour>
  </outline>
</glyph>
<glyph name="phi" format="2">
  <advance width="1300"/>
  <unicode hex="03C6"/>
  <outline>
    <contour>
      <point x="590" y="1100" type="line"/>
      <point x="573" y="1005" type="line"/>
      <point x="313" y="949"/>
      <point x="65" y="774"/>
      <point x="17" y="503" type="curve" smooth="yes"/>
      <point x="12" y="474"/>
      <point x="9" y="446"/>
      <point x="9" y="419" type="curve" smooth="yes"/>
      <point x="9" y="343"/>
      <point x="31" y="249"/>
      <point x="104" y="165" type="curve" smooth="yes"/>
      <point x="176" y="80"/>
      <point x="283" y="25"/>
      <point x="396" y="2" type="curve"/>
      <point x="308" y="-500" type="line"/>
      <point x="636" y="-500" type="line"/>
      <point x="724" y="2" type="line"/>
      <point x="988" y="50"/>
      <point x="1234" y="229"/>
      <point x="1282" y="503" type="curve" smooth="yes"/>
      <point x="1287" y="533"/>
      <point x="1290" y="562" name=".hr01"/>
      <point x="1290" y="590" type="curve" smooth="yes"/>
      <point x="1290" y="663"/>
      <point x="1268" y="757"/>
      <point x="1195" y="841" type="curve" smooth="yes"/>
      <point x="1122" y="925"/>
      <point x="1013" y="980"/>
      <point x="901" y="1005" type="curve"/>
      <point x="921" y="1120" type="line"/>
    </contour>
    <contour>
      <point x="994" y="503" type="curve" smooth="yes"/>
      <point x="970" y="362"/>
      <point x="862" y="263"/>
      <point x="763" y="223" type="curve"/>
      <point x="862" y="782" type="line"/>
      <point x="905" y="763"/>
      <point x="945" y="729"/>
      <point x="970" y="682" type="curve" smooth="yes"/>
      <point x="995" y="634"/>
      <point x="999" y="588" name=".hr02"/>
      <point x="999" y="560" type="curve" smooth="yes"/>
      <point x="999" y="542"/>
      <point x="997" y="523"/>
    </contour>
    <contour>
      <point x="303" y="503" type="curve" smooth="yes"/>
      <point x="327" y="644"/>
      <point x="433" y="741"/>
      <point x="533" y="781" type="curve"/>
      <point x="435" y="224" type="line"/>
      <point x="392" y="244"/>
      <point x="353" y="279"/>
      <point x="328" y="326" type="curve" smooth="yes"/>
      <point x="303" y="373"/>
      <point x="298" y="419"/>
      <point x="298" y="448" type="curve" smooth="yes"/>
      <point x="298" y="465"/>
      <point x="300" y="484"/>
    </contour>
  </outline>
</glyph>
<glyph name="psi" format="2">
  <advance width="1300"/>
  <unicode hex="03C8"/>
  <outline>
    <contour>
      <point x="970" y="937" type="line" smooth="yes"/>
      <point x="966" y="915"/>
      <point x="962" y="890"/>
      <point x="957" y="863" type="curve" smooth="yes"/>
      <point x="948" y="815"/>
      <point x="936" y="747"/>
      <point x="921" y="662" type="curve" smooth="yes"/>
      <point x="893" y="499" type="line" smooth="yes"/>
      <point x="867" y="351"/>
      <point x="826" y="210"/>
      <point x="736" y="194" type="curve"/>
      <point x="898" y="1120" type="line"/>
      <point x="568" y="1100" type="line"/>
      <point x="409" y="199" type="line"/>
      <point x="391" y="207"/>
      <point x="378" y="221"/>
      <point x="369" y="240" type="curve" smooth="yes"/>
      <point x="352" y="278"/>
      <point x="353" y="316"/>
      <point x="353" y="335" type="curve" smooth="yes"/>
      <point x="353" y="374"/>
      <point x="359" y="430"/>
      <point x="371" y="499" type="curve" smooth="yes"/>
      <point x="432" y="844" type="line"/>
      <point x="100" y="812" type="line"/>
      <point x="44" y="497" type="line" smooth="yes"/>
      <point x="35" y="445"/>
      <point x="26" y="382"/>
      <point x="26" y="333" type="curve" smooth="yes"/>
      <point x="26" y="310"/>
      <point x="25" y="261"/>
      <point x="47" y="188" type="curve" smooth="yes"/>
      <point x="79" y="81"/>
      <point x="172" y="-9"/>
      <point x="371" y="-17" type="curve"/>
      <point x="286" y="-500" type="line"/>
      <point x="614" y="-500" type="line"/>
      <point x="699" y="-17" type="line"/>
      <point x="1118" y="-9"/>
      <point x="1190" y="341"/>
      <point x="1218" y="497" type="curve" smooth="yes"/>
      <point x="1252" y="687" type="line" smooth="yes"/>
      <point x="1265" y="762"/>
      <point x="1274" y="825" name=".hr01"/>
      <point x="1274" y="873" type="curve" smooth="yes"/>
      <point x="1274" y="890"/>
      <point x="1276" y="933"/>
      <point x="1258" y="986" type="curve" smooth="yes"/>
      <point x="1231" y="1064"/>
      <point x="1153" y="1115"/>
      <point x="1001" y="1117" type="curve"/>
    </contour>
  </outline>
</glyph>
<glyph name="omega" format="2">
  <advance width="1300"/>
  <unicode hex="03C9"/>
  <outline>
    <contour>
      <point x="560" y="778" type="line"/>
      <point x="508" y="487" type="line"/>
      <point x="481" y="330"/>
      <point x="435" y="195"/>
      <point x="375" y="195" type="curve" smooth="yes"/>
      <point x="338" y="195"/>
      <point x="327" y="230"/>
      <point x="327" y="282" type="curve" smooth="yes"/>
      <point x="327" y="285"/>
      <point x="327" y="294"/>
      <point x="328" y="310" type="curve"/>
      <point x="328" y="342"/>
      <point x="343" y="432"/>
      <point x="360" y="531" type="curve" smooth="yes"/>
      <point x="416" y="847"/>
      <point x="568" y="940"/>
      <point x="627" y="940" type="curve"/>
      <point x="658" y="1117" type="line"/>
      <point x="370" y="1117"/>
      <point x="91" y="859"/>
      <point x="39" y="559" type="curve" smooth="yes"/>
      <point x="22" y="463" type="line" smooth="yes"/>
      <point x="9" y="390"/>
      <point x="2" y="328"/>
      <point x="2" y="284" type="curve" smooth="yes"/>
      <point x="2" y="255"/>
      <point x="2" y="203"/>
      <point x="26" y="141" type="curve" smooth="yes"/>
      <point x="62" y="49"/>
      <point x="153" y="-17"/>
      <point x="338" y="-17" type="curve" smooth="yes"/>
      <point x="441" y="-17"/>
      <point x="517" y="10"/>
      <point x="572" y="47" type="curve"/>
      <point x="615" y="7"/>
      <point x="677" y="-17"/>
      <point x="785" y="-17" type="curve" smooth="yes"/>
      <point x="1161" y="-17"/>
      <point x="1230" y="242"/>
      <point x="1270" y="463" type="curve" smooth="yes"/>
      <point x="1287" y="559" type="line" smooth="yes"/>
      <point x="1293" y="592"/>
      <point x="1296" y="625"/>
      <point x="1296" y="656" type="curve" smooth="yes"/>
      <point x="1296" y="696"/>
      <point x="1290" y="742"/>
      <point x="1277" y="795" type="curve" smooth="yes"/>
      <point x="1264" y="848"/>
      <point x="1237" y="900"/>
      <point x="1198" y="951" type="curve" smooth="yes"/>
      <point x="1119" y="1053"/>
      <point x="998" y="1117"/>
      <point x="854" y="1117" type="curve"/>
      <point x="823" y="940" type="line"/>
      <point x="852" y="940"/>
      <point x="899" y="917"/>
      <point x="932" y="854" type="curve" smooth="yes"/>
      <point x="949" y="823"/>
      <point x="959" y="790"/>
      <point x="964" y="755" type="curve"/>
      <point x="968" y="720"/>
      <point x="970" y="693"/>
      <point x="970" y="673" type="curve" smooth="yes"/>
      <point x="970" y="632"/>
      <point x="965" y="584"/>
      <point x="956" y="531" type="curve" smooth="yes"/>
      <point x="922" y="335"/>
      <point x="896" y="195"/>
      <point x="822" y="195" type="curve" smooth="yes"/>
      <point x="774" y="195"/>
      <point x="773" y="283"/>
      <point x="773" y="314" type="curve" smooth="yes"/>
      <point x="773" y="351"/>
      <point x="778" y="408"/>
      <point x="791" y="487" type="curve"/>
      <point x="837" y="744" type="line"/>
    </contour>
  </outline>
</glyph>
<glyph name="uni03D1" format="2">
  <advance width="1300"/>
  <unicode hex="03D1"/>
  <outline>
    <contour>
      <point x="3" y="400" type="line"/>
      <point x="30" y="162"/>
      <point x="154" y="-17"/>
      <point x="422" y="-17" type="curve" smooth="yes"/>
      <point x="792" y="-17"/>
      <point x="969" y="296"/>
      <point x="1057" y="606" type="curve"/>
      <point x="1227" y="606" type="line"/>
      <point x="1292" y="820" type="line"/>
      <point x="1098" y="820" type="line"/>
      <point x="1103" y="862"/>
      <point x="1105" y="905"/>
      <point x="1105" y="948" type="curve" smooth="yes"/>
      <point x="1105" y="960"/>
      <point x="1105" y="983"/>
      <point x="1104" y="1017" type="curve" smooth="yes"/>
      <point x="1103" y="1051"/>
      <point x="1096" y="1094"/>
      <point x="1085" y="1146" type="curve" smooth="yes"/>
      <point x="1074" y="1197"/>
      <point x="1057" y="1246"/>
      <point x="1036" y="1291" type="curve" smooth="yes"/>
      <point x="971" y="1424"/>
      <point x="857" y="1517"/>
      <point x="683" y="1517" type="curve" smooth="yes"/>
      <point x="334" y="1517"/>
      <point x="97" y="1202"/>
      <point x="53" y="951" type="curve" smooth="yes"/>
      <point x="47" y="918"/>
      <point x="44" y="889"/>
      <point x="44" y="862" type="curve" smooth="yes"/>
      <point x="44" y="849"/>
      <point x="46" y="830"/>
      <point x="49" y="806" type="curve" smooth="yes"/>
      <point x="55" y="758"/>
      <point x="86" y="701"/>
      <point x="134" y="669" type="curve" smooth="yes"/>
      <point x="207" y="619"/>
      <point x="310" y="606"/>
      <point x="429" y="606" type="curve" smooth="yes"/>
      <point x="756" y="606" type="line"/>
      <point x="695" y="383"/>
      <point x="576" y="210"/>
      <point x="452" y="210" type="curve" smooth="yes"/>
      <point x="332" y="210"/>
      <point x="263" y="336"/>
      <point x="255" y="529" type="curve"/>
    </contour>
    <contour>
      <point x="643" y="1290" type="curve" smooth="yes"/>
      <point x="710" y="1290"/>
      <point x="754" y="1230"/>
      <point x="779" y="1142" type="curve" smooth="yes"/>
      <point x="803" y="1053"/>
      <point x="802" y="972"/>
      <point x="802" y="935" type="curve" smooth="yes"/>
      <point x="802" y="897"/>
      <point x="800" y="859"/>
      <point x="797" y="820" type="curve"/>
      <point x="560" y="820" type="line" smooth="yes"/>
      <point x="489" y="820"/>
      <point x="427" y="820"/>
      <point x="384" y="836" type="curve" smooth="yes"/>
      <point x="341" y="851"/>
      <point x="327" y="879"/>
      <point x="327" y="914" type="curve" smooth="yes"/>
      <point x="327" y="923"/>
      <point x="328" y="932"/>
      <point x="330" y="943" type="curve" smooth="yes"/>
      <point x="357" y="1100"/>
      <point x="503" y="1290"/>
    </contour>
  </outline>
</glyph>
<glyph name="uni03D5" format="2">
  <advance width="1300"/>
  <unicode hex="03D5"/>
  <outline>
    <contour>
      <point x="387" y="943" type="line"/>
      <point x="254" y="879"/>
      <point x="70" y="743"/>
      <point x="27" y="499" type="curve"/>
      <point x="22" y="466"/>
      <point x="19" y="435"/>
      <point x="19" y="406" type="curve" smooth="yes"/>
      <point x="19" y="338"/>
      <point x="33" y="248"/>
      <point x="101" y="167" type="curve" smooth="yes"/>
      <point x="169" y="86"/>
      <point x="274" y="32"/>
      <point x="398" y="7" type="curve"/>
      <point x="308" y="-500" type="line"/>
      <point x="636" y="-500" type="line"/>
      <point x="726" y="7" type="line"/>
      <point x="987" y="55"/>
      <point x="1224" y="217"/>
      <point x="1272" y="499" type="curve" smooth="yes"/>
      <point x="1277" y="526"/>
      <point x="1279" y="553" name=".hr01"/>
      <point x="1279" y="579" type="curve" smooth="yes"/>
      <point x="1279" y="655"/>
      <point x="1257" y="755"/>
      <point x="1178" y="841" type="curve" smooth="yes"/>
      <point x="1098" y="927"/>
      <point x="980" y="979"/>
      <point x="845" y="979" type="curve" smooth="yes"/>
      <point x="718" y="979"/>
      <point x="561" y="941"/>
      <point x="534" y="781" type="curve"/>
      <point x="437" y="230" type="line"/>
      <point x="397" y="251"/>
      <point x="360" y="282"/>
      <point x="336" y="328" type="curve" smooth="yes"/>
      <point x="312" y="374"/>
      <point x="310" y="420" name=".hr02"/>
      <point x="310" y="444" type="curve" smooth="yes"/>
      <point x="310" y="467"/>
      <point x="312" y="492"/>
      <point x="317" y="519" type="curve" smooth="yes"/>
      <point x="344" y="672"/>
      <point x="416" y="743"/>
      <point x="485" y="780" type="curve"/>
    </contour>
    <contour>
      <point x="998" y="519" type="curve" smooth="yes"/>
      <point x="969" y="352"/>
      <point x="860" y="272"/>
      <point x="764" y="229" type="curve"/>
      <point x="856" y="750" type="line"/>
      <point x="859" y="763"/>
      <point x="865" y="790"/>
      <point x="892" y="790" type="curve" smooth="yes"/>
      <point x="911" y="790"/>
      <point x="945" y="765"/>
      <point x="971" y="718" type="curve" smooth="yes"/>
      <point x="997" y="671"/>
      <point x="1004" y="618"/>
      <point x="1004" y="583" type="curve" smooth="yes"/>
      <point x="1004" y="563"/>
      <point x="1002" y="542"/>
    </contour>
  </outline>
</glyph>
<glyph name="uni03D6" format="2">
  <advance width="1300"/>
  <unicode hex="03D6"/>
  <outline>
    <contour>
      <point x="1367" y="1100" type="line"/>
      <point x="137" y="1100" type="line"/>
      <point x="71" y="878" type="line"/>
      <point x="158" y="878" type="line"/>
      <point x="154" y="875" type="line"/>
      <point x="99" y="801"/>
      <point x="39" y="715"/>
      <point x="2" y="499" type="curve" smooth="yes"/>
      <point x="-6" y="451" type="line" smooth="yes"/>
      <point x="-17" y="392"/>
      <point x="-23" y="335"/>
      <point x="-23" y="292" type="curve" smooth="yes"/>
      <point x="-23" y="265"/>
      <point x="-24" y="216"/>
      <point x="-1" y="152" type="curve" smooth="yes"/>
      <point x="32" y="56"/>
      <point x="123" y="-17"/>
      <point x="312" y="-17" type="curve" smooth="yes"/>
      <point x="424" y="-17"/>
      <point x="493" y="7"/>
      <point x="545" y="44" type="curve"/>
      <point x="584" y="7"/>
      <point x="647" y="-17"/>
      <point x="758" y="-17" type="curve" smooth="yes"/>
      <point x="1139" y="-17"/>
      <point x="1210" y="276"/>
      <point x="1242" y="451" type="curve"/>
      <point x="1250" y="499" type="line" smooth="yes"/>
      <point x="1269" y="607"/>
      <point x="1268" y="655"/>
      <point x="1268" y="683" type="curve" smooth="yes"/>
      <point x="1268" y="704"/>
      <point x="1267" y="726"/>
      <point x="1265" y="749" type="curve" smooth="yes"/>
      <point x="1260" y="796"/>
      <point x="1245" y="838"/>
      <point x="1230" y="875" type="curve"/>
      <point x="1228" y="878" type="line"/>
      <point x="1300" y="878" type="line"/>
    </contour>
    <contour>
      <point x="533" y="778" type="line"/>
      <point x="479" y="470" type="line"/>
      <point x="452" y="321"/>
      <point x="410" y="195"/>
      <point x="349" y="195" type="curve" smooth="yes"/>
      <point x="283" y="195"/>
      <point x="299" y="342"/>
      <point x="328" y="501" type="curve" smooth="yes"/>
      <point x="371" y="736"/>
      <point x="421" y="832"/>
      <point x="464" y="878" type="curve"/>
      <point x="921" y="878" type="line"/>
      <point x="928" y="867"/>
      <point x="934" y="852"/>
      <point x="939" y="833" type="curve" smooth="yes"/>
      <point x="949" y="796"/>
      <point x="949" y="753"/>
      <point x="949" y="734" type="curve" smooth="yes"/>
      <point x="949" y="686"/>
      <point x="945" y="618"/>
      <point x="924" y="501" type="curve" smooth="yes"/>
      <point x="895" y="342"/>
      <point x="861" y="195"/>
      <point x="795" y="195" type="curve" smooth="yes"/>
      <point x="746" y="195"/>
      <point x="746" y="278"/>
      <point x="746" y="305" type="curve" smooth="yes"/>
      <point x="746" y="341"/>
      <point x="750" y="395"/>
      <point x="763" y="470" type="curve" smooth="yes"/>
      <point x="811" y="744" type="line"/>
    </contour>
  </outline>
</glyph>
<glyph name="quotesinglbase" format="2">
  <advance width="1300"/>
  <unicode hex="201A"/>
  <outline>
    <contour>
      <point x="225" y="121" type="curve" smooth="yes"/>
      <point x="223" y="110"/>
      <point x="222" y="99"/>
      <point x="222" y="90" type="curve" smooth="yes"/>
      <point x="222" y="74"/>
      <point x="225" y="50"/>
      <point x="241" y="29" type="curve"/>
      <point x="256" y="8"/>
      <point x="280" y="-6"/>
      <point x="304" y="-17" type="curve"/>
      <point x="283" y="-81"/>
      <point x="238" y="-159"/>
      <point x="200" y="-208" type="curve"/>
      <point x="292" y="-266" type="line"/>
      <point x="476" y="-117"/>
      <point x="531" y="23"/>
      <point x="547" y="121" type="curve"/>
      <point x="549" y="130"/>
      <point x="550" y="138"/>
      <point x="550" y="147" type="curve" smooth="yes"/>
      <point x="550" y="170"/>
      <point x="543" y="201"/>
      <point x="519" y="229" type="curve" smooth="yes"/>
      <point x="494" y="257"/>
      <point x="455" y="275"/>
      <point x="410" y="275" type="curve" smooth="yes"/>
      <point x="317" y="275"/>
      <point x="241" y="204"/>
    </contour>
  </outline>
</glyph>
<glyph name="quotedblleft" format="2">
  <advance width="1300"/>
  <unicode hex="201C"/>
  <outline>
    <contour>
      <point x="375" y="1079" type="curve" smooth="yes"/>
      <point x="377" y="1090"/>
      <point x="378" y="1101"/>
      <point x="378" y="1110" type="curve" smooth="yes"/>
      <point x="378" y="1126"/>
      <point x="375" y="1150"/>
      <point x="360" y="1171" type="curve"/>
      <point x="344" y="1192"/>
      <point x="320" y="1206"/>
      <point x="296" y="1217" type="curve"/>
      <point x="317" y="1281"/>
      <point x="362" y="1359"/>
      <point x="400" y="1408" type="curve"/>
      <point x="308" y="1466" type="line"/>
      <point x="124" y="1317"/>
      <point x="69" y="1177"/>
      <point x="53" y="1079" type="curve"/>
      <point x="51" y="1070"/>
      <point x="50" y="1062"/>
      <point x="50" y="1053" type="curve" smooth="yes"/>
      <point x="50" y="1030"/>
      <point x="57" y="999"/>
      <point x="82" y="971" type="curve" smooth="yes"/>
      <point x="106" y="943"/>
      <point x="145" y="925"/>
      <point x="190" y="925" type="curve" smooth="yes"/>
      <point x="283" y="925"/>
      <point x="359" y="996"/>
    </contour>
    <contour>
      <point x="775" y="1079" type="curve" smooth="yes"/>
      <point x="777" y="1090"/>
      <point x="778" y="1101"/>
      <point x="778" y="1110" type="curve" smooth="yes"/>
      <point x="778" y="1126"/>
      <point x="775" y="1150"/>
      <point x="760" y="1171" type="curve"/>
      <point x="744" y="1192"/>
      <point x="720" y="1206"/>
      <point x="696" y="1217" type="curve"/>
      <point x="717" y="1281"/>
      <point x="762" y="1359"/>
      <point x="800" y="1408" type="curve"/>
      <point x="708" y="1466" type="line"/>
      <point x="524" y="1317"/>
      <point x="469" y="1177"/>
      <point x="453" y="1079" type="curve"/>
      <point x="451" y="1070"/>
      <point x="450" y="1062"/>
      <point x="450" y="1053" type="curve" smooth="yes"/>
      <point x="450" y="1030"/>
      <point x="457" y="999"/>
      <point x="482" y="971" type="curve" smooth="yes"/>
      <point x="506" y="943"/>
      <point x="545" y="925"/>
      <point x="590" y="925" type="curve" smooth="yes"/>
      <point x="683" y="925"/>
      <point x="759" y="996"/>
    </contour>
  </outline>
</glyph>
<glyph name="quotedblright" format="2">
  <advance width="1300"/>
  <unicode hex="201D"/>
  <outline>
    <contour>
      <point x="225" y="1321" type="curve" smooth="yes"/>
      <point x="223" y="1310"/>
      <point x="222" y="1299"/>
      <point x="222" y="1290" type="curve" smooth="yes"/>
      <point x="222" y="1274"/>
      <point x="225" y="1250"/>
      <point x="241" y="1229" type="curve"/>
      <point x="256" y="1208"/>
      <point x="280" y="1194"/>
      <point x="304" y="1183" type="curve"/>
      <point x="283" y="1119"/>
      <point x="238" y="1041"/>
      <point x="200" y="992" type="curve"/>
      <point x="292" y="934" type="line"/>
      <point x="476" y="1083"/>
      <point x="531" y="1223"/>
      <point x="547" y="1321" type="curve"/>
      <point x="549" y="1330"/>
      <point x="550" y="1338"/>
      <point x="550" y="1347" type="curve" smooth="yes"/>
      <point x="550" y="1370"/>
      <point x="543" y="1401"/>
      <point x="519" y="1429" type="curve" smooth="yes"/>
      <point x="494" y="1457"/>
      <point x="455" y="1475"/>
      <point x="410" y="1475" type="curve" smooth="yes"/>
      <point x="317" y="1475"/>
      <point x="241" y="1404"/>
    </contour>
    <contour>
      <point x="625" y="1321" type="curve" smooth="yes"/>
      <point x="623" y="1310"/>
      <point x="622" y="1299"/>
      <point x="622" y="1290" type="curve" smooth="yes"/>
      <point x="622" y="1274"/>
      <point x="625" y="1250"/>
      <point x="641" y="1229" type="curve"/>
      <point x="656" y="1208"/>
      <point x="680" y="1194"/>
      <point x="704" y="1183" type="curve"/>
      <point x="683" y="1119"/>
      <point x="638" y="1041"/>
      <point x="600" y="992" type="curve"/>
      <point x="692" y="934" type="line"/>
      <point x="876" y="1083"/>
      <point x="931" y="1223"/>
      <point x="947" y="1321" type="curve"/>
      <point x="949" y="1330"/>
      <point x="950" y="1338"/>
      <point x="950" y="1347" type="curve" smooth="yes"/>
      <point x="950" y="1370"/>
      <point x="943" y="1401"/>
      <point x="919" y="1429" type="curve" smooth="yes"/>
      <point x="894" y="1457"/>
      <point x="855" y="1475"/>
      <point x="810" y="1475" type="curve" smooth="yes"/>
      <point x="717" y="1475"/>
      <point x="641" y="1404"/>
    </contour>
  </outline>
</glyph>
<glyph name="minute" format="2">
  <advance width="1300"/>
  <unicode hex="2032"/>
  <outline>
    <contour>
      <point x="532" y="1500" type="line"/>
      <point x="285" y="1520" type="line"/>
      <point x="235" y="1232" type="line"/>
      <point x="110" y="885" type="line"/>
      <point x="263" y="885" type="line"/>
      <point x="484" y="1230" type="line"/>
    </contour>
  </outline>
</glyph>
<glyph name="uni207B" format="2">
  <advance width="1300"/>
  <unicode hex="207B"/>
  <outline>
    <contour>
      <point x="190" y="958" type="line"/>
      <point x="640" y="958" type="line"/>
      <point x="659" y="1070" type="line"/>
      <point x="209" y="1070" type="line"/>
    </contour>
  </outline>
</glyph>
<glyph name="uni207D" format="2">
  <advance width="1300"/>
  <unicode hex="207D"/>
  <outline>
    <contour>
      <point x="125" y="736" type="line" smooth="yes"/>
      <point x="114" y="673"/>
      <point x="115" y="644"/>
      <point x="115" y="636" type="curve" smooth="yes"/>
      <point x="115" y="568"/>
      <point x="140" y="507"/>
      <point x="255" y="507" type="curve" smooth="yes"/>
      <point x="289" y="507"/>
      <point x="333" y="518"/>
      <point x="366" y="534" type="curve"/>
      <point x="327" y="594" type="line"/>
      <point x="318" y="594"/>
      <point x="301" y="595"/>
      <point x="289" y="608" type="curve"/>
      <point x="277" y="620"/>
      <point x="274" y="641"/>
      <point x="274" y="656" type="curve" smooth="yes"/>
      <point x="274" y="667"/>
      <point x="275" y="679"/>
      <point x="278" y="694" type="curve" smooth="yes"/>
      <point x="391" y="1330" type="line"/>
      <point x="407" y="1426"/>
      <point x="455" y="1432"/>
      <point x="479" y="1432" type="curve"/>
      <point x="534" y="1489" type="line"/>
      <point x="510" y="1507"/>
      <point x="465" y="1517"/>
      <point x="433" y="1517" type="curve" smooth="yes"/>
      <point x="281" y="1517"/>
      <point x="246" y="1420"/>
      <point x="224" y="1296" type="curve" smooth="yes"/>
    </contour>
  </outline>
</glyph>
<glyph name="uni207E" format="2">
  <advance width="1300"/>
  <unicode hex="207E"/>
  <outline>
    <contour>
      <point x="511" y="1296" type="line" smooth="yes"/>
      <point x="522" y="1357"/>
      <point x="521" y="1386"/>
      <point x="521" y="1393" type="curve" smooth="yes"/>
      <point x="521" y="1460"/>
      <point x="494" y="1517"/>
      <point x="380" y="1517" type="curve" smooth="yes"/>
      <point x="347" y="1517"/>
      <point x="298" y="1507"/>
      <point x="269" y="1489" type="curve"/>
      <point x="304" y="1432" type="line"/>
      <point x="316" y="1432"/>
      <point x="333" y="1430"/>
      <point x="345" y="1417" type="curve" smooth="yes"/>
      <point x="357" y="1404"/>
      <point x="360" y="1381"/>
      <point x="360" y="1368" type="curve" smooth="yes"/>
      <point x="360" y="1357"/>
      <point x="359" y="1345"/>
      <point x="356" y="1330" type="curve" smooth="yes"/>
      <point x="244" y="694" type="line"/>
      <point x="226" y="596"/>
      <point x="179" y="594"/>
      <point x="160" y="594" type="curve"/>
      <point x="100" y="534" type="line"/>
      <point x="126" y="517"/>
      <point x="168" y="507"/>
      <point x="201" y="507" type="curve" smooth="yes"/>
      <point x="355" y="507"/>
      <point x="388" y="611"/>
      <point x="412" y="736" type="curve"/>
    </contour>
  </outline>
</glyph>
<glyph name="uni207F" format="2">
  <advance width="1300"/>
  <unicode hex="207F"/>
  <outline>
    <contour>
      <point x="376" y="1124" type="line"/>
      <point x="407" y="1152"/>
      <point x="437" y="1166"/>
      <point x="478" y="1166" type="curve" smooth="yes"/>
      <point x="521" y="1166"/>
      <point x="539" y="1135"/>
      <point x="539" y="1107" type="curve" smooth="yes"/>
      <point x="539" y="1101"/>
      <point x="538" y="1095"/>
      <point x="537" y="1088" type="curve"/>
      <point x="472" y="720" type="line"/>
      <point x="631" y="720" type="line"/>
      <point x="695" y="1088" type="line" smooth="yes"/>
      <point x="698" y="1103"/>
      <point x="699" y="1118"/>
      <point x="699" y="1132" type="curve" smooth="yes"/>
      <point x="699" y="1156"/>
      <point x="696" y="1194"/>
      <point x="668" y="1227" type="curve" smooth="yes"/>
      <point x="640" y="1259"/>
      <point x="594" y="1278"/>
      <point x="533" y="1278" type="curve" smooth="yes"/>
      <point x="494" y="1278"/>
      <point x="467" y="1277"/>
      <point x="440" y="1270" type="curve"/>
      <point x="393" y="1220" type="line"/>
      <point x="403" y="1280" type="line"/>
      <point x="243" y="1270" type="line"/>
      <point x="146" y="720" type="line"/>
      <point x="305" y="720" type="line"/>
    </contour>
  </outline>
</glyph>
<glyph name="uni2081" format="2">
  <advance width="1300"/>
  <unicode hex="2081"/>
  <outline>
    <contour>
      <point x="360" y="-400" type="line"/>
      <point x="238" y="-400" type="line"/>
      <point x="220" y="-500" type="line"/>
      <point x="629" y="-500" type="line"/>
      <point x="647" y="-400" type="line"/>
      <point x="525" y="-400" type="line"/>
      <point x="640" y="250" type="line"/>
      <point x="520" y="260" type="line"/>
      <point x="241" y="41" type="line"/>
      <point x="303" y="-51" type="line"/>
      <point x="351" y="-14" type="line"/>
      <point x="489" y="121" type="line"/>
      <point x="420" y="-60" type="line"/>
    </contour>
  </outline>
</glyph>
<glyph name="uni2082" format="2">
  <advance width="1300"/>
  <unicode hex="2082"/>
  <outline>
    <contour>
      <point x="628" y="-500" type="line"/>
      <point x="645" y="-400" type="line"/>
      <point x="324" y="-400" type="line"/>
      <point x="361" y="-360"/>
      <point x="458" y="-271"/>
      <point x="539" y="-190" type="curve" smooth="yes"/>
      <point x="619" y="-110"/>
      <point x="695" y="-50"/>
      <point x="711" y="43" type="curve" smooth="yes"/>
      <point x="713" y="54"/>
      <point x="714" y="65"/>
      <point x="714" y="76" type="curve" smooth="yes"/>
      <point x="714" y="107"/>
      <point x="707" y="150"/>
      <point x="674" y="191" type="curve" smooth="yes"/>
      <point x="641" y="231"/>
      <point x="585" y="258"/>
      <point x="509" y="258" type="curve" smooth="yes"/>
      <point x="381" y="258"/>
      <point x="284" y="194"/>
      <point x="229" y="91" type="curve"/>
      <point x="338" y="48" type="line"/>
      <point x="381" y="111"/>
      <point x="428" y="150"/>
      <point x="483" y="150" type="curve" smooth="yes"/>
      <point x="542" y="150"/>
      <point x="555" y="90"/>
      <point x="555" y="69" type="curve" smooth="yes"/>
      <point x="555" y="62"/>
      <point x="554" y="55"/>
      <point x="553" y="48" type="curve"/>
      <point x="542" y="-14"/>
      <point x="513" y="-36"/>
      <point x="426" y="-113" type="curve" smooth="yes"/>
      <point x="352" y="-179"/>
      <point x="218" y="-307"/>
      <point x="139" y="-405" type="curve"/>
      <point x="123" y="-500" type="line"/>
    </contour>
  </outline>
</glyph>
<glyph name="uni2086" format="2">
  <advance width="1300"/>
  <unicode hex="2086"/>
  <outline>
    <contour>
      <point x="702" y="241" type="line"/>
      <point x="670" y="250"/>
      <point x="648" y="250"/>
      <point x="636" y="250" type="curve" smooth="yes"/>
      <point x="389" y="250"/>
      <point x="194" y="42"/>
      <point x="154" y="-195" type="curve"/>
      <point x="147" y="-232"/>
      <point x="148" y="-262"/>
      <point x="148" y="-267" type="curve" smooth="yes"/>
      <point x="148" y="-368"/>
      <point x="193" y="-517"/>
      <point x="373" y="-517" type="curve" smooth="yes"/>
      <point x="538" y="-517"/>
      <point x="670" y="-394"/>
      <point x="697" y="-246" type="curve" smooth="yes"/>
      <point x="700" y="-230"/>
      <point x="701" y="-215"/>
      <point x="701" y="-200" type="curve" smooth="yes"/>
      <point x="701" y="-163"/>
      <point x="690" y="-116"/>
      <point x="650" y="-81" type="curve" smooth="yes"/>
      <point x="609" y="-46"/>
      <point x="549" y="-30"/>
      <point x="484" y="-30" type="curve" smooth="yes"/>
      <point x="469" y="-30"/>
      <point x="452" y="-32"/>
      <point x="433" y="-36" type="curve"/>
      <point x="337" y="-108" type="line"/>
      <point x="390" y="49"/>
      <point x="520" y="142"/>
      <point x="612" y="142" type="curve" smooth="yes"/>
      <point x="628" y="142"/>
      <point x="650" y="141"/>
      <point x="666" y="132" type="curve"/>
    </contour>
    <contour>
      <point x="460" y="-130" type="curve" smooth="yes"/>
      <point x="485" y="-130"/>
      <point x="505" y="-144"/>
      <point x="517" y="-165" type="curve" smooth="yes"/>
      <point x="529" y="-186"/>
      <point x="530" y="-209"/>
      <point x="530" y="-222" type="curve" smooth="yes"/>
      <point x="530" y="-231"/>
      <point x="529" y="-241"/>
      <point x="528" y="-250" type="curve"/>
      <point x="515" y="-325"/>
      <point x="466" y="-408"/>
      <point x="394" y="-408" type="curve" smooth="yes"/>
      <point x="345" y="-408"/>
      <point x="319" y="-354"/>
      <point x="314" y="-291" type="curve"/>
      <point x="311" y="-265"/>
      <point x="312" y="-241"/>
      <point x="320" y="-208" type="curve"/>
      <point x="353" y="-175"/>
      <point x="410" y="-130"/>
    </contour>
  </outline>
</glyph>
<glyph name="uni2089" format="2">
  <advance width="1300"/>
  <unicode hex="2089"/>
  <outline>
    <contour>
      <point x="194" y="-500" type="line"/>
      <point x="460" y="-479"/>
      <point x="649" y="-291"/>
      <point x="689" y="-55" type="curve"/>
      <point x="697" y="-15"/>
      <point x="696" y="13"/>
      <point x="696" y="20" type="curve" smooth="yes"/>
      <point x="696" y="123"/>
      <point x="654" y="267"/>
      <point x="469" y="267" type="curve" smooth="yes"/>
      <point x="306" y="267"/>
      <point x="179" y="166"/>
      <point x="155" y="17" type="curve" smooth="yes"/>
      <point x="152" y="1"/>
      <point x="151" y="-14"/>
      <point x="151" y="-28" type="curve" smooth="yes"/>
      <point x="151" y="-65"/>
      <point x="160" y="-114"/>
      <point x="200" y="-155" type="curve" smooth="yes"/>
      <point x="239" y="-196"/>
      <point x="300" y="-219"/>
      <point x="372" y="-219" type="curve" smooth="yes"/>
      <point x="384" y="-219"/>
      <point x="395" y="-218"/>
      <point x="406" y="-217" type="curve"/>
      <point x="508" y="-141" type="line"/>
      <point x="484" y="-264"/>
      <point x="332" y="-387"/>
      <point x="194" y="-391" type="curve"/>
    </contour>
    <contour>
      <point x="396" y="-111" type="curve" smooth="yes"/>
      <point x="364" y="-111"/>
      <point x="343" y="-94"/>
      <point x="331" y="-69" type="curve"/>
      <point x="318" y="-44"/>
      <point x="318" y="-20"/>
      <point x="318" y="-9" type="curve" smooth="yes"/>
      <point x="318" y="2"/>
      <point x="319" y="14"/>
      <point x="321" y="26" type="curve" smooth="yes"/>
      <point x="334" y="97"/>
      <point x="391" y="159"/>
      <point x="453" y="159" type="curve" smooth="yes"/>
      <point x="485" y="159"/>
      <point x="508" y="136"/>
      <point x="521" y="102" type="curve" smooth="yes"/>
      <point x="534" y="68"/>
      <point x="534" y="36"/>
      <point x="534" y="20" type="curve" smooth="yes"/>
      <point x="534" y="7"/>
      <point x="533" y="-6"/>
      <point x="532" y="-19" type="curve"/>
      <point x="503" y="-64"/>
      <point x="440" y="-111"/>
    </contour>
  </outline>
</glyph>
<glyph name="uni208B" format="2">
  <advance width="1300"/>
  <unicode hex="208B"/>
  <outline>
    <contour>
      <point x="190" y="-262" type="line"/>
      <point x="640" y="-262" type="line"/>
      <point x="659" y="-150" type="line"/>
      <point x="209" y="-150" type="line"/>
    </contour>
  </outline>
</glyph>
<glyph name="uni208C" format="2">
  <advance width="1300"/>
  <unicode hex="208C"/>
  <outline>
    <contour>
      <point x="232" y="-210" type="line"/>
      <point x="632" y="-210" type="line"/>
      <point x="652" y="-100" type="line"/>
      <point x="252" y="-100" type="line"/>
    </contour>
    <contour>
      <point x="197" y="-410" type="line"/>
      <point x="597" y="-410" type="line"/>
      <point x="617" y="-300" type="line"/>
      <point x="217" y="-300" type="line"/>
    </contour>
  </outline>
</glyph>
<glyph name="uni2103" format="2">
  <advance width="2600"/>
  <unicode hex="2103"/>
  <outline>
    <contour>
      <point x="1565" y="340" type="line"/>
      <point x="1408" y="260"/>
      <point x="1324" y="233"/>
      <point x="1233" y="233" type="curve" smooth="yes"/>
      <point x="1154" y="233"/>
      <point x="1095" y="266"/>
      <point x="1055" y="319" type="curve" smooth="yes"/>
      <point x="992" y="400"/>
      <point x="976" y="525"/>
      <point x="976" y="614" type="curve" smooth="yes"/>
      <point x="976" y="637"/>
      <point x="975" y="691"/>
      <point x="990" y="772" type="curve"/>
      <point x="1038" y="1048"/>
      <point x="1159" y="1270"/>
      <point x="1412" y="1270" type="curve" smooth="yes"/>
      <point x="1503" y="1270"/>
      <point x="1603" y="1219"/>
      <point x="1681" y="1160" type="curve"/>
      <point x="1861" y="1344" type="line"/>
      <point x="1766" y="1455"/>
      <point x="1611" y="1517"/>
      <point x="1440" y="1517" type="curve" smooth="yes"/>
      <point x="890" y="1517"/>
      <point x="712" y="1172"/>
      <point x="640" y="769" type="curve" smooth="yes"/>
      <point x="629" y="708"/>
      <point x="624" y="648"/>
      <point x="624" y="589" type="curve" smooth="yes"/>
      <point x="624" y="580"/>
      <point x="625" y="556"/>
      <point x="626" y="518" type="curve" smooth="yes"/>
      <point x="627" y="480"/>
      <point x="635" y="432"/>
      <point x="651" y="374" type="curve" smooth="yes"/>
      <point x="666" y="316"/>
      <point x="689" y="263"/>
      <point x="719" y="215" type="curve" smooth="yes"/>
      <point x="808" y="72"/>
      <point x="959" y="-17"/>
      <point x="1165" y="-17" type="curve" smooth="yes"/>
      <point x="1338" y="-17"/>
      <point x="1495" y="25"/>
      <point x="1648" y="133" type="curve"/>
    </contour>
    <contour>
      <point x="447" y="1517" type="curve" smooth="yes"/>
      <point x="282" y="1517"/>
      <point x="131" y="1396"/>
      <point x="104" y="1247" type="curve" smooth="yes"/>
      <point x="101" y="1232"/>
      <point x="100" y="1217"/>
      <point x="100" y="1202" type="curve" smooth="yes"/>
      <point x="100" y="1161"/>
      <point x="112" y="1105"/>
      <point x="157" y="1057" type="curve" smooth="yes"/>
      <point x="201" y="1008"/>
      <point x="269" y="977"/>
      <point x="352" y="977" type="curve" smooth="yes"/>
      <point x="516" y="977"/>
      <point x="669" y="1099"/>
      <point x="696" y="1247" type="curve" smooth="yes"/>
      <point x="699" y="1262"/>
      <point x="700" y="1276"/>
      <point x="700" y="1291" type="curve" smooth="yes"/>
      <point x="700" y="1334"/>
      <point x="687" y="1389"/>
      <point x="643" y="1438" type="curve" smooth="yes"/>
      <point x="598" y="1487"/>
      <point x="528" y="1517"/>
    </contour>
    <contour>
      <point x="382" y="1145" type="curve" smooth="yes"/>
      <point x="315" y="1145"/>
      <point x="286" y="1197"/>
      <point x="286" y="1230" type="curve" smooth="yes"/>
      <point x="286" y="1235"/>
      <point x="287" y="1241"/>
      <point x="288" y="1247" type="curve" smooth="yes"/>
      <point x="296" y="1303"/>
      <point x="356" y="1349"/>
      <point x="417" y="1349" type="curve" smooth="yes"/>
      <point x="484" y="1349"/>
      <point x="513" y="1297"/>
      <point x="513" y="1262" type="curve" smooth="yes"/>
      <point x="513" y="1257"/>
      <point x="513" y="1252"/>
      <point x="512" y="1247" type="curve" smooth="yes"/>
      <point x="501" y="1191"/>
      <point x="444" y="1145"/>
    </contour>
  </outline>
</glyph>
<glyph name="onethird" format="2">
  <advance width="1300"/>
  <unicode hex="2153"/>
  <outline>
    <contour>
      <point x="1292" y="1500" type="line"/>
      <point x="1116" y="1500" type="line"/>
      <point x="76" y="0" type="line"/>
      <point x="261" y="0" type="line"/>
    </contour>
    <contour>
      <point x="260" y="820" type="line"/>
      <point x="138" y="820" type="line"/>
      <point x="120" y="720" type="line"/>
      <point x="529" y="720" type="line"/>
      <point x="547" y="820" type="line"/>
      <point x="425" y="820" type="line"/>
      <point x="540" y="1470" type="line"/>
      <point x="420" y="1480" type="line"/>
      <point x="141" y="1261" type="line"/>
      <point x="203" y="1169" type="line"/>
      <point x="251" y="1206" type="line"/>
      <point x="389" y="1341" type="line"/>
      <point x="320" y="1160" type="line"/>
    </contour>
    <contour>
      <point x="824" y="380" type="line"/>
      <point x="844" y="380"/>
      <point x="909" y="385"/>
      <point x="928" y="385" type="curve" smooth="yes"/>
      <point x="969" y="385"/>
      <point x="1007" y="378"/>
      <point x="1032" y="362" type="curve" smooth="yes"/>
      <point x="1057" y="346"/>
      <point x="1065" y="322" name=".hr01"/>
      <point x="1065" y="301" type="curve" smooth="yes"/>
      <point x="1065" y="295"/>
      <point x="1064" y="288"/>
      <point x="1063" y="281" type="curve"/>
      <point x="1044" y="173"/>
      <point x="876" y="105"/>
      <point x="719" y="100" type="curve"/>
      <point x="701" y="0" type="line"/>
      <point x="923" y="0"/>
      <point x="1198" y="88"/>
      <point x="1234" y="286" type="curve"/>
      <point x="1237" y="299"/>
      <point x="1238" y="312"/>
      <point x="1238" y="325" type="curve" smooth="yes"/>
      <point x="1238" y="356"/>
      <point x="1231" y="398"/>
      <point x="1196" y="432" type="curve" smooth="yes"/>
      <point x="1161" y="466"/>
      <point x="1105" y="484"/>
      <point x="1036" y="484" type="curve"/>
      <point x="1121" y="526" type="line"/>
      <point x="1176" y="569"/>
      <point x="1225" y="611"/>
      <point x="1254" y="663" type="curve"/>
      <point x="1270" y="750" type="line"/>
      <point x="849" y="750" type="line"/>
      <point x="820" y="650" type="line"/>
      <point x="986" y="650" type="line"/>
      <point x="1123" y="687" type="line"/>
      <point x="1059" y="612"/>
      <point x="909" y="509"/>
      <point x="840" y="469" type="curve"/>
    </contour>
  </outline>
</glyph>
<glyph name="uni2156" format="2">
  <advance width="1300"/>
  <unicode hex="2156"/>
  <outline>
    <contour>
      <point x="1292" y="1500" type="line"/>
      <point x="1116" y="1500" type="line"/>
      <point x="76" y="0" type="line"/>
      <point x="261" y="0" type="line"/>
    </contour>
    <contour>
      <point x="528" y="720" type="line"/>
      <point x="545" y="820" type="line"/>
      <point x="224" y="820" type="line"/>
      <point x="261" y="860"/>
      <point x="358" y="949"/>
      <point x="439" y="1030" type="curve" smooth="yes"/>
      <point x="519" y="1110"/>
      <point x="595" y="1170"/>
      <point x="611" y="1263" type="curve" smooth="yes"/>
      <point x="613" y="1274"/>
      <point x="614" y="1285" name=".hr01"/>
      <point x="614" y="1296" type="curve" smooth="yes"/>
      <point x="614" y="1327"/>
      <point x="607" y="1370"/>
      <point x="574" y="1411" type="curve" smooth="yes"/>
      <point x="541" y="1451"/>
      <point x="485" y="1478"/>
      <point x="409" y="1478" type="curve" smooth="yes"/>
      <point x="281" y="1478"/>
      <point x="184" y="1414"/>
      <point x="129" y="1311" type="curve"/>
      <point x="238" y="1268" type="line"/>
      <point x="281" y="1331"/>
      <point x="328" y="1370"/>
      <point x="383" y="1370" type="curve" smooth="yes"/>
      <point x="442" y="1370"/>
      <point x="455" y="1310"/>
      <point x="455" y="1289" type="curve" smooth="yes"/>
      <point x="455" y="1282"/>
      <point x="454" y="1275"/>
      <point x="453" y="1268" type="curve"/>
      <point x="442" y="1206"/>
      <point x="413" y="1184"/>
      <point x="326" y="1107" type="curve" smooth="yes"/>
      <point x="252" y="1041"/>
      <point x="118" y="913"/>
      <point x="39" y="815" type="curve"/>
      <point x="23" y="720" type="line" name=".hr02"/>
    </contour>
    <contour>
      <point x="1006" y="650" type="line" name=".hr03"/>
      <point x="1265" y="650" type="line"/>
      <point x="1283" y="750" type="line"/>
      <point x="850" y="750" type="line"/>
      <point x="784" y="379" type="line"/>
      <point x="897" y="379" type="line"/>
      <point x="918" y="392"/>
      <point x="958" y="411"/>
      <point x="1009" y="411" type="curve" smooth="yes"/>
      <point x="1072" y="411"/>
      <point x="1088" y="349"/>
      <point x="1088" y="324" type="curve" smooth="yes"/>
      <point x="1088" y="317"/>
      <point x="1087" y="310"/>
      <point x="1086" y="303" type="curve"/>
      <point x="1066" y="195"/>
      <point x="881" y="117"/>
      <point x="737" y="113" type="curve"/>
      <point x="717" y="0" type="line"/>
      <point x="933" y="0"/>
      <point x="1216" y="107"/>
      <point x="1252" y="313" type="curve"/>
      <point x="1255" y="326"/>
      <point x="1256" y="339"/>
      <point x="1256" y="352" type="curve" smooth="yes"/>
      <point x="1256" y="383"/>
      <point x="1249" y="426"/>
      <point x="1214" y="466" type="curve"/>
      <point x="1178" y="505"/>
      <point x="1120" y="529"/>
      <point x="1043" y="529" type="curve" smooth="yes"/>
      <point x="1020" y="529"/>
      <point x="1001" y="527"/>
      <point x="984" y="523" type="curve"/>
    </contour>
  </outline>
</glyph>
<glyph name="uni2166" format="2">
  <advance width="2600"/>
  <unicode hex="2166"/>
  <outline>
    <contour>
      <point x="1583" y="228" type="line"/>
      <point x="1768" y="1272" type="line"/>
      <point x="2084" y="1272" type="line"/>
      <point x="1899" y="228" type="line"/>
    </contour>
    <contour>
      <point x="1434" y="1272" type="line"/>
      <point x="1249" y="228" type="line"/>
      <point x="971" y="228" type="line"/>
      <point x="931" y="0" type="line"/>
      <point x="1581" y="0" type="line"/>
      <point x="1809" y="0" type="line"/>
      <point x="2459" y="0" type="line"/>
      <point x="2534" y="228" type="line"/>
      <point x="2233" y="228" type="line"/>
      <point x="2418" y="1272" type="line"/>
      <point x="2691" y="1272" type="line"/>
      <point x="2731" y="1500" type="line"/>
      <point x="2081" y="1500" type="line"/>
      <point x="1853" y="1500" type="line"/>
      <point x="1283" y="1500" type="line"/>
      <point x="1203" y="1500" type="line"/>
      <point x="963" y="1500" type="line"/>
      <point x="574" y="700" type="line"/>
      <point x="427" y="260" type="line"/>
      <point x="451" y="700" type="line"/>
      <point x="343" y="1520" type="line"/>
      <point x="17" y="1500" type="line"/>
      <point x="226" y="0" type="line"/>
      <point x="575" y="-17" type="line"/>
      <point x="641" y="200" type="line"/>
      <point x="1170" y="1272" type="line"/>
    </contour>
  </outline>
</glyph>
<glyph name="uni2167" format="2">
  <advance width="2600"/>
  <unicode hex="2167"/>
  <outline>
    <contour>
      <point x="1383" y="228" type="line"/>
      <point x="1568" y="1272" type="line"/>
      <point x="1884" y="1272" type="line"/>
      <point x="1699" y="228" type="line"/>
    </contour>
    <contour>
      <point x="1234" y="1272" type="line"/>
      <point x="1049" y="228" type="line"/>
      <point x="771" y="228" type="line"/>
      <point x="731" y="0" type="line"/>
      <point x="1381" y="0" type="line"/>
      <point x="1609" y="0" type="line"/>
      <point x="2259" y="0" type="line"/>
      <point x="2334" y="228" type="line"/>
      <point x="2033" y="228" type="line"/>
      <point x="2218" y="1272" type="line"/>
      <point x="2491" y="1272" type="line"/>
      <point x="2531" y="1500" type="line"/>
      <point x="1881" y="1500" type="line"/>
      <point x="1653" y="1500" type="line"/>
      <point x="1083" y="1500" type="line"/>
      <point x="1003" y="1500" type="line"/>
      <point x="763" y="1500" type="line"/>
      <point x="374" y="700" type="line"/>
      <point x="227" y="260" type="line"/>
      <point x="251" y="700" type="line"/>
      <point x="143" y="1520" type="line"/>
      <point x="-183" y="1500" type="line"/>
      <point x="26" y="0" type="line"/>
      <point x="375" y="-17" type="line"/>
      <point x="441" y="200" type="line"/>
      <point x="970" y="1272" type="line"/>
    </contour>
  </outline>
</glyph>
<glyph name="uni216B" format="2">
  <advance width="2600"/>
  <unicode hex="216B"/>
  <outline>
    <contour>
      <point x="1384" y="1272" type="line"/>
      <point x="1199" y="228" type="line"/>
      <point x="1080" y="228" type="line"/>
      <point x="848" y="855" type="line"/>
      <point x="1120" y="1272" type="line"/>
    </contour>
    <contour>
      <point x="1984" y="1272" type="line"/>
      <point x="1799" y="228" type="line"/>
      <point x="1533" y="228" type="line"/>
      <point x="1718" y="1272" type="line"/>
    </contour>
    <contour>
      <point x="1759" y="0" type="line"/>
      <point x="2359" y="0" type="line"/>
      <point x="2434" y="228" type="line"/>
      <point x="2133" y="228" type="line"/>
      <point x="2318" y="1272" type="line"/>
      <point x="2591" y="1272" type="line"/>
      <point x="2631" y="1500" type="line"/>
      <point x="2031" y="1500" type="line"/>
      <point x="1753" y="1500" type="line"/>
      <point x="1269" y="1500" type="line"/>
      <point x="1153" y="1500" type="line"/>
      <point x="982" y="1500" type="line"/>
      <point x="817" y="1231" type="line"/>
      <point x="765" y="1050" type="line"/>
      <point x="584" y="1520" type="line"/>
      <point x="252" y="1500" type="line"/>
      <point x="521" y="824" type="line"/>
      <point x="-1" y="0" type="line"/>
      <point x="321" y="0" type="line"/>
      <point x="571" y="427" type="line"/>
      <point x="611" y="613" type="line"/>
      <point x="825" y="0" type="line"/>
      <point x="881" y="0" type="line"/>
      <point x="1165" y="0" type="line"/>
      <point x="1481" y="0" type="line"/>
    </contour>
  </outline>
</glyph>
<glyph name="uni2170" format="2">
  <advance width="1300"/>
  <unicode hex="2170"/>
  <outline>
    <contour>
      <point x="848" y="1120" type="line"/>
      <point x="545" y="1100" type="line"/>
      <point x="351" y="0" type="line"/>
      <point x="651" y="0" type="line"/>
    </contour>
  </outline>
</glyph>
<glyph name="uni2176" format="2">
  <advance width="2600"/>
  <unicode hex="2176"/>
  <outline>
    <contour>
      <point x="446" y="1120" type="line"/>
      <point x="128" y="1100" type="line"/>
      <point x="285" y="0" type="line"/>
      <point x="598" y="-17" type="line"/>
      <point x="1172" y="1120" type="line"/>
      <point x="855" y="1100" type="line"/>
      <point x="654" y="700" type="line"/>
      <point x="511" y="300" type="line"/>
      <point x="508" y="700" type="line"/>
    </contour>
    <contour>
      <point x="1548" y="1120" type="line"/>
      <point x="1245" y="1100" type="line"/>
      <point x="1051" y="0" type="line"/>
      <point x="1351" y="0" type="line"/>
    </contour>
    <contour>
      <point x="2048" y="1120" type="line"/>
      <point x="1745" y="1100" type="line"/>
      <point x="1551" y="0" type="line"/>
      <point x="1851" y="0" type="line"/>
    </contour>
  </outline>
</glyph>
<glyph name="uni217B" format="2">
  <advance width="2600"/>
  <unicode hex="217B"/>
  <outline>
    <contour>
      <point x="1304" y="128" type="line"/>
      <point x="1065" y="581" type="line"/>
      <point x="1466" y="1046" type="line"/>
    </contour>
    <contour>
      <point x="1514" y="1103" type="line"/>
      <point x="1529" y="1120" type="line"/>
      <point x="1171" y="1100" type="line"/>
      <point x="1006" y="900" type="line"/>
      <point x="911" y="700" type="line"/>
      <point x="884" y="900" type="line"/>
      <point x="782" y="1120" type="line"/>
      <point x="437" y="1100" type="line"/>
      <point x="702" y="585" type="line"/>
      <point x="199" y="0" type="line"/>
      <point x="537" y="0" type="line"/>
      <point x="753" y="272" type="line"/>
      <point x="846" y="474" type="line"/>
      <point x="877" y="272" type="line"/>
      <point x="1010" y="0" type="line"/>
      <point x="1371" y="0" type="line"/>
      <point x="1581" y="0" type="line"/>
      <point x="1778" y="1120" type="line"/>
    </contour>
    <contour>
      <point x="1875" y="1100" type="line"/>
      <point x="1681" y="0" type="line"/>
      <point x="1981" y="0" type="line"/>
      <point x="2178" y="1120" type="line"/>
    </contour>
  </outline>
</glyph>
<glyph name="uni21E2" format="2">
  <advance width="1300"/>
  <unicode hex="21E2"/>
  <outline>
    <contour>
      <point x="853" y="500" type="line"/>
      <point x="957" y="512" type="line"/>
      <point x="900" y="437" type="line"/>
      <point x="900" y="200" type="line"/>
      <point x="1201" y="500" type="line"/>
      <point x="1320" y="600" type="line"/>
      <point x="1200" y="700" type="line"/>
      <point x="900" y="1000" type="line"/>
      <point x="900" y="765" type="line"/>
      <point x="957" y="690" type="line"/>
      <point x="853" y="700" type="line"/>
      <point x="750" y="700" type="line"/>
      <point x="750" y="500" type="line"/>
    </contour>
    <contour>
      <point x="600" y="700" type="line"/>
      <point x="350" y="700" type="line"/>
      <point x="350" y="500" type="line"/>
      <point x="600" y="500" type="line"/>
    </contour>
    <contour>
      <point x="200" y="700" type="line"/>
      <point x="-50" y="700" type="line"/>
      <point x="-50" y="500" type="line"/>
      <point x="200" y="500" type="line"/>
    </contour>
  </outline>
</glyph>
<glyph name="uni2218" format="2">
  <advance width="1300"/>
  <unicode hex="2218"/>
  <outline>
    <contour>
      <point x="647" y="917" type="curve" smooth="yes"/>
      <point x="482" y="917"/>
      <point x="331" y="796"/>
      <point x="304" y="647" type="curve" smooth="yes"/>
      <point x="301" y="632"/>
      <point x="300" y="617"/>
      <point x="300" y="602" type="curve" smooth="yes"/>
      <point x="300" y="561"/>
      <point x="312" y="505"/>
      <point x="357" y="457" type="curve" smooth="yes"/>
      <point x="401" y="408"/>
      <point x="469" y="377"/>
      <point x="552" y="377" type="curve" smooth="yes"/>
      <point x="716" y="377"/>
      <point x="869" y="499"/>
      <point x="896" y="647" type="curve" smooth="yes"/>
      <point x="899" y="662"/>
      <point x="900" y="676" name=".hr01"/>
      <point x="900" y="691" type="curve" smooth="yes"/>
      <point x="900" y="734"/>
      <point x="887" y="789"/>
      <point x="843" y="838" type="curve" smooth="yes"/>
      <point x="798" y="887"/>
      <point x="728" y="917"/>
    </contour>
    <contour>
      <point x="582" y="545" type="curve" smooth="yes"/>
      <point x="515" y="545"/>
      <point x="486" y="597"/>
      <point x="486" y="630" type="curve" smooth="yes" name=".hr02"/>
      <point x="486" y="635"/>
      <point x="487" y="641"/>
      <point x="488" y="647" type="curve" smooth="yes"/>
      <point x="496" y="703"/>
      <point x="556" y="749"/>
      <point x="617" y="749" type="curve" smooth="yes"/>
      <point x="684" y="749"/>
      <point x="713" y="697"/>
      <point x="713" y="662" type="curve" smooth="yes"/>
      <point x="713" y="657"/>
      <point x="713" y="652"/>
      <point x="712" y="647" type="curve" smooth="yes"/>
      <point x="701" y="591"/>
      <point x="644" y="545"/>
    </contour>
  </outline>
</glyph>
<glyph name="uni2235" format="2">
  <advance width="1300"/>
  <unicode hex="2235"/>
  <outline>
    <contour>
      <point x="-397" y="1073" type="curve"/>
      <point x="-400" y="1060"/>
      <point x="-401" y="1048"/>
      <point x="-401" y="1036" type="curve" smooth="yes"/>
      <point x="-401" y="1008"/>
      <point x="-393" y="968"/>
      <point x="-364" y="932" type="curve" smooth="yes"/>
      <point x="-335" y="896"/>
      <point x="-289" y="873"/>
      <point x="-234" y="873" type="curve" smooth="yes"/>
      <point x="-124" y="873"/>
      <point x="-23" y="964"/>
      <point x="-2" y="1073" type="curve" smooth="yes"/>
      <point x="0" y="1085"/>
      <point x="1" y="1097"/>
      <point x="1" y="1108" type="curve" smooth="yes"/>
      <point x="1" y="1137"/>
      <point x="-6" y="1177"/>
      <point x="-36" y="1213" type="curve" smooth="yes"/>
      <point x="-66" y="1249"/>
      <point x="-110" y="1271"/>
      <point x="-165" y="1271" type="curve" smooth="yes"/>
      <point x="-273" y="1271"/>
      <point x="-378" y="1182"/>
    </contour>
    <contour>
      <point x="403" y="1073" type="curve"/>
      <point x="400" y="1060"/>
      <point x="399" y="1048"/>
      <point x="399" y="1036" type="curve" smooth="yes"/>
      <point x="399" y="1008"/>
      <point x="407" y="968"/>
      <point x="436" y="932" type="curve" smooth="yes"/>
      <point x="465" y="896"/>
      <point x="511" y="873"/>
      <point x="566" y="873" type="curve" smooth="yes"/>
      <point x="676" y="873"/>
      <point x="777" y="964"/>
      <point x="798" y="1073" type="curve" smooth="yes"/>
      <point x="800" y="1085"/>
      <point x="801" y="1097"/>
      <point x="801" y="1108" type="curve" smooth="yes"/>
      <point x="801" y="1137"/>
      <point x="795" y="1177"/>
      <point x="765" y="1213" type="curve" smooth="yes"/>
      <point x="735" y="1249"/>
      <point x="690" y="1271"/>
      <point x="635" y="1271" type="curve" smooth="yes"/>
      <point x="527" y="1271"/>
      <point x="422" y="1182"/>
    </contour>
    <contour>
      <point x="3" y="183" type="curve"/>
      <point x="0" y="170"/>
      <point x="-1" y="158"/>
      <point x="-1" y="146" type="curve" smooth="yes"/>
      <point x="-1" y="118"/>
      <point x="7" y="78"/>
      <point x="36" y="42" type="curve" smooth="yes"/>
      <point x="65" y="6"/>
      <point x="111" y="-17"/>
      <point x="166" y="-17" type="curve" smooth="yes"/>
      <point x="276" y="-17"/>
      <point x="377" y="74"/>
      <point x="398" y="183" type="curve" smooth="yes"/>
      <point x="400" y="195"/>
      <point x="401" y="207"/>
      <point x="401" y="218" type="curve" smooth="yes"/>
      <point x="401" y="247"/>
      <point x="395" y="287"/>
      <point x="365" y="323" type="curve" smooth="yes"/>
      <point x="335" y="359"/>
      <point x="290" y="381"/>
      <point x="235" y="381" type="curve" smooth="yes"/>
      <point x="127" y="381"/>
      <point x="22" y="292"/>
    </contour>
  </outline>
</glyph>
<glyph name="congruent" format="2">
  <advance width="1300"/>
  <unicode hex="2245"/>
  <outline>
    <contour>
      <point x="1109" y="972" type="line"/>
      <point x="1040" y="920"/>
      <point x="955" y="889"/>
      <point x="875" y="889" type="curve" smooth="yes"/>
      <point x="749" y="889"/>
      <point x="687" y="1041" name=".hr01"/>
      <point x="561" y="1041" type="curve" smooth="yes"/>
      <point x="466" y="1041"/>
      <point x="380" y="980"/>
      <point x="297" y="902" type="curve"/>
      <point x="266" y="726" type="line"/>
      <point x="335" y="779"/>
      <point x="424" y="831"/>
      <point x="504" y="831" type="curve" smooth="yes"/>
      <point x="609" y="831"/>
      <point x="692" y="680" name=".hr02"/>
      <point x="818" y="680" type="curve" smooth="yes"/>
      <point x="914" y="680"/>
      <point x="995" y="720"/>
      <point x="1079" y="800" type="curve"/>
    </contour>
    <contour>
      <point x="210" y="416" type="line"/>
      <point x="1010" y="416" type="line"/>
      <point x="1042" y="600" type="line"/>
      <point x="242" y="600" type="line"/>
    </contour>
    <contour>
      <point x="157" y="116" type="line"/>
      <point x="957" y="116" type="line"/>
      <point x="989" y="300" type="line"/>
      <point x="189" y="300" type="line"/>
    </contour>
  </outline>
</glyph>
<glyph name="lessequal" format="2">
  <advance width="1300"/>
  <unicode hex="2264"/>
  <outline>
    <contour>
      <point x="62" y="0" type="line"/>
      <point x="1044" y="0" type="line"/>
      <point x="1104" y="200" type="line"/>
      <point x="97" y="200" type="line"/>
    </contour>
    <contour>
      <point x="140" y="890" type="line"/>
      <point x="100" y="710" type="line"/>
      <point x="1017" y="301" type="line"/>
      <point x="1064" y="516" type="line"/>
      <point x="459" y="797" type="line"/>
      <point x="1189" y="1081" type="line"/>
      <point x="1236" y="1296" type="line"/>
    </contour>
  </outline>
</glyph>
<glyph name="greaterequal" format="2">
  <advance width="1300"/>
  <unicode hex="2265"/>
  <outline>
    <contour>
      <point x="100" y="0" type="line"/>
      <point x="1082" y="0" type="line"/>
      <point x="1142" y="200" type="line"/>
      <point x="135" y="200" type="line"/>
    </contour>
    <contour>
      <point x="319" y="1294" type="line"/>
      <point x="272" y="1079" type="line"/>
      <point x="876" y="795" type="line"/>
      <point x="147" y="514" type="line"/>
      <point x="100" y="299" type="line"/>
      <point x="1197" y="708" type="line"/>
      <point x="1237" y="888" type="line"/>
    </contour>
  </outline>
</glyph>
<glyph name="uni22EE" format="2">
  <advance width="1300"/>
  <unicode hex="22EE"/>
  <outline>
    <contour>
      <point x="3" y="1383" type="curve"/>
      <point x="0" y="1370"/>
      <point x="-1" y="1358"/>
      <point x="-1" y="1346" type="curve" smooth="yes"/>
      <point x="-1" y="1318"/>
      <point x="7" y="1278"/>
      <point x="36" y="1242" type="curve" smooth="yes"/>
      <point x="65" y="1206"/>
      <point x="111" y="1183"/>
      <point x="166" y="1183" type="curve" smooth="yes"/>
      <point x="276" y="1183"/>
      <point x="377" y="1274"/>
      <point x="398" y="1383" type="curve" smooth="yes"/>
      <point x="400" y="1395"/>
      <point x="401" y="1407"/>
      <point x="401" y="1418" type="curve" smooth="yes"/>
      <point x="401" y="1447"/>
      <point x="395" y="1487"/>
      <point x="365" y="1523" type="curve" smooth="yes"/>
      <point x="335" y="1559"/>
      <point x="290" y="1581"/>
      <point x="235" y="1581" type="curve" smooth="yes"/>
      <point x="127" y="1581"/>
      <point x="22" y="1492"/>
    </contour>
    <contour>
      <point x="3" y="783" type="curve"/>
      <point x="0" y="770"/>
      <point x="-1" y="758"/>
      <point x="-1" y="746" type="curve" smooth="yes"/>
      <point x="-1" y="718"/>
      <point x="7" y="678"/>
      <point x="36" y="642" type="curve" smooth="yes"/>
      <point x="65" y="606"/>
      <point x="111" y="583"/>
      <point x="166" y="583" type="curve" smooth="yes"/>
      <point x="276" y="583"/>
      <point x="377" y="674"/>
      <point x="398" y="783" type="curve" smooth="yes"/>
      <point x="400" y="795"/>
      <point x="401" y="807"/>
      <point x="401" y="818" type="curve" smooth="yes"/>
      <point x="401" y="847"/>
      <point x="395" y="887"/>
      <point x="365" y="923" type="curve" smooth="yes"/>
      <point x="335" y="959"/>
      <point x="290" y="981"/>
      <point x="235" y="981" type="curve" smooth="yes"/>
      <point x="127" y="981"/>
      <point x="22" y="892"/>
    </contour>
    <contour>
      <point x="3" y="183" type="curve"/>
      <point x="0" y="170"/>
      <point x="-1" y="158"/>
      <point x="-1" y="146" type="curve" smooth="yes"/>
      <point x="-1" y="118"/>
      <point x="7" y="78"/>
      <point x="36" y="42" type="curve" smooth="yes"/>
      <point x="65" y="6"/>
      <point x="111" y="-17"/>
      <point x="166" y="-17" type="curve" smooth="yes"/>
      <point x="276" y="-17"/>
      <point x="377" y="74"/>
      <point x="398" y="183" type="curve" smooth="yes"/>
      <point x="400" y="195"/>
      <point x="401" y="207"/>
      <point x="401" y="218" type="curve" smooth="yes"/>
      <point x="401" y="247"/>
      <point x="395" y="287"/>
      <point x="365" y="323" type="curve" smooth="yes"/>
      <point x="335" y="359"/>
      <point x="290" y="381"/>
      <point x="235" y="381" type="curve" smooth="yes"/>
      <point x="127" y="381"/>
      <point x="22" y="292"/>
    </contour>
  </outline>
</glyph>
<glyph name="POWERSYMBOL" format="2">
  <advance width="1300"/>
  <unicode hex="23FB"/>
  <outline>
    <contour>
      <point x="838" y="1588" type="curve"/>
      <point x="840" y="1588" type="line" smooth="yes"/>
      <point x="919" y="1588"/>
      <point x="984" y="1523"/>
      <point x="984" y="1444" type="curve" smooth="yes"/>
      <point x="984" y="1442" type="line"/>
      <point x="984" y="505" type="line"/>
      <point x="984" y="504" type="line"/>
      <point x="984" y="425"/>
      <point x="919" y="361"/>
      <point x="840" y="361" type="curve" smooth="yes"/>
      <point x="761" y="361"/>
      <point x="697" y="425"/>
      <point x="697" y="504" type="curve"/>
      <point x="697" y="505" type="line"/>
      <point x="697" y="1442" type="line"/>
      <point x="697" y="1444" type="line" smooth="yes"/>
      <point x="697" y="1522"/>
      <point x="760" y="1587"/>
    </contour>
    <contour>
      <point x="327" y="1116" type="line"/>
      <point x="405" y="1115"/>
      <point x="468" y="1050"/>
      <point x="468" y="972" type="curve" smooth="yes"/>
      <point x="468" y="941"/>
      <point x="450" y="898"/>
      <point x="429" y="875" type="curve" smooth="yes"/>
      <point x="341" y="777"/>
      <point x="287" y="648"/>
      <point x="287" y="505" type="curve" smooth="yes"/>
      <point x="287" y="199"/>
      <point x="532" y="-47"/>
      <point x="839" y="-47" type="curve" smooth="yes"/>
      <point x="1145" y="-47"/>
      <point x="1391" y="198"/>
      <point x="1391" y="505" type="curve" smooth="yes"/>
      <point x="1391" y="648"/>
      <point x="1337" y="777"/>
      <point x="1249" y="875" type="curve" smooth="yes"/>
      <point x="1228" y="898"/>
      <point x="1211" y="941"/>
      <point x="1211" y="972" type="curve" smooth="yes"/>
      <point x="1211" y="1051"/>
      <point x="1276" y="1116"/>
      <point x="1355" y="1116" type="curve" smooth="yes"/>
      <point x="1391" y="1116"/>
      <point x="1439" y="1094"/>
      <point x="1463" y="1067" type="curve" smooth="yes"/>
      <point x="1597" y="918"/>
      <point x="1678" y="720"/>
      <point x="1678" y="505" type="curve" smooth="yes"/>
      <point x="1678" y="43"/>
      <point x="1300" y="-334"/>
      <point x="839" y="-334" type="curve" smooth="yes"/>
      <point x="377" y="-334"/>
      <point x="0" y="44"/>
      <point x="0" y="505" type="curve" smooth="yes"/>
      <point x="0" y="720"/>
      <point x="82" y="918"/>
      <point x="216" y="1067" type="curve" smooth="yes"/>
      <point x="240" y="1094"/>
      <point x="288" y="1116"/>
      <point x="324" y="1116" type="curve" smooth="yes"/>
    </contour>
  </outline>
</glyph>
<glyph name="uni260E" format="2">
  <advance width="1300"/>
  <unicode hex="260E"/>
  <outline>
    <contour>
      <point x="730" y="629" type="curve" smooth="yes"/>
      <point x="661" y="525"/>
      <point x="578" y="357"/>
      <point x="557" y="348" type="curve"/>
      <point x="555" y="347"/>
      <point x="553" y="347"/>
      <point x="550" y="347" type="curve" smooth="yes"/>
      <point x="516" y="347"/>
      <point x="428" y="430"/>
      <point x="390" y="430" type="curve" smooth="yes"/>
      <point x="387" y="430"/>
      <point x="384" y="429"/>
      <point x="382" y="428" type="curve"/>
      <point x="311" y="395"/>
      <point x="169" y="180"/>
      <point x="169" y="111" type="curve" smooth="yes"/>
      <point x="169" y="106"/>
      <point x="170" y="102"/>
      <point x="171" y="99" type="curve"/>
      <point x="185" y="71"/>
      <point x="293" y="21"/>
      <point x="380" y="21" type="curve" smooth="yes"/>
      <point x="402" y="21"/>
      <point x="424" y="24"/>
      <point x="441" y="32" type="curve" smooth="yes"/>
      <point x="575" y="94"/>
      <point x="773" y="282"/>
      <point x="916" y="506" type="curve" smooth="yes"/>
      <point x="1059" y="730"/>
      <point x="1144" y="989"/>
      <point x="1144" y="1136" type="curve" smooth="yes"/>
      <point x="1144" y="1231"/>
      <point x="1010" y="1353"/>
      <point x="970" y="1353" type="curve" smooth="yes"/>
      <point x="915" y="1353"/>
      <point x="761" y="1107"/>
      <point x="761" y="1023" type="curve" smooth="yes"/>
      <point x="761" y="986"/>
      <point x="908" y="932"/>
      <point x="908" y="899" type="curve" smooth="yes"/>
      <point x="908" y="875"/>
      <point x="791" y="721"/>
    </contour>
  </outline>
</glyph>
<glyph name="uni263E" format="2">
  <advance width="1300"/>
  <unicode hex="263E"/>
  <outline>
    <contour>
      <point x="1152" y="288" type="curve"/>
      <point x="1152" y="288"/>
      <point x="1135" y="299"/>
      <point x="1135" y="300" type="curve"/>
      <point x="1061" y="211"/>
      <point x="949" y="155"/>
      <point x="825" y="155" type="curve" smooth="yes"/>
      <point x="602" y="155"/>
      <point x="420" y="337"/>
      <point x="420" y="561" type="curve" smooth="yes"/>
      <point x="420" y="784"/>
      <point x="602" y="966"/>
      <point x="825" y="966" type="curve" smooth="yes"/>
      <point x="853" y="966"/>
      <point x="881" y="963"/>
      <point x="908" y="957" type="curve"/>
      <point x="912" y="978" type="line"/>
      <point x="841" y="1014"/>
      <point x="760" y="1034"/>
      <point x="676" y="1034" type="curve" smooth="yes"/>
      <point x="385" y="1034"/>
      <point x="150" y="799"/>
      <point x="150" y="509" type="curve" smooth="yes"/>
      <point x="150" y="218"/>
      <point x="385" y="-17"/>
      <point x="676" y="-17" type="curve" smooth="yes"/>
      <point x="886" y="-17"/>
      <point x="1069" y="108"/>
    </contour>
  </outline>
</glyph>
<glyph name="uni2783" format="2">
  <advance width="1300"/>
  <unicode hex="2783"/>
  <outline>
    <contour>
      <point x="10" y="750" type="curve" smooth="yes"/>
      <point x="1" y="701"/>
      <point x="-3" y="653"/>
      <point x="-3" y="605" type="curve" smooth="yes"/>
      <point x="-3" y="591"/>
      <point x="-2" y="565"/>
      <point x="0" y="528" type="curve" smooth="yes"/>
      <point x="2" y="490"/>
      <point x="11" y="444"/>
      <point x="28" y="389" type="curve" smooth="yes"/>
      <point x="44" y="334"/>
      <point x="67" y="284"/>
      <point x="97" y="238" type="curve" smooth="yes"/>
      <point x="184" y="100"/>
      <point x="329" y="10"/>
      <point x="519" y="10" type="curve" smooth="yes"/>
      <point x="900" y="10"/>
      <point x="1222" y="370"/>
      <point x="1290" y="750" type="curve" smooth="yes"/>
      <point x="1299" y="799"/>
      <point x="1303" y="847"/>
      <point x="1303" y="895" type="curve" smooth="yes"/>
      <point x="1303" y="909"/>
      <point x="1302" y="935"/>
      <point x="1300" y="973" type="curve" smooth="yes"/>
      <point x="1298" y="1010"/>
      <point x="1289" y="1056"/>
      <point x="1272" y="1111" type="curve" smooth="yes"/>
      <point x="1255" y="1166"/>
      <point x="1232" y="1216"/>
      <point x="1203" y="1263" type="curve" smooth="yes"/>
      <point x="1116" y="1400"/>
      <point x="969" y="1490"/>
      <point x="780" y="1490" type="curve" smooth="yes"/>
      <point x="399" y="1490"/>
      <point x="78" y="1130"/>
    </contour>
    <contour>
      <point x="169" y="750" type="curve" smooth="yes"/>
      <point x="221" y="1039"/>
      <point x="459" y="1320"/>
      <point x="750" y="1320" type="curve" smooth="yes"/>
      <point x="895" y="1320"/>
      <point x="1003" y="1250"/>
      <point x="1068" y="1144" type="curve" smooth="yes"/>
      <point x="1101" y="1091"/>
      <point x="1121" y="1039"/>
      <point x="1129" y="990" type="curve" smooth="yes"/>
      <point x="1136" y="940"/>
      <point x="1140" y="899"/>
      <point x="1140" y="866" type="curve" smooth="yes"/>
      <point x="1140" y="828"/>
      <point x="1137" y="789"/>
      <point x="1130" y="750" type="curve" smooth="yes"/>
      <point x="1077" y="460"/>
      <point x="840" y="179"/>
      <point x="549" y="179" type="curve" smooth="yes"/>
      <point x="404" y="179"/>
      <point x="296" y="249"/>
      <point x="231" y="356" type="curve" smooth="yes"/>
      <point x="198" y="409"/>
      <point x="178" y="461"/>
      <point x="170" y="511" type="curve" smooth="yes"/>
      <point x="162" y="560"/>
      <point x="158" y="601"/>
      <point x="158" y="632" type="curve" smooth="yes"/>
      <point x="158" y="671"/>
      <point x="162" y="710"/>
    </contour>
    <contour>
      <point x="941" y="600" type="line"/>
      <point x="822" y="600" type="line"/>
      <point x="854" y="780" type="line"/>
      <point x="659" y="768" type="line"/>
      <point x="629" y="600" type="line"/>
      <point x="455" y="600" type="line"/>
      <point x="587" y="758" type="line"/>
      <point x="863" y="1200" type="line"/>
      <point x="697" y="1212" type="line"/>
      <point x="293" y="600" type="line"/>
      <point x="272" y="480" type="line"/>
      <point x="608" y="480" type="line"/>
      <point x="576" y="300" type="line"/>
      <point x="768" y="300" type="line"/>
      <point x="800" y="480" type="line"/>
      <point x="907" y="480" type="line"/>
    </contour>
  </outline>
</glyph>
<glyph name="uni2785" format="2">
  <advance width="1300"/>
  <unicode hex="2785"/>
  <outline>
    <contour>
      <point x="10" y="750" type="curve" smooth="yes"/>
      <point x="1" y="701"/>
      <point x="-3" y="653"/>
      <point x="-3" y="605" type="curve" smooth="yes"/>
      <point x="-3" y="591"/>
      <point x="-2" y="565"/>
      <point x="0" y="528" type="curve" smooth="yes"/>
      <point x="2" y="490"/>
      <point x="11" y="444"/>
      <point x="28" y="389" type="curve" smooth="yes"/>
      <point x="44" y="334"/>
      <point x="67" y="284"/>
      <point x="97" y="238" type="curve" smooth="yes"/>
      <point x="184" y="100"/>
      <point x="329" y="10"/>
      <point x="519" y="10" type="curve" smooth="yes"/>
      <point x="900" y="10"/>
      <point x="1222" y="370"/>
      <point x="1290" y="750" type="curve" smooth="yes"/>
      <point x="1299" y="799"/>
      <point x="1303" y="847"/>
      <point x="1303" y="895" type="curve" smooth="yes"/>
      <point x="1303" y="909"/>
      <point x="1302" y="935"/>
      <point x="1300" y="973" type="curve" smooth="yes"/>
      <point x="1298" y="1010"/>
      <point x="1289" y="1056"/>
      <point x="1272" y="1111" type="curve" smooth="yes"/>
      <point x="1255" y="1166"/>
      <point x="1232" y="1216"/>
      <point x="1203" y="1263" type="curve" smooth="yes"/>
      <point x="1116" y="1400"/>
      <point x="969" y="1490"/>
      <point x="780" y="1490" type="curve" smooth="yes"/>
      <point x="399" y="1490"/>
      <point x="78" y="1130"/>
    </contour>
    <contour>
      <point x="169" y="750" type="curve" smooth="yes"/>
      <point x="221" y="1039"/>
      <point x="459" y="1320"/>
      <point x="750" y="1320" type="curve" smooth="yes"/>
      <point x="895" y="1320"/>
      <point x="1003" y="1250"/>
      <point x="1068" y="1144" type="curve" smooth="yes"/>
      <point x="1101" y="1091"/>
      <point x="1121" y="1039"/>
      <point x="1129" y="990" type="curve" smooth="yes"/>
      <point x="1136" y="940"/>
      <point x="1140" y="899"/>
      <point x="1140" y="866" type="curve" smooth="yes"/>
      <point x="1140" y="828"/>
      <point x="1137" y="789"/>
      <point x="1130" y="750" type="curve" smooth="yes"/>
      <point x="1077" y="460"/>
      <point x="840" y="179"/>
      <point x="549" y="179" type="curve" smooth="yes"/>
      <point x="404" y="179"/>
      <point x="296" y="249"/>
      <point x="231" y="356" type="curve" smooth="yes"/>
      <point x="198" y="409"/>
      <point x="178" y="461"/>
      <point x="170" y="511" type="curve" smooth="yes"/>
      <point x="162" y="560"/>
      <point x="158" y="601"/>
      <point x="158" y="632" type="curve" smooth="yes"/>
      <point x="158" y="671"/>
      <point x="162" y="710"/>
    </contour>
    <contour>
      <point x="937" y="1199" type="line"/>
      <point x="900" y="1210"/>
      <point x="873" y="1210"/>
      <point x="858" y="1210" type="curve" smooth="yes"/>
      <point x="564" y="1210"/>
      <point x="328" y="960"/>
      <point x="280" y="676" type="curve" smooth="yes"/>
      <point x="272" y="631"/>
      <point x="273" y="596"/>
      <point x="273" y="591" type="curve" smooth="yes"/>
      <point x="273" y="467"/>
      <point x="328" y="290"/>
      <point x="543" y="290" type="curve" smooth="yes"/>
      <point x="741" y="290"/>
      <point x="900" y="437"/>
      <point x="932" y="615" type="curve" smooth="yes"/>
      <point x="935" y="634"/>
      <point x="937" y="652"/>
      <point x="937" y="669" type="curve" smooth="yes"/>
      <point x="937" y="716"/>
      <point x="923" y="771"/>
      <point x="875" y="813" type="curve" smooth="yes"/>
      <point x="826" y="855"/>
      <point x="755" y="874"/>
      <point x="676" y="874" type="curve" smooth="yes"/>
      <point x="658" y="874"/>
      <point x="638" y="872"/>
      <point x="615" y="867" type="curve"/>
      <point x="500" y="780" type="line"/>
      <point x="562" y="970"/>
      <point x="721" y="1080"/>
      <point x="829" y="1080" type="curve" smooth="yes"/>
      <point x="849" y="1080"/>
      <point x="875" y="1079"/>
      <point x="894" y="1068" type="curve"/>
    </contour>
    <contour>
      <point x="647" y="754" type="curve" smooth="yes"/>
      <point x="678" y="754"/>
      <point x="701" y="738"/>
      <point x="716" y="712" type="curve" smooth="yes"/>
      <point x="731" y="686"/>
      <point x="732" y="659"/>
      <point x="732" y="644" type="curve" smooth="yes"/>
      <point x="732" y="633"/>
      <point x="731" y="622"/>
      <point x="729" y="610" type="curve" smooth="yes"/>
      <point x="713" y="521"/>
      <point x="656" y="420"/>
      <point x="568" y="420" type="curve" smooth="yes"/>
      <point x="511" y="420"/>
      <point x="477" y="485"/>
      <point x="472" y="560" type="curve" smooth="yes"/>
      <point x="469" y="595"/>
      <point x="471" y="618"/>
      <point x="479" y="661" type="curve"/>
      <point x="517" y="699"/>
      <point x="589" y="754"/>
    </contour>
  </outline>
</glyph>
<glyph name="uni278B" format="2">
  <advance width="1300"/>
  <unicode hex="278B"/>
  <outline>
    <contour>
      <point x="50" y="750" type="curve" smooth="yes"/>
      <point x="41" y="702"/>
      <point x="37" y="655"/>
      <point x="37" y="608" type="curve" smooth="yes"/>
      <point x="37" y="568"/>
      <point x="42" y="517"/>
      <point x="53" y="455" type="curve" smooth="yes"/>
      <point x="63" y="393"/>
      <point x="89" y="329"/>
      <point x="130" y="264" type="curve" smooth="yes"/>
      <point x="212" y="133"/>
      <point x="346" y="48"/>
      <point x="526" y="48" type="curve" smooth="yes"/>
      <point x="886" y="48"/>
      <point x="1186" y="390"/>
      <point x="1250" y="750" type="curve" smooth="yes"/>
      <point x="1258" y="797"/>
      <point x="1262" y="843"/>
      <point x="1262" y="889" type="curve" smooth="yes"/>
      <point x="1262" y="902"/>
      <point x="1261" y="926"/>
      <point x="1260" y="961" type="curve"/>
      <point x="1258" y="996"/>
      <point x="1249" y="1040"/>
      <point x="1234" y="1092" type="curve" smooth="yes"/>
      <point x="1219" y="1144"/>
      <point x="1197" y="1192"/>
      <point x="1170" y="1236" type="curve" smooth="yes"/>
      <point x="1089" y="1367"/>
      <point x="952" y="1452"/>
      <point x="773" y="1452" type="curve" smooth="yes"/>
      <point x="412" y="1452"/>
      <point x="114" y="1110"/>
    </contour>
    <contour>
      <point x="273" y="330" type="line"/>
      <point x="293" y="444" type="line"/>
      <point x="389" y="562"/>
      <point x="546" y="712"/>
      <point x="637" y="795" type="curve" smooth="yes"/>
      <point x="739" y="887"/>
      <point x="778" y="914"/>
      <point x="789" y="988" type="curve"/>
      <point x="791" y="996"/>
      <point x="792" y="1004"/>
      <point x="792" y="1012" type="curve" smooth="yes"/>
      <point x="792" y="1025"/>
      <point x="790" y="1048"/>
      <point x="776" y="1072" type="curve" smooth="yes"/>
      <point x="762" y="1095"/>
      <point x="737" y="1110"/>
      <point x="705" y="1110" type="curve" smooth="yes"/>
      <point x="640" y="1110"/>
      <point x="582" y="1063"/>
      <point x="531" y="988" type="curve"/>
      <point x="400" y="1040" type="line"/>
      <point x="469" y="1163"/>
      <point x="581" y="1240"/>
      <point x="737" y="1240" type="curve" smooth="yes"/>
      <point x="828" y="1240"/>
      <point x="894" y="1207"/>
      <point x="935" y="1159" type="curve" smooth="yes"/>
      <point x="975" y="1110"/>
      <point x="982" y="1059"/>
      <point x="982" y="1024" type="curve" smooth="yes"/>
      <point x="982" y="1010"/>
      <point x="981" y="996"/>
      <point x="978" y="982" type="curve"/>
      <point x="959" y="870"/>
      <point x="869" y="797"/>
      <point x="772" y="703" type="curve"/>
      <point x="676" y="607"/>
      <point x="557" y="500"/>
      <point x="515" y="450" type="curve"/>
      <point x="900" y="450" type="line"/>
      <point x="879" y="330" type="line"/>
    </contour>
  </outline>
</glyph>
